<svg width="76" height="34" viewBox="0 0 76 34" fill="none" xmlns="http://www.w3.org/2000/svg">
<path d="M23.1351 3.95117V30.0507L11.7166 23.5258V10.4761L23.1351 3.95117Z" fill="#FF0000"/>
<path d="M13.1507 3.95117V30.0507L1.73218 23.5258V10.4761L13.1507 3.95117Z" fill="#101010"/>
<path d="M34.5589 3.95117V30.0507L23.1404 23.5258V10.4761L34.5589 3.95117Z" fill="#FFC107"/>
<path d="M41.229 11.9316H39.5593V7.67103H41.1714C42.4208 7.67103 43.2902 8.54619 43.2902 9.81285C43.2902 11.0565 42.4438 11.9316 41.229 11.9316ZM41.0793 8.53467H40.492V11.068H41.1369C41.8738 11.068 42.3057 10.6016 42.3057 9.81285C42.3057 9.00679 41.8508 8.53467 41.0793 8.53467ZM46.6454 11.9316H43.9393V7.67103H46.6454V8.53467H44.8721V9.36952H46.4439V10.1871H44.8721V11.068H46.6454V11.9316ZM48.3412 7.67103V11.9316H47.4085V7.67103H48.3412ZM50.1514 11.9316H49.2302V7.67103H50.1514L51.9478 10.3829V7.67103H52.869V11.9316H51.9478L50.1514 9.22558V11.9316Z" fill="white"/>
<path d="M41.229 26.9121H39.5593V22.6515H41.1714C42.4208 22.6515 43.2902 23.5267 43.2902 24.7933C43.2902 26.037 42.4438 26.9121 41.229 26.9121ZM41.0793 23.5151H40.492V26.0485H41.1369C41.8738 26.0485 42.3057 25.5821 42.3057 24.7933C42.3057 23.9873 41.8508 23.5151 41.0793 23.5151ZM43.9105 25.3115V22.6515H44.8433V25.2482C44.8433 25.7836 45.1369 26.0773 45.6608 26.0773C46.1905 26.0773 46.4899 25.7721 46.4899 25.2482V22.6515H47.4227V25.3115C47.4227 26.3248 46.7318 26.9812 45.6608 26.9812C44.5957 26.9812 43.9105 26.3306 43.9105 25.3115ZM48.28 26.9121V22.6515H50.0533C50.9112 22.6515 51.4294 23.1006 51.4294 23.8318C51.4294 24.2867 51.2221 24.6206 50.8364 24.7876C51.2567 24.9257 51.4812 25.2539 51.4812 25.7376C51.4812 26.4918 50.9745 26.9121 50.0533 26.9121H48.28ZM49.9555 23.4691H49.2127V24.396H49.9555C50.2894 24.396 50.4736 24.2291 50.4736 23.9239C50.4736 23.6245 50.2952 23.4691 49.9555 23.4691ZM50.0015 25.1791H49.2127V26.0945H50.0015C50.347 26.0945 50.5255 25.9391 50.5255 25.6224C50.5255 25.3345 50.3412 25.1791 50.0015 25.1791ZM52.6343 26.9121H51.6613L53.1813 22.6515H54.091L55.6052 26.9121H54.6149L54.3155 26.0139H52.9395L52.6343 26.9121ZM53.5152 24.3212L53.2101 25.2309H54.0507L53.7455 24.3212C53.6995 24.1773 53.6476 24.0103 53.6304 23.9067C53.6131 24.0045 53.567 24.1657 53.5152 24.3212ZM57.0338 22.6515V26.9121H56.1011V22.6515H57.0338Z" fill="white"/>
<path d="M41.2866 18.0055H40.492V19.4219H39.5593V15.1613H41.2866C42.156 15.1613 42.7375 15.7313 42.7375 16.5834C42.7375 17.4355 42.156 18.0055 41.2866 18.0055ZM41.0793 15.9904H40.492V17.1764H41.0793C41.5284 17.1764 41.7529 16.9807 41.7529 16.5834C41.7529 16.1861 41.5284 15.9904 41.0793 15.9904ZM44.2592 19.4219H43.3265V15.1613H44.9731C46.0095 15.1613 46.5968 15.6622 46.5968 16.5431C46.5968 17.0958 46.3607 17.4873 45.8886 17.7291L46.6371 19.4219H45.618L44.9789 17.9307H44.2592V19.4219ZM44.2592 15.9904V17.1131H44.9674C45.3762 17.1131 45.6122 16.9058 45.6122 16.5431C45.6122 16.1861 45.3877 15.9904 44.9731 15.9904H44.2592ZM47.8719 19.4219H46.8989L48.4189 15.1613H49.3286L50.8428 19.4219H49.8525L49.5531 18.5237H48.1771L47.8719 19.4219ZM48.7528 16.831L48.4477 17.7407H49.2883L48.9831 16.831C48.9371 16.687 48.8853 16.5201 48.868 16.4164C48.8507 16.5143 48.8047 16.6755 48.7528 16.831ZM52.2714 15.1613V17.1995L53.8087 15.1613H54.9084L53.5151 16.9807L54.9199 19.4219H53.8433L52.9048 17.7752L52.2714 18.6043V19.4219H51.3387V15.1613H52.2714ZM55.0926 16.0249V15.1613H58.4435V16.0249H57.2344V19.4219H56.3017V16.0249H55.0926ZM59.9351 15.1613V19.4219H59.0024V15.1613H59.9351ZM61.7568 15.1613V17.1995L63.2941 15.1613H64.3938L63.0005 16.9807L64.4053 19.4219H63.3286L62.3902 17.7752L61.7568 18.6043V19.4219H60.8241V15.1613H61.7568ZM64.8773 17.8213V15.1613H65.8101V17.7579C65.8101 18.2934 66.1037 18.587 66.6276 18.587C67.1573 18.587 67.4567 18.2819 67.4567 17.7579V15.1613H68.3895V17.8213C68.3895 18.8346 67.6986 19.491 66.6276 19.491C65.5625 19.491 64.8773 18.8404 64.8773 17.8213ZM70.1507 19.4219H69.2468V15.1613H70.1507L71.4174 18.3395L72.6898 15.1613H73.6053V19.4219H72.7013V18.5295C72.7013 17.6082 72.7013 17.4067 72.7474 17.0901L71.8435 19.4219H70.9913L70.0932 17.0901C70.145 17.4067 70.1507 17.7637 70.1507 18.2301V19.4219Z" fill="white"/>
</svg>
