<svg width="112" height="32" viewBox="0 0 112 32" fill="none" xmlns="http://www.w3.org/2000/svg">
<mask id="mask0_337_386" style="mask-type:luminance" maskUnits="userSpaceOnUse" x="0" y="0" width="112" height="32">
<path d="M112 0H0V32H112V0Z" fill="white"/>
</mask>
<g mask="url(#mask0_337_386)">
<path d="M10.1052 19.9948H4.6108L3.83995 21.7152H0L4.91013 11.1328H9.94737L14.9703 21.7152H10.8884L10.1052 19.9948ZM7.35187 13.9076L5.73839 17.5203H8.99199L7.35187 13.9076Z" fill="#FCFCFC"/>
<path d="M26.8195 16.6232C27.1618 16.6804 27.4837 16.7663 27.783 16.8787C28.0824 16.991 28.3448 17.1483 28.5682 17.3486C28.7917 17.5469 28.968 17.7941 29.0972 18.0883C29.2263 18.3826 29.2899 18.734 29.2899 19.1406V20.7774C29.2899 21.0532 29.3043 21.2473 29.3329 21.3597C29.3617 21.4741 29.3985 21.5682 29.4477 21.6438V21.7152H25.4951C25.4766 21.6867 25.4541 21.6213 25.4315 21.5171C25.4069 21.4128 25.3967 21.2616 25.3967 21.0614V20.1664C25.3967 19.8252 25.3638 19.5412 25.2962 19.3123C25.2285 19.0855 25.1199 18.9056 24.9682 18.7708C24.8164 18.638 24.6135 18.544 24.3613 18.4868C24.1092 18.4296 23.7934 18.401 23.4121 18.401H20.0436V21.7152H16.1914V11.1328H24.7693C25.739 11.1328 26.5181 11.2186 27.1024 11.3882C27.6867 11.5598 28.1336 11.7826 28.4432 12.0563C28.7528 12.3323 28.9577 12.6428 29.0562 12.9882C29.1566 13.3335 29.2058 13.6788 29.2058 14.0201V14.1202C29.2058 14.5002 29.1381 14.8312 29.007 15.1152C28.8737 15.3993 28.6954 15.6444 28.4719 15.8468C28.2484 16.0511 27.9942 16.2166 27.7092 16.3454C27.4202 16.4741 27.1249 16.566 26.8195 16.6232ZM20.0416 15.6424H23.9656C24.2219 15.6424 24.429 15.6159 24.5868 15.5648C24.7447 15.5137 24.8697 15.4443 24.9641 15.3584C25.0584 15.2726 25.124 15.1765 25.1568 15.0662C25.1896 14.9579 25.206 14.8456 25.206 14.7311V14.7025C25.206 14.5881 25.1896 14.4798 25.1568 14.3756C25.124 14.2713 25.0584 14.1794 24.9641 14.0976C24.8697 14.018 24.7426 13.9526 24.5868 13.9056C24.429 13.8586 24.2219 13.8341 23.9656 13.8341H20.0416V15.6424Z" fill="#FCFCFC"/>
<path d="M62.4651 21.8886C61.5507 21.8886 60.7491 21.8048 60.0603 21.6393C59.3693 21.4737 58.781 21.253 58.291 20.9772C57.801 20.7013 57.3971 20.3847 57.0772 20.025C56.7575 19.6654 56.5032 19.2894 56.3146 18.9011C56.1239 18.5129 55.9927 18.1206 55.9231 17.7283C55.8513 17.3359 55.8164 16.9621 55.8164 16.6126V16.1855C55.8164 15.8341 55.8513 15.4622 55.9231 15.0699C55.9948 14.6776 56.1219 14.2873 56.3085 13.9031C56.495 13.519 56.7452 13.1491 57.065 12.7936C57.3827 12.4381 57.7908 12.1254 58.2848 11.8557C58.7789 11.586 59.3693 11.3694 60.0541 11.2079C60.7389 11.0465 61.5425 10.9668 62.4651 10.9668H63.1068C64.0294 10.9668 64.8351 11.0342 65.526 11.165C66.2149 11.2979 66.8032 11.4756 67.2891 11.6983C67.775 11.921 68.1707 12.1806 68.4802 12.4728C68.7898 12.767 69.0338 13.0755 69.2142 13.3964C69.3946 13.7193 69.5177 14.0461 69.5853 14.3772C69.6509 14.7102 69.6857 15.0229 69.6857 15.3151V15.4295H65.7043C65.6941 15.3621 65.6613 15.2415 65.6039 15.0678C65.5465 14.8941 65.4214 14.7123 65.2266 14.5243C65.0319 14.3363 64.7408 14.1688 64.3554 14.0236C63.9699 13.8786 63.4492 13.8071 62.7932 13.8071C62.174 13.8071 61.6737 13.8888 61.2884 14.0502C60.9029 14.2116 60.6036 14.416 60.3882 14.6592C60.1751 14.9023 60.0295 15.1659 59.9537 15.452C59.8778 15.7381 59.8389 16.0098 59.8389 16.2673V16.4389C59.8389 16.6964 59.8799 16.9722 59.9599 17.2685C60.0397 17.5648 60.1874 17.8386 60.4026 18.092C60.6159 18.3454 60.9173 18.5538 61.3026 18.7213C61.6881 18.8888 62.1904 18.9727 62.8075 18.9727C63.4635 18.9727 63.9822 18.9011 64.3635 18.7602C64.7449 18.6171 65.0319 18.4537 65.2266 18.2698C65.4214 18.0859 65.5486 17.9081 65.6039 17.7365C65.6613 17.5668 65.6941 17.4524 65.7043 17.3952H69.6857V17.5096C69.6857 17.7855 69.653 18.0838 69.5853 18.4066C69.5177 18.7295 69.3967 19.0544 69.2204 19.3813C69.0441 19.7083 68.8022 20.0209 68.4926 20.3193C68.183 20.6176 67.7832 20.8832 67.2932 21.1161C66.8032 21.349 66.2149 21.535 65.5301 21.6781C64.8453 21.8211 64.0355 21.8905 63.1047 21.8905H62.4651V21.8886Z" fill="#FCFCFC"/>
<path d="M80.2302 19.9948H74.7358L73.9649 21.7152H70.125L75.0351 11.1328H80.0724L85.0952 21.7152H81.0134L80.2302 19.9948ZM77.4769 13.9076L75.8634 17.5203H79.117L77.4769 13.9076Z" fill="#FCFCFC"/>
<path d="M91.9038 21.8718C90.9627 21.8718 90.153 21.8146 89.4784 21.7002C88.8019 21.5858 88.236 21.4345 87.7809 21.2445C87.3237 21.0544 86.9547 20.8379 86.6758 20.5906C86.395 20.3434 86.1839 20.0879 86.0403 19.8223C85.8968 19.5567 85.8025 19.289 85.7554 19.0193C85.7082 18.7496 85.6836 18.4962 85.6836 18.2592V18.1733H89.8228C89.8331 18.2776 89.8577 18.4002 89.9008 18.5432C89.9438 18.6862 90.0382 18.8211 90.1857 18.9477C90.3334 19.0765 90.5486 19.1868 90.8356 19.2829C91.1206 19.3768 91.5101 19.4259 92.0063 19.4259H92.0924C92.5782 19.4259 92.9637 19.3973 93.2486 19.3401C93.5332 19.2829 93.7553 19.2073 93.9131 19.1133C94.0708 19.0193 94.1716 18.9151 94.2201 18.8007C94.2677 18.6862 94.292 18.5739 94.292 18.4594C94.292 18.3368 94.2677 18.2224 94.2201 18.1181C94.1735 18.014 94.0773 17.9221 93.9355 17.8403C93.7917 17.7606 93.5892 17.6952 93.3225 17.6482C93.056 17.6012 92.7094 17.5726 92.281 17.5624L90.7967 17.5194C89.8167 17.5011 89.0049 17.4009 88.3631 17.2211C87.7214 17.0413 87.211 16.8043 86.8358 16.5101C86.4606 16.2158 86.1981 15.8787 86.0506 15.5007C85.9029 15.1206 85.8292 14.7181 85.8292 14.291V14.1766C85.8292 13.7208 85.9152 13.2999 86.0854 12.9097C86.2576 12.5214 86.559 12.1822 86.9916 11.8921C87.4242 11.602 88.0146 11.3772 88.7609 11.2157C89.5071 11.0543 90.4605 10.9746 91.6229 10.9746H92.2359C93.5108 10.9746 94.5365 11.0748 95.3112 11.2729C96.0859 11.4712 96.6823 11.7307 97.1032 12.0474C97.5213 12.3661 97.8004 12.7217 97.9376 13.1141C98.0748 13.5084 98.1448 13.8987 98.1448 14.2869V14.3584H94.0773C94.0587 14.2522 94.0213 14.1357 93.97 14.0152C93.9168 13.8926 93.8141 13.7821 93.6629 13.678C93.5108 13.5758 93.2999 13.49 93.0272 13.4225C92.7566 13.3552 92.4019 13.3204 91.9632 13.3204H91.8484C91.42 13.3204 91.0734 13.3388 90.8069 13.3776C90.5404 13.4165 90.3334 13.4716 90.1857 13.5431C90.0382 13.6146 89.9376 13.7025 89.8864 13.8047C89.8331 13.9068 89.8085 14.0152 89.8085 14.1296C89.8085 14.2461 89.8331 14.3523 89.8802 14.4483C89.9275 14.5444 90.0197 14.6281 90.1591 14.7017C90.2964 14.7732 90.4891 14.8345 90.7372 14.8835C90.9853 14.9326 91.3072 14.9612 91.707 14.9694L93.2344 14.998C94.2715 15.0266 95.118 15.1206 95.7741 15.282C96.4303 15.4434 96.9473 15.66 97.3225 15.9298C97.6977 16.1994 97.9581 16.5264 98.0991 16.9105C98.2428 17.2947 98.3128 17.7197 98.3128 18.1835V18.3552C98.3128 18.6393 98.2839 18.9233 98.226 19.2093C98.1691 19.4933 98.0627 19.7672 97.9049 20.0266C97.7463 20.2882 97.5297 20.5293 97.2488 20.752C96.9679 20.9748 96.6048 21.1688 96.1559 21.3344C95.7088 21.4999 95.1656 21.6307 94.5281 21.7247C93.8907 21.8187 93.1338 21.8677 92.2585 21.8677H91.9038V21.8718Z" fill="#FCFCFC"/>
<path d="M103.911 14.0486H99.6587V11.1328H112.003V14.0486H107.749V21.7152H103.911V14.0486Z" fill="#FCFCFC"/>
<path d="M52.1603 0C51.5002 0 50.9507 5.45574 50.8215 12.7137C50.6862 6.05443 50.1409 1.07684 49.4869 1.07684C48.8267 1.07684 48.2773 6.16886 48.1481 12.9406C48.0129 6.76756 47.4675 2.15164 46.8156 2.15164C46.1554 2.15164 45.6039 6.87994 45.4768 13.1673C45.3394 7.48069 44.7941 3.22849 44.1442 3.22849C43.484 3.22849 42.9325 7.59308 42.8054 13.3941C42.668 8.19177 42.1227 4.30533 41.4728 4.30533C40.8127 4.30533 40.2611 8.3062 40.134 13.623C39.9967 8.90695 39.4514 5.38217 38.8015 5.38217C38.1393 5.38217 37.5878 9.02341 37.4627 13.8559C37.3253 9.62214 36.78 6.45902 36.1301 6.45902C35.4679 6.45902 34.9164 9.73656 34.7914 14.0868C34.654 10.3373 34.1086 7.53586 33.4587 7.53586C32.7043 7.53586 32.0913 11.3059 32.0913 15.9585C32.0913 20.6113 32.7023 24.3812 33.4587 24.3812C34.1086 24.3812 34.6519 21.5819 34.7914 17.8302C34.9164 22.1806 35.4679 25.458 36.1301 25.458C36.78 25.458 37.3253 22.295 37.4627 18.0611C37.5878 22.8957 38.1414 26.5349 38.8015 26.5349C39.4534 26.5349 39.9967 23.0122 40.134 18.294C40.2611 23.6109 40.8127 27.6117 41.4728 27.6117C42.1247 27.6117 42.668 23.7253 42.8054 18.523C42.9325 24.324 43.484 28.6886 44.1442 28.6886C44.7961 28.6886 45.3415 24.4384 45.4768 18.7498C45.6039 25.0371 46.1554 29.7654 46.8156 29.7654C47.4675 29.7654 48.0129 25.1515 48.1481 18.9766C48.2752 25.7482 48.8267 30.8402 49.4869 30.8402C50.1388 30.8402 50.6842 25.8606 50.8215 19.2033C50.9507 26.4613 51.5002 31.9171 52.1603 31.9171C52.9147 31.9171 53.5277 24.7715 53.5277 15.9565C53.5277 7.14149 52.9147 0 52.1603 0Z" fill="#FF8C42"/>
</g>
</svg>
