<svg width="114" height="35" viewBox="0 0 114 35" fill="none" xmlns="http://www.w3.org/2000/svg">
<path d="M11.3906 10.1953C11.3906 11.2526 11.1589 12.2109 10.6953 13.0703C10.237 13.9297 9.625 14.5964 8.85938 15.0703C8.32812 15.3984 7.73438 15.6354 7.07812 15.7812C6.42708 15.9271 5.56771 16 4.5 16H1.5625V4.36719H4.46875C5.60417 4.36719 6.50521 4.45052 7.17188 4.61719C7.84375 4.77865 8.41146 5.0026 8.875 5.28906C9.66667 5.78385 10.2839 6.44271 10.7266 7.26562C11.1693 8.08854 11.3906 9.0651 11.3906 10.1953ZM9.77344 10.1719C9.77344 9.26042 9.61458 8.49219 9.29688 7.86719C8.97917 7.24219 8.50521 6.75 7.875 6.39062C7.41667 6.13021 6.92969 5.95052 6.41406 5.85156C5.89844 5.7474 5.28125 5.69531 4.5625 5.69531H3.10938V14.6719H4.5625C5.30729 14.6719 5.95573 14.6172 6.50781 14.5078C7.0651 14.3984 7.57552 14.1953 8.03906 13.8984C8.61719 13.5286 9.04948 13.0417 9.33594 12.4375C9.6276 11.8333 9.77344 11.0781 9.77344 10.1719ZM18.4922 16H13.8984V14.8125H15.4219V5.55469H13.8984V4.36719H18.4922V5.55469H16.9688V14.8125H18.4922V16ZM29.0547 5.74219H23.1719V9.02344H28.2266V10.3984H23.1719V16H21.625V4.36719H29.0547V5.74219ZM38.7578 5.74219H32.875V9.02344H37.9297V10.3984H32.875V16H31.3281V4.36719H38.7578V5.74219ZM48.6953 16H41.0312V4.36719H48.6953V5.74219H42.5781V8.92969H48.6953V10.3047H42.5781V14.625H48.6953V16ZM61.2812 16H59.2734L55.3828 11.375H53.2031V16H51.6562V4.36719H54.9141C55.6172 4.36719 56.2031 4.41406 56.6719 4.50781C57.1406 4.59635 57.5625 4.75781 57.9375 4.99219C58.3594 5.25781 58.6875 5.59375 58.9219 6C59.1615 6.40104 59.2812 6.91146 59.2812 7.53125C59.2812 8.36979 59.0703 9.07292 58.6484 9.64062C58.2266 10.2031 57.6458 10.6276 56.9062 10.9141L61.2812 16ZM57.6641 7.64062C57.6641 7.30729 57.6042 7.01302 57.4844 6.75781C57.3698 6.4974 57.1771 6.27865 56.9062 6.10156C56.6823 5.95052 56.4167 5.84635 56.1094 5.78906C55.8021 5.72656 55.4401 5.69531 55.0234 5.69531H53.2031V10.0859H54.7656C55.2552 10.0859 55.6823 10.0443 56.0469 9.96094C56.4115 9.8724 56.7214 9.71094 56.9766 9.47656C57.2109 9.25781 57.3828 9.00781 57.4922 8.72656C57.6068 8.4401 57.6641 8.07812 57.6641 7.64062ZM70.9453 16H63.2812V4.36719H70.9453V5.74219H64.8281V8.92969H70.9453V10.3047H64.8281V14.625H70.9453V16ZM82.7812 16H80.8672L75.3516 5.59375V16H73.9062V4.36719H76.3047L81.3359 13.8672V4.36719H82.7812V16ZM94.6719 5.74219H90.5156V16H88.9688V5.74219H84.8125V4.36719H94.6719V5.74219ZM104.094 16H96.7344V4.36719H98.2812V14.625H104.094V16ZM113.125 4.36719L109.031 10.8984V16H107.484V11.0625L103.375 4.36719H105.086L108.266 9.57031L111.477 4.36719H113.125Z" fill="white"/>
<line y1="11.75" x2="113" y2="11.75" stroke="white" stroke-width="0.5"/>
<path d="M43.9219 32H42.375V21.9766L39.1406 28.7969H38.2188L35.0078 21.9766V32H33.5625V20.3672H35.6719L38.7734 26.8438L41.7734 20.3672H43.9219V32ZM56.7188 32H55.0703L53.9297 28.7578H48.8984L47.7578 32H46.1875L50.4219 20.3672H52.4844L56.7188 32ZM53.4531 27.4297L51.4141 21.7188L49.3672 27.4297H53.4531ZM68.8125 26.1953C68.8125 27.2526 68.5807 28.2109 68.1172 29.0703C67.6589 29.9297 67.0469 30.5964 66.2812 31.0703C65.75 31.3984 65.1562 31.6354 64.5 31.7812C63.849 31.9271 62.9896 32 61.9219 32H58.9844V20.3672H61.8906C63.026 20.3672 63.9271 20.4505 64.5938 20.6172C65.2656 20.7786 65.8333 21.0026 66.2969 21.2891C67.0885 21.7839 67.7057 22.4427 68.1484 23.2656C68.5911 24.0885 68.8125 25.0651 68.8125 26.1953ZM67.1953 26.1719C67.1953 25.2604 67.0365 24.4922 66.7188 23.8672C66.401 23.2422 65.9271 22.75 65.2969 22.3906C64.8385 22.1302 64.3516 21.9505 63.8359 21.8516C63.3203 21.7474 62.7031 21.6953 61.9844 21.6953H60.5312V30.6719H61.9844C62.7292 30.6719 63.3776 30.6172 63.9297 30.5078C64.487 30.3984 64.9974 30.1953 65.4609 29.8984C66.0391 29.5286 66.4714 29.0417 66.7578 28.4375C67.0495 27.8333 67.1953 27.0781 67.1953 26.1719ZM79.4766 32H71.8125V20.3672H79.4766V21.7422H73.3594V24.9297H79.4766V26.3047H73.3594V30.625H79.4766V32Z" fill="white"/>
<line x1="30" y1="27.75" x2="82" y2="27.75" stroke="white" stroke-width="0.5"/>
</svg>
