<svg width="40" height="40" viewBox="0 0 40 40" fill="none" xmlns="http://www.w3.org/2000/svg">
<path d="M29.2452 14.0235C31.0504 14.0235 32.5138 12.5601 32.5138 10.7549C32.5138 8.94973 31.0504 7.48633 29.2452 7.48633C27.44 7.48633 25.9766 8.94973 25.9766 10.7549C25.9766 12.5601 27.44 14.0235 29.2452 14.0235Z" fill="#00CEA8"/>
<path d="M33.0752 23.2696C34.8804 23.2696 36.3438 21.8062 36.3438 20.001C36.3438 18.1958 34.8804 16.7324 33.0752 16.7324C31.27 16.7324 29.8066 18.1958 29.8066 20.001C29.8066 21.8062 31.27 23.2696 33.0752 23.2696Z" fill="#F2F7F6"/>
<path d="M29.2452 32.5138C31.0504 32.5138 32.5138 31.0504 32.5138 29.2452C32.5138 27.44 31.0504 25.9766 29.2452 25.9766C27.44 25.9766 25.9766 27.44 25.9766 29.2452C25.9766 31.0504 27.44 32.5138 29.2452 32.5138Z" fill="#F2F7F6"/>
<path d="M20.001 36.3438C21.8062 36.3438 23.2696 34.8804 23.2696 33.0752C23.2696 31.27 21.8062 29.8066 20.001 29.8066C18.1958 29.8066 16.7324 31.27 16.7324 33.0752C16.7324 34.8804 18.1958 36.3438 20.001 36.3438Z" fill="#F2F7F6"/>
<path d="M10.7549 32.5138C12.5601 32.5138 14.0235 31.0504 14.0235 29.2452C14.0235 27.44 12.5601 25.9766 10.7549 25.9766C8.94973 25.9766 7.48633 27.44 7.48633 29.2452C7.48633 31.0504 8.94973 32.5138 10.7549 32.5138Z" fill="#F2F7F6"/>
<path d="M6.92485 23.2696C8.73005 23.2696 10.1935 21.8062 10.1935 20.001C10.1935 18.1958 8.73005 16.7324 6.92485 16.7324C5.11965 16.7324 3.65625 18.1958 3.65625 20.001C3.65625 21.8062 5.11965 23.2696 6.92485 23.2696Z" fill="#F2F7F6"/>
<path d="M10.7549 14.0235C12.5601 14.0235 14.0235 12.5601 14.0235 10.7549C14.0235 8.94973 12.5601 7.48633 10.7549 7.48633C8.94973 7.48633 7.48633 8.94973 7.48633 10.7549C7.48633 12.5601 8.94973 14.0235 10.7549 14.0235Z" fill="#F2F7F6"/>
<path d="M20.001 10.1935C21.8062 10.1935 23.2696 8.73005 23.2696 6.92485C23.2696 5.11965 21.8062 3.65625 20.001 3.65625C18.1958 3.65625 16.7324 5.11965 16.7324 6.92485C16.7324 8.73005 18.1958 10.1935 20.001 10.1935Z" fill="#F2F7F6"/>
<path d="M13.6875 18.3074L14.8149 18.61C18.0246 19.4704 20.5314 21.9771 21.3918 25.1869L21.6944 26.3143L24.6228 15.377L13.6875 18.3074Z" fill="#F2F7F6"/>
</svg>
