<svg width="39" height="48" viewBox="0 0 39 48" fill="none" xmlns="http://www.w3.org/2000/svg">
<g clip-path="url(#clip0_463_3551)">
<path d="M14.0523 17.8941H9.70044V17.5748C11.0573 17.476 11.1067 17.4418 11.1067 15.682V2.69475C11.1067 1.60773 10.7038 1.4899 9.5332 1.4899V1.17064C10.8407 1.17064 11.6084 0.786761 12.513 0L12.646 0.0836171V15.682C12.646 17.438 12.8627 17.457 14.0523 17.5748V17.8941Z" fill="white"/>
<path d="M18.2862 20.9047H14.0825V20.5854C15.2722 20.4866 15.3216 20.4524 15.3216 18.6926V11.2963C15.3216 10.2093 14.9187 10.0915 13.748 10.0915V9.7722C15.0555 9.7722 15.8233 9.38832 16.7279 8.60156L16.8609 8.68518V10.1751C17.8149 9.33891 18.651 8.68518 19.5898 8.68518C21.3154 8.68518 22.5354 10.3575 22.5354 12.9725C22.5354 16.0017 20.7111 18.0617 18.7195 18.0617C17.8491 18.0617 17.3132 17.6588 16.8609 17.427V18.7002C16.8609 20.4562 16.9293 20.4752 18.2824 20.593V20.9123L18.2862 20.9047ZM20.8289 13.7554C20.8289 10.8934 20.1105 9.57076 18.9019 9.57076C17.545 9.57076 16.8609 11.0949 16.8609 12.4175V15.6976C17.0623 16.853 17.8985 17.6398 18.8525 17.6398C20.0915 17.6398 20.8289 16.3323 20.8289 13.7554Z" fill="white"/>
<path d="M26.4373 17.8942H22.2336V17.5749C23.5905 17.4761 23.6399 17.4419 23.6399 15.6821V7.06194C23.6399 5.97492 23.237 5.85709 22.0664 5.85709V5.53783C23.3739 5.53783 24.1416 5.15395 25.0462 4.36719L25.1792 4.4508V10.1444C26.6007 9.10676 27.1708 8.68867 28.1096 8.68867C29.4817 8.68867 30.067 9.60846 30.067 11.5164V15.6859C30.067 17.4419 30.1355 17.4609 31.4885 17.5787V17.8979H27.2849V17.5787C28.4745 17.4799 28.5239 17.4457 28.5239 15.6859V12.3032C28.5239 10.1254 27.7524 9.62366 27.034 9.62366C26.1636 9.62366 25.1754 10.5282 25.1754 12.0828V15.6821C25.1754 17.4381 25.2439 17.4571 26.4297 17.5749V17.8942H26.4373Z" fill="white"/>
<path d="M35.8294 17.893V16.9238C35.092 17.4939 34.2217 18.064 33.2867 18.064C31.9982 18.064 31.5117 17.0416 31.5117 16.1902C31.5117 15.1678 32.1654 14.6661 33.9708 14.0656L35.8294 13.4461V11.6369C35.8294 9.91135 35.4455 9.1588 34.5219 9.1588C32.8496 9.1588 34.119 11.4507 32.6139 11.4507C31.9792 11.4507 31.7588 11.0668 31.7588 10.7133C31.7588 9.72511 33.5679 8.6875 35.1415 8.6875C36.715 8.6875 37.3687 9.57308 37.3687 11.1808V15.6847C37.3687 17.4407 37.4371 17.4597 38.623 17.5775V17.8968H35.8256L35.8294 17.893ZM35.8294 15.6847V14.0276L34.5751 14.4305C33.4197 14.8144 33.0852 15.3351 33.0852 16.004C33.0852 16.5893 33.3855 17.1746 34.0886 17.1746C34.7082 17.1746 35.6964 16.7718 35.8294 15.6847Z" fill="white"/>
<path d="M3.4169 32.861H0V32.5418C1.18964 32.4429 1.40629 32.1731 1.40629 30.9834V22.9638C1.40629 21.4891 0.870378 20.8886 0 20.786V20.4667H2.4591L8.46813 29.657V22.6749C8.46813 21.3371 8.13366 20.8658 7.06184 20.7822V20.4629H10.4787V20.7822C9.40692 20.881 9.05725 21.3523 9.05725 22.6749V32.8534H8.47193V32.8192L1.99161 22.9372V30.991C1.99161 32.1807 2.22725 32.4315 3.4131 32.5494V32.8686L3.4169 32.861Z" fill="white"/>
<path d="M10.582 28.5591C10.582 25.7808 11.9541 23.6523 14.2156 23.6523C15.5534 23.6523 17.0966 24.4391 17.0966 27.0996L12.224 27.6014C12.2392 29.9616 13.1438 32.0711 14.7515 32.0711C15.5534 32.0711 16.4238 31.5504 17.127 30.8168L17.3284 31.0829C16.6101 31.9532 15.5382 33.0251 14.0141 33.0251C12.1898 33.0251 10.582 31.5199 10.582 28.5553V28.5591ZM12.2544 26.8184H15.5002C15.4014 24.4087 14.4968 24.1388 13.9951 24.1388C12.9727 24.1388 12.3874 25.2449 12.2544 26.8184Z" fill="white"/>
<path d="M25.6631 32.8611C25.1272 32.8269 24.5229 32.7927 23.9224 32.7927C23.3218 32.7927 22.6833 32.8269 22.0486 32.8611V32.5267C22.5693 32.4773 22.8201 32.3746 22.8201 32.0896C22.8201 31.8881 22.6871 31.5879 22.4363 31.1508L21.1972 29.0072L20.361 30.4819C19.8745 31.3522 19.5895 31.8387 19.5895 32.1238C19.5895 32.4088 19.8403 32.4925 20.361 32.5419V32.8611C19.8593 32.8269 19.3386 32.7927 18.8559 32.7927C18.3732 32.7927 17.9019 32.8269 17.4648 32.8611V32.5419C18.3694 32.4241 18.7875 32.2416 19.3728 31.2344L20.9616 28.5739L19.1866 25.4952C18.6507 24.5564 18.3162 24.4082 17.6625 24.3056V23.9863C18.2136 24.0205 18.8179 24.0547 19.4374 24.0547C20.057 24.0547 20.6917 24.0205 21.3302 23.9863V24.3056C20.8437 24.355 20.6271 24.4386 20.6271 24.6895C20.6271 24.9061 20.7791 25.2254 21.0642 25.7271L21.984 27.369L22.5541 26.3656C23.0216 25.5294 23.2572 25.0429 23.2572 24.7579C23.2572 24.4576 23.0064 24.355 22.5541 24.3056V23.9863C23.0558 24.0205 23.5765 24.0547 24.0592 24.0547C24.5419 24.0547 25.0132 24.0205 25.4313 23.9863V24.3056C24.3595 24.4234 24.1238 24.6059 23.5385 25.6131L22.231 27.8213L24.2074 31.337C24.7433 32.291 25.0094 32.4241 25.6631 32.5267V32.8611Z" fill="white"/>
<path d="M30.2304 32.045C29.7781 32.5809 29.1092 33.0332 28.2198 33.0332C27.167 33.0332 26.3955 32.3795 26.3955 31.2089V24.5119L25.373 24.3447V23.995C26.6273 23.995 27.4825 23.2082 27.6155 21.9844H27.9348V23.7593L29.9758 23.995V24.3447L27.9348 24.5461V30.9732C27.9348 31.9272 28.254 32.2959 28.8546 32.2959C29.3563 32.2959 29.7401 32.045 30.0442 31.7448L30.2266 32.045H30.2304Z" fill="white"/>
<path d="M7.03566 47.8342H2.22768V47.515C3.786 47.3819 3.8164 47.3971 3.8164 45.9566V35.8276H3.11326C1.77538 35.8276 1.17106 36.2951 0.3843 38.5071L0.015625 38.4235L0.502124 34.8926L0.8708 34.942C1.00383 35.3259 1.20527 35.4437 1.67276 35.4437H7.58297C8.05047 35.4437 8.25191 35.3259 8.38493 34.942L8.75361 34.8926L9.24011 38.4235L8.87143 38.5071C8.08467 36.2989 7.48035 35.8276 6.14248 35.8276H5.43933V45.9566C5.43933 47.3971 5.47354 47.3781 7.02806 47.515V47.8342H7.03566Z" fill="white"/>
<path d="M9.44531 43.5318C9.44531 40.7534 10.8174 38.625 13.0789 38.625C14.4167 38.625 15.9598 39.4118 15.9598 42.0723L11.0872 42.574C11.1025 44.9343 12.007 47.0437 13.6148 47.0437C14.4167 47.0437 15.2871 46.523 15.9902 45.7895L16.1917 46.0555C15.4733 46.9259 14.4015 47.9977 12.8774 47.9977C11.053 47.9977 9.44531 46.4926 9.44531 43.528V43.5318ZM11.1177 41.791H14.3635C14.2647 39.3814 13.3601 39.1115 12.8584 39.1115C11.836 39.1115 11.2507 40.2175 11.1177 41.791Z" fill="white"/>
<path d="M18.4193 42.5133C18.4193 44.8888 19.3239 47.0514 20.9468 47.0514C21.7184 47.0514 22.6191 46.5307 23.3223 45.7972L23.5237 46.0632C22.8054 46.9336 21.7982 48.0054 20.2246 48.0054C18.3319 48.0054 16.7773 46.4661 16.7773 43.5357C16.7773 40.7573 18.0848 38.6289 20.8974 38.6289C22.4709 38.6289 23.1893 39.2636 23.1893 39.8832C23.1893 40.3355 22.87 40.822 22.3037 40.822C21.2167 40.822 21.5511 39.1154 20.2627 39.1154C19.073 39.1154 18.4193 40.5559 18.4193 42.5133Z" fill="white"/>
<path d="M27.5408 47.8336H23.3372V47.5143C24.694 47.4155 24.7434 47.3813 24.7434 45.6215V37.0014C24.7434 35.9144 24.3406 35.7965 23.1699 35.7965V35.4773C24.4774 35.4773 25.2451 35.0934 26.1497 34.3066L26.2828 34.3903V40.0838C27.7042 39.0462 28.2744 38.6281 29.2132 38.6281C30.5852 38.6281 31.1706 39.5479 31.1706 41.4559V45.6254C31.1706 47.3813 31.239 47.4003 32.592 47.5181V47.8374H28.3884V47.5181C29.578 47.4193 29.6274 47.3851 29.6274 45.6254V42.2427C29.6274 40.0648 28.8559 39.5631 28.1375 39.5631C27.2672 39.5631 26.279 40.4677 26.279 42.0222V45.6215C26.279 47.3775 26.3474 47.3965 27.5332 47.5143V47.8336H27.5408Z" fill="white"/>
<path d="M3.31718 17.893H0.0371094V17.5737C1.05952 17.4901 1.42819 17.1062 1.88049 15.6809L5.20997 5.16797H5.64705L8.91192 16.0154C9.34901 17.4369 9.34901 17.4559 10.4018 17.5737V17.893H6.19817V17.5737C7.45242 17.4749 7.60445 17.3913 7.20157 16.0154L6.66566 14.172H2.9181L2.46581 15.6771C2.04772 17.0492 2.16554 17.4673 3.32098 17.5699V17.8892L3.31718 17.893ZM6.53264 13.7577L4.82609 7.91593L3.05112 13.7577H6.53264Z" fill="white"/>
<path d="M35.5229 45.8594H33.5312V47.851H35.5229V45.8594Z" fill="white"/>
</g>
<defs>
<clipPath id="clip0_463_3551">
<rect width="38.6235" height="48" fill="white"/>
</clipPath>
</defs>
</svg>
