<svg width="79" height="16" viewBox="0 0 79 16" fill="none" xmlns="http://www.w3.org/2000/svg">
<path d="M7.84 15.364C6.552 15.364 5.376 15.0327 4.312 14.37C3.25733 13.7073 2.41267 12.8207 1.778 11.71C1.15267 10.59 0.84 9.35333 0.84 8C0.84 6.97333 1.022 6.01667 1.386 5.13C1.75 4.234 2.24933 3.45 2.884 2.778C3.528 2.09667 4.27467 1.56467 5.124 1.182C5.97333 0.799333 6.87867 0.608 7.84 0.608C8.89467 0.608 9.86067 0.822666 10.738 1.252C11.6247 1.672 12.3807 2.26 13.006 3.016C13.6407 3.772 14.112 4.64933 14.42 5.648C14.7373 6.64667 14.854 7.71533 14.77 8.854H3.346C3.458 9.64733 3.71933 10.3567 4.13 10.982C4.54067 11.598 5.06333 12.088 5.698 12.452C6.342 12.816 7.056 13.0027 7.84 13.012C8.68 13.012 9.44067 12.7973 10.122 12.368C10.8033 11.9293 11.354 11.332 11.774 10.576L14.168 11.136C13.608 12.3773 12.7633 13.3947 11.634 14.188C10.5047 14.972 9.24 15.364 7.84 15.364ZM3.276 7.006H12.404C12.3293 6.222 12.0773 5.508 11.648 4.864C11.2187 4.21067 10.6727 3.688 10.01 3.296C9.34733 2.904 8.624 2.708 7.84 2.708C7.056 2.708 6.33733 2.89933 5.684 3.282C5.03067 3.66467 4.48933 4.18267 4.06 4.836C3.64 5.48 3.37867 6.20333 3.276 7.006ZM36.5052 6.292V15H34.1532V6.81C34.1532 6.10067 33.9806 5.45667 33.6352 4.878C33.2899 4.29933 32.8279 3.842 32.2492 3.506C31.6706 3.16067 31.0266 2.988 30.3172 2.988C29.6172 2.988 28.9732 3.16067 28.3852 3.506C27.8066 3.842 27.3446 4.29933 26.9992 4.878C26.6539 5.45667 26.4812 6.10067 26.4812 6.81V15H24.1292V1H26.4812V2.75C26.9759 2.09667 27.6012 1.57867 28.3572 1.196C29.1132 0.804 29.9346 0.608 30.8212 0.608C31.8666 0.608 32.8186 0.864666 33.6772 1.378C34.5452 1.882 35.2312 2.56333 35.7352 3.422C36.2486 4.28067 36.5052 5.23733 36.5052 6.292ZM50.575 15.266C49.819 15.238 49.0817 15.098 48.363 14.846C47.6537 14.5847 47.0283 14.2347 46.487 13.796C45.955 13.348 45.5677 12.8347 45.325 12.256L47.341 11.388C47.481 11.7053 47.733 12.004 48.097 12.284C48.461 12.564 48.881 12.788 49.357 12.956C49.833 13.124 50.3137 13.208 50.799 13.208C51.3123 13.208 51.793 13.1287 52.241 12.97C52.689 12.8113 53.053 12.578 53.333 12.27C53.6223 11.9527 53.767 11.5747 53.767 11.136C53.767 10.6693 53.6083 10.3053 53.291 10.044C52.983 9.77333 52.591 9.56333 52.115 9.414C51.6483 9.25533 51.1723 9.106 50.687 8.966C49.7257 8.72333 48.867 8.434 48.111 8.098C47.355 7.75267 46.7577 7.31867 46.319 6.796C45.8897 6.264 45.675 5.58733 45.675 4.766C45.675 3.898 45.913 3.14667 46.389 2.512C46.8743 1.87733 47.509 1.38733 48.293 1.042C49.077 0.696666 49.917 0.523999 50.813 0.523999C51.9423 0.523999 52.9737 0.766666 53.907 1.252C54.8403 1.73733 55.5357 2.39533 55.993 3.226L54.103 4.332C53.9443 3.996 53.7017 3.702 53.375 3.45C53.0483 3.18867 52.675 2.98333 52.255 2.834C51.835 2.68467 51.4057 2.60533 50.967 2.596C50.4257 2.57733 49.917 2.64733 49.441 2.806C48.9743 2.96467 48.5963 3.20733 48.307 3.534C48.027 3.85133 47.887 4.248 47.887 4.724C47.887 5.19067 48.0363 5.54533 48.335 5.788C48.643 6.03067 49.0397 6.22667 49.525 6.376C50.0197 6.516 50.5563 6.67933 51.135 6.866C51.9843 7.13667 52.7777 7.44933 53.515 7.804C54.2523 8.15867 54.845 8.602 55.293 9.134C55.7503 9.666 55.9743 10.324 55.965 11.108C55.965 11.9667 55.7083 12.718 55.195 13.362C54.6817 13.9967 54.0143 14.482 53.193 14.818C52.381 15.154 51.5083 15.3033 50.575 15.266ZM71.3869 15.364C70.0989 15.364 68.9229 15.0327 67.8589 14.37C66.8042 13.7073 65.9595 12.8207 65.3249 11.71C64.6995 10.59 64.3869 9.35333 64.3869 8C64.3869 6.97333 64.5689 6.01667 64.9329 5.13C65.2969 4.234 65.7962 3.45 66.4309 2.778C67.0749 2.09667 67.8215 1.56467 68.6709 1.182C69.5202 0.799333 70.4255 0.608 71.3869 0.608C72.6749 0.608 73.8462 0.939333 74.9009 1.602C75.9649 2.26467 76.8095 3.156 77.4349 4.276C78.0695 5.396 78.3869 6.63733 78.3869 8C78.3869 9.01733 78.2049 9.96933 77.8409 10.856C77.4769 11.7427 76.9729 12.5267 76.3289 13.208C75.6942 13.88 74.9522 14.4073 74.1029 14.79C73.2629 15.1727 72.3575 15.364 71.3869 15.364ZM71.3869 13.012C72.2642 13.012 73.0529 12.7833 73.7529 12.326C74.4622 11.8593 75.0175 11.248 75.4189 10.492C75.8295 9.72667 76.0349 8.896 76.0349 8C76.0349 7.08533 75.8249 6.24533 75.4049 5.48C74.9942 4.71467 74.4389 4.10333 73.7389 3.646C73.0389 3.18867 72.2549 2.96 71.3869 2.96C70.5095 2.96 69.7209 3.19333 69.0209 3.66C68.3209 4.11733 67.7655 4.72867 67.3549 5.494C66.9442 6.25933 66.7389 7.09467 66.7389 8C66.7389 8.93333 66.9489 9.78267 67.3689 10.548C67.7889 11.304 68.3535 11.906 69.0629 12.354C69.7722 12.7927 70.5469 13.012 71.3869 13.012Z" fill="white"/>
</svg>
