<svg width="73" height="32" viewBox="0 0 73 32" fill="none" xmlns="http://www.w3.org/2000/svg">
<path d="M6.23155 1.64062V19.445H13.8898V23.8978H1.16211V1.64062H6.23155Z" fill="white"/>
<path d="M14.7527 2.34097C15.3112 1.78479 15.977 1.50586 16.7501 1.50586C17.5223 1.50586 18.1873 1.78479 18.7441 2.34097C19.3026 2.89799 19.5822 3.56405 19.5822 4.33914C19.5822 5.11255 19.3026 5.77776 18.7441 6.33394C18.1873 6.89096 17.5223 7.16905 16.7501 7.16905C15.977 7.16905 15.3112 6.89096 14.7527 6.33394C14.1959 5.77776 13.918 5.11255 13.918 4.33914C13.918 3.56405 14.1959 2.89799 14.7527 2.34097ZM14.2965 10.0564V23.8983H19.0685V10.0564H14.2965Z" fill="white"/>
<path d="M23.842 10.0566L27.2149 17.5861L30.5844 10.0566H36.2486L28.8303 23.8985H25.596L18.1777 10.0566H23.842Z" fill="white"/>
<path d="M54.7273 1.64062V15.993C54.7273 18.7274 53.9888 20.7966 52.5136 22.2005C51.0401 23.6028 48.8822 24.3035 46.0416 24.3035C43.2028 24.3035 41.0449 23.6028 39.5697 22.2005C38.0961 20.7966 37.3594 18.7274 37.3594 15.993V1.64062H42.4288V14.5087C42.4288 16.3074 42.711 17.5576 43.2771 18.2583C43.8449 18.9598 44.7658 19.3098 46.0416 19.3098C47.3191 19.3098 48.2401 18.9598 48.8062 18.2583C49.374 17.5576 49.6578 16.3074 49.6578 14.5087V1.64062H54.7273Z" fill="white"/>
<path d="M69.8302 11.7708C71.1254 13.1824 71.7735 14.9135 71.7735 16.964C71.7735 19.0155 71.1254 20.7525 69.8302 22.1742C68.5366 23.5942 66.8916 24.3042 64.8959 24.3042C63.0616 24.3042 61.5509 23.7286 60.3638 22.5765V30.9141H55.5918V10.0566H60.3098V11.622H60.3638C61.5509 10.3102 63.0616 9.6543 64.8959 9.6543C66.8916 9.6543 68.5366 10.3601 69.8302 11.7708ZM65.7712 19.3138C66.3931 18.701 66.704 17.9175 66.704 16.964C66.704 16.0106 66.4066 15.233 65.8118 14.6311C65.2187 14.0293 64.4371 13.7284 63.4663 13.7284C62.531 13.7284 61.7613 14.0344 61.158 14.6447C60.5565 15.2558 60.2557 16.0292 60.2557 16.964C60.2557 17.9175 60.5649 18.701 61.1851 19.3138C61.8069 19.925 62.5674 20.2301 63.4663 20.2301C64.3831 20.2301 65.1511 19.925 65.7712 19.3138Z" fill="white"/>
<path d="M1.5 27.9742V27.3555H3.6731V27.9742H2.93634V30.4457H2.23338V27.9742H1.5Z" fill="white"/>
<path d="M5.75517 29.2049V30.4457H5.04883V27.3555H5.75517V28.5862H6.75216V27.3555H7.45512V30.4457H6.75216V29.2049H5.75517Z" fill="white"/>
<path d="M10.7929 27.3555V27.9742H9.73173V28.5862H10.749V29.2049H9.73173V29.827H10.7929V30.4457H9.02539V27.3555H10.7929Z" fill="white"/>
<path d="M14.4668 27.3555H15.3624C15.7925 27.3555 16.16 27.5025 16.4642 27.795C16.7683 28.0883 16.9204 28.456 16.9204 28.8972C16.9204 29.3435 16.7683 29.7137 16.4642 30.0062C16.1617 30.2995 15.795 30.4457 15.3624 30.4457H14.4668V27.3555ZM15.1731 29.8168H15.2813C15.5381 29.8168 15.7477 29.7306 15.9099 29.5565C16.0738 29.3832 16.1575 29.166 16.16 28.904C16.16 28.6403 16.0772 28.4222 15.9133 28.2481C15.7511 28.0722 15.5398 27.9843 15.2813 27.9843H15.1731V29.8168Z" fill="white"/>
<path d="M20.7295 27.3555V29.3469C20.7295 29.7281 20.6264 30.0163 20.4219 30.2124C20.2166 30.4068 19.9167 30.5032 19.5229 30.5032C19.1284 30.5032 18.8284 30.4068 18.624 30.2124C18.4186 30.0163 18.3164 29.7281 18.3164 29.3469V27.3555H19.0227V29.1406C19.0227 29.3908 19.0616 29.5658 19.141 29.6647C19.2196 29.7619 19.3472 29.8101 19.5229 29.8101C19.7004 29.8101 19.8288 29.7619 19.9082 29.6647C19.9868 29.5658 20.0265 29.3908 20.0265 29.1406V27.3555H20.7295Z" fill="white"/>
<path d="M22.2637 27.3555H23.2235C23.5141 27.3555 23.7448 27.418 23.9163 27.5414C24.0895 27.6657 24.1765 27.866 24.1765 28.1432C24.1765 28.4526 24.0464 28.6732 23.7879 28.8059C24.2272 28.8828 24.4469 29.1423 24.4469 29.5836C24.4469 29.843 24.3565 30.0518 24.1765 30.209C23.9983 30.3671 23.7516 30.4457 23.4364 30.4457H22.2637V27.3555ZM22.97 28.5659H23.0241C23.1812 28.5659 23.2987 28.5388 23.3756 28.4847C23.4541 28.4289 23.4939 28.3385 23.4939 28.2142C23.4939 28.0046 23.3367 27.8998 23.0241 27.8998H22.97V28.5659ZM22.97 29.9014H23.1897C23.5344 29.9014 23.7068 29.7864 23.7068 29.5565C23.7068 29.4196 23.6637 29.3215 23.5783 29.2624C23.4922 29.2015 23.3629 29.1711 23.1897 29.1711H22.97V29.9014Z" fill="white"/>
<path d="M27.4521 27.3555L28.6992 30.4457H27.9421L27.7123 29.827H26.5362L26.3098 30.4457H25.5527L26.7998 27.3555H27.4521ZM27.4724 29.2083L27.1276 28.3089H27.1209L26.7762 29.2083H27.4724Z" fill="white"/>
<path d="M30.6458 27.3555V30.4457H29.9395V27.3555H30.6458Z" fill="white"/>
<path d="M34.3633 27.3555H35.2589C35.6889 27.3555 36.0565 27.5025 36.3606 27.795C36.6648 28.0883 36.8169 28.456 36.8169 28.8972C36.8169 29.3435 36.6648 29.7137 36.3606 30.0062C36.0582 30.2995 35.6915 30.4457 35.2589 30.4457H34.3633V27.3555ZM35.0696 29.8168H35.1778C35.4346 29.8168 35.6442 29.7306 35.8064 29.5565C35.9703 29.3832 36.0539 29.166 36.0565 28.904C36.0565 28.6403 35.9737 28.4222 35.8098 28.2481C35.6475 28.0722 35.4363 27.9843 35.1778 27.9843H35.0696V29.8168Z" fill="white"/>
<path d="M38.25 27.3555H39.3551C39.6525 27.3555 39.8942 27.4358 40.0818 27.5955C40.2685 27.7536 40.3623 27.9793 40.3623 28.2717C40.3623 28.4999 40.3057 28.6901 40.1933 28.8431C40.0801 28.9969 39.9263 29.1051 39.7303 29.1677L40.7949 30.4457H39.8993L38.9563 29.2252V30.4457H38.25V27.3555ZM38.9563 28.7248H39.0375C39.1025 28.7248 39.1574 28.7239 39.2031 28.7214C39.2478 28.7197 39.2985 28.7113 39.3551 28.6977C39.4134 28.6825 39.4599 28.6605 39.4937 28.6335C39.5292 28.6064 39.5596 28.5676 39.585 28.5152C39.6095 28.4611 39.6221 28.3968 39.6221 28.3224C39.6221 28.2481 39.6095 28.1855 39.585 28.1331C39.5596 28.079 39.5292 28.0384 39.4937 28.0114C39.4599 27.9843 39.4134 27.9632 39.3551 27.9471C39.2985 27.9319 39.2478 27.9226 39.2031 27.9201C39.1574 27.9184 39.1025 27.9167 39.0375 27.9167H38.9563V28.7248Z" fill="white"/>
<path d="M43.8222 27.3555V27.9742H42.761V28.5862H43.7783V29.2049H42.761V29.827H43.8222V30.4457H42.0547V27.3555H43.8222Z" fill="white"/>
<path d="M46.9208 27.3555L48.1679 30.4457H47.4109L47.1811 29.827H46.005L45.7785 30.4457H45.0215L46.2686 27.3555H46.9208ZM46.9411 29.2083L46.5964 28.3089H46.5896L46.2449 29.2083H46.9411Z" fill="white"/>
<path d="M51.9633 30.4457L51.818 28.6132H51.7977L51.1657 30.4254H50.7466L50.1147 28.6132H50.0944L49.9491 30.4457H49.2461L49.5232 27.3555H50.2701L50.9562 29.1373L51.6423 27.3555H52.3891L52.6663 30.4457H51.9633Z" fill="white"/>
</svg>
