<svg width="100" height="100" viewBox="0 0 100 100" fill="none" xmlns="http://www.w3.org/2000/svg">
<rect width="100" height="100" rx="20" fill="#020402"/>
<g clip-path="url(#clip0_1177_1365)">
<path d="M44.6446 43.1308H39.7996V42.7716C41.3102 42.6605 41.3652 42.622 41.3652 40.6423V26.0316C41.3652 24.8087 40.9167 24.6761 39.6134 24.6761V24.317C41.069 24.317 41.9238 23.8851 42.9309 23L43.079 23.0941V40.6423C43.079 42.6177 43.3202 42.6391 44.6446 42.7716V43.1308Z" fill="white"/>
<path d="M49.3583 46.5168H44.6783V46.1576C46.0027 46.0464 46.0577 46.008 46.0577 44.0282V35.7074C46.0577 34.4845 45.6092 34.3519 44.3059 34.3519V33.9928C45.7615 33.9928 46.6163 33.5609 47.6234 32.6758L47.7715 32.7699V34.446C48.8336 33.5053 49.7645 32.7699 50.8096 32.7699C52.7307 32.7699 54.089 34.6512 54.089 37.593C54.089 41.0009 52.0579 43.3184 49.8406 43.3184C48.8716 43.3184 48.275 42.8652 47.7715 42.6044V44.0368C47.7715 46.0122 47.8476 46.0336 49.354 46.1662V46.5253L49.3583 46.5168ZM52.1891 38.4739C52.1891 35.2541 51.3894 33.7661 50.0438 33.7661C48.5331 33.7661 47.7715 35.4808 47.7715 36.9688V40.6588C47.9957 41.9587 48.9267 42.8438 49.9887 42.8438C51.3682 42.8438 52.1891 41.3729 52.1891 38.4739Z" fill="white"/>
<path d="M58.4329 43.1319H53.753V42.7727C55.2636 42.6615 55.3186 42.6231 55.3186 40.6433V30.9457C55.3186 29.7228 54.8701 29.5902 53.5668 29.5902V29.231C55.0224 29.231 55.8771 28.7992 56.8842 27.9141L57.0323 28.0081V34.4134C58.6149 33.2461 59.2496 32.7757 60.2948 32.7757C61.8223 32.7757 62.474 33.8105 62.474 35.957V40.6476C62.474 42.6231 62.5501 42.6444 64.0565 42.777V43.1362H59.3766V42.777C60.701 42.6658 60.756 42.6273 60.756 40.6476V36.8421C60.756 34.392 59.897 33.8276 59.0973 33.8276C58.1283 33.8276 57.0281 34.8453 57.0281 36.5941V40.6433C57.0281 42.6188 57.1043 42.6402 58.4245 42.7727V43.1319H58.4329Z" fill="white"/>
<path d="M68.8893 43.1316V42.0412C68.0684 42.6826 67.0994 43.324 66.0585 43.324C64.624 43.324 64.0824 42.1738 64.0824 41.216C64.0824 40.0658 64.8102 39.5013 66.8201 38.8257L68.8893 38.1288V36.0935C68.8893 34.1522 68.4619 33.3056 67.4337 33.3056C65.5719 33.3056 66.9852 35.8839 65.3095 35.8839C64.6029 35.8839 64.3574 35.4521 64.3574 35.0544C64.3574 33.9427 66.3716 32.7754 68.1234 32.7754C69.8753 32.7754 70.6031 33.7717 70.6031 35.5804V40.6473C70.6031 42.6227 70.6792 42.6441 71.9994 42.7767V43.1358H68.8851L68.8893 43.1316ZM68.8893 40.6473V38.783L67.4929 39.2362C66.2066 39.6681 65.8342 40.2539 65.8342 41.0064C65.8342 41.6649 66.1685 42.3234 66.9513 42.3234C67.641 42.3234 68.7412 41.8702 68.8893 40.6473Z" fill="white"/>
<path d="M32.8041 59.9694H29V59.6102C30.3244 59.499 30.5656 59.1954 30.5656 57.8571V48.835C30.5656 47.176 29.969 46.5004 29 46.3849V46.0258H31.7377L38.4277 56.3648V48.51C38.4277 47.0049 38.0553 46.4747 36.862 46.3807V46.0215H40.6661V46.3807C39.4728 46.4918 39.0835 47.022 39.0835 48.51V59.9608H38.4319V59.9223L31.2173 48.8051V57.8657C31.2173 59.204 31.4796 59.4862 32.7998 59.6188V59.9779L32.8041 59.9694Z" fill="white"/>
<path d="M40.7811 55.1295C40.7811 52.0039 42.3087 49.6094 44.8264 49.6094C46.3159 49.6094 48.0338 50.4945 48.0338 53.4876L42.6091 54.052C42.626 56.7073 43.6331 59.0804 45.423 59.0804C46.3159 59.0804 47.2849 58.4946 48.0677 57.6694L48.292 57.9687C47.4922 58.9479 46.2989 60.1537 44.6021 60.1537C42.571 60.1537 40.7811 58.4604 40.7811 55.1253V55.1295ZM42.643 53.1712H46.2566C46.1466 50.4603 45.1395 50.1567 44.581 50.1567C43.4427 50.1567 42.7911 51.401 42.643 53.1712Z" fill="white"/>
<path d="M57.5711 59.9685C56.9745 59.9301 56.3017 59.8916 55.6331 59.8916C54.9645 59.8916 54.2536 59.9301 53.547 59.9685V59.5923C54.1267 59.5367 54.406 59.4212 54.406 59.1005C54.406 58.8739 54.2579 58.5361 53.9786 58.0444L52.5991 55.6328L51.6682 57.2918C51.1266 58.271 50.8092 58.8183 50.8092 59.139C50.8092 59.4597 51.0885 59.5538 51.6682 59.6094V59.9685C51.1097 59.9301 50.53 59.8916 49.9926 59.8916C49.4552 59.8916 48.9305 59.9301 48.4438 59.9685V59.6094C49.4509 59.4768 49.9164 59.2716 50.568 58.1385L52.3368 55.1454L50.3607 51.6819C49.7641 50.6258 49.3917 50.459 48.6639 50.3435V49.9844C49.2774 50.0229 49.9502 50.0613 50.64 50.0613C51.3297 50.0613 52.0363 50.0229 52.7472 49.9844V50.3435C52.2056 50.3991 51.9644 50.4932 51.9644 50.7754C51.9644 51.0191 52.1337 51.3783 52.451 51.9427L53.475 53.7899L54.1098 52.6611C54.6302 51.7204 54.8926 51.1731 54.8926 50.8524C54.8926 50.5146 54.6133 50.3991 54.1098 50.3435V49.9844C54.6683 50.0229 55.248 50.0613 55.7854 50.0613C56.3228 50.0613 56.8475 50.0229 57.313 49.9844V50.3435C56.1197 50.4761 55.8573 50.6813 55.2057 51.8144L53.7501 54.2987L55.9504 58.2539C56.5471 59.3272 56.8433 59.4768 57.5711 59.5923V59.9685Z" fill="white"/>
<path d="M62.656 59.0507C62.1524 59.6536 61.4077 60.1624 60.4175 60.1624C59.2454 60.1624 58.3864 59.4269 58.3864 58.11V50.5759L57.2482 50.3877V49.9944C58.6445 49.9944 59.5966 49.1093 59.7447 47.7324H60.1002V49.7293L62.3725 49.9944V50.3877L60.1002 50.6144V57.8449C60.1002 58.9181 60.4556 59.3329 61.1242 59.3329C61.6827 59.3329 62.1101 59.0507 62.4486 58.7129L62.6517 59.0507H62.656Z" fill="white"/>
<path d="M36.8329 76.8113H31.4802V76.4521C33.2151 76.3025 33.2489 76.3196 33.2489 74.699V63.3038H32.4661C30.9766 63.3038 30.3038 63.8297 29.4279 66.3183L29.0175 66.2242L29.5591 62.252L29.9695 62.3075C30.1176 62.7394 30.3419 62.872 30.8624 62.872H37.4423C37.9627 62.872 38.187 62.7394 38.3351 62.3075L38.7456 62.252L39.2872 66.2242L38.8767 66.3183C38.0008 63.834 37.328 63.3038 35.8386 63.3038H35.0557V74.699C35.0557 76.3196 35.0938 76.2982 36.8245 76.4521V76.8113H36.8329Z" fill="white"/>
<path d="M39.5155 71.9713C39.5155 68.8457 41.0431 66.4512 43.5608 66.4512C45.0502 66.4512 46.7682 67.3363 46.7682 70.3294L41.3435 70.8938C41.3604 73.5491 42.3675 75.9222 44.1574 75.9222C45.0502 75.9222 46.0192 75.3364 46.8021 74.5112L47.0263 74.8105C46.2266 75.7897 45.0333 76.9955 43.3365 76.9955C41.3054 76.9955 39.5155 75.3022 39.5155 71.967V71.9713ZM41.3773 70.013H44.991C44.881 67.3021 43.8739 66.9985 43.3153 66.9985C42.1771 66.9985 41.5254 68.2428 41.3773 70.013Z" fill="white"/>
<path d="M49.5065 70.825C49.5065 73.4974 50.5135 75.9304 52.3204 75.9304C53.1794 75.9304 54.1822 75.3446 54.965 74.5194L55.1893 74.8187C54.3895 75.7979 53.2682 77.0037 51.5164 77.0037C49.4091 77.0037 47.6785 75.2719 47.6785 71.9752C47.6785 68.8496 49.1341 66.4551 52.2654 66.4551C54.0172 66.4551 54.8169 67.1692 54.8169 67.8661C54.8169 68.3749 54.4615 68.9223 53.831 68.9223C52.6208 68.9223 52.9932 67.0024 51.5587 67.0024C50.2343 67.0024 49.5065 68.6229 49.5065 70.825Z" fill="white"/>
<path d="M59.6615 76.8116H54.9815V76.4524C56.4921 76.3412 56.5471 76.3028 56.5471 74.323V64.6253C56.5471 63.4024 56.0986 63.2699 54.7953 63.2699V62.9107C56.2509 62.9107 57.1057 62.4789 58.1127 61.5938L58.2608 61.6878V68.0931C59.8434 66.9258 60.4781 66.4554 61.5233 66.4554C63.0508 66.4554 63.7025 67.4902 63.7025 69.6367V74.3273C63.7025 76.3028 63.7787 76.3241 65.2851 76.4567V76.8159H60.6051V76.4567C61.9295 76.3455 61.9845 76.307 61.9845 74.3273V70.5218C61.9845 68.0717 61.1255 67.5073 60.3258 67.5073C59.3568 67.5073 58.2566 68.5249 58.2566 70.2738V74.323C58.2566 76.2985 58.3328 76.3199 59.653 76.4524V76.8116H59.6615Z" fill="white"/>
<path d="M32.693 43.1301H29.0413V42.7709C30.1795 42.6768 30.59 42.245 31.0935 40.6415L34.8003 28.8145H35.2869L38.9217 41.0178C39.4083 42.617 39.4083 42.6384 40.5804 42.7709V43.1301H35.9004V42.7709C37.2968 42.6597 37.4661 42.5657 37.0175 41.0178L36.4209 38.944H32.2487L31.7452 40.6372C31.2797 42.1808 31.4109 42.6512 32.6972 42.7666V43.1258L32.693 43.1301ZM36.2728 38.4779L34.3729 31.9059L32.3968 38.4779H36.2728Z" fill="white"/>
<path d="M68.5481 74.5918H66.3308V76.8324H68.5481V74.5918Z" fill="white"/>
</g>
<defs>
<clipPath id="clip0_1177_1365">
<rect width="43" height="54" fill="white" transform="translate(29 23)"/>
</clipPath>
</defs>
</svg>
