<svg width="16" height="17" viewBox="0 0 16 17" fill="none" xmlns="http://www.w3.org/2000/svg">
<path d="M7.5 5.16699C7.5 5.99542 6.8284 6.66699 6 6.66699C5.17157 6.66699 4.5 5.99542 4.5 5.16699C4.5 4.33857 5.17157 3.66699 6 3.66699C6.8284 3.66699 7.5 4.33857 7.5 5.16699Z" stroke="white" stroke-opacity="0.7" stroke-width="0.8" stroke-linecap="round" stroke-linejoin="round"/>
<path d="M9.83398 6.66699C10.6624 6.66699 11.5007 5.99542 11.5007 5.16699C11.5007 4.33857 10.6624 3.66699 9.83398 3.66699" stroke="white" stroke-opacity="0.7" stroke-width="0.8" stroke-linecap="round" stroke-linejoin="round"/>
<path d="M5.99935 7C3.73268 7 3.16602 8.16667 3.16602 10H4.49935V12C4.49935 12.7364 5.0963 13.3333 5.83268 13.3333H6.16602C6.90242 13.3333 7.49935 12.7364 7.49935 12V10H8.83268C8.83268 8.16667 8.26602 7 5.99935 7Z" stroke="white" stroke-opacity="0.7" stroke-width="0.8" stroke-linecap="round" stroke-linejoin="round"/>
<path d="M9.83398 6.66699C12.1007 6.66699 12.834 8.16699 12.834 10.0003H11.5007V12.0003C11.5007 12.7367 10.9037 13.3337 10.1673 13.3337H9.83398" stroke="white" stroke-opacity="0.7" stroke-width="0.8" stroke-linecap="round" stroke-linejoin="round"/>
</svg>
