<svg width="16" height="17" viewBox="0 0 16 17" fill="none" xmlns="http://www.w3.org/2000/svg">
<path d="M7.99992 15.1668C11.6818 15.1668 14.6666 12.1821 14.6666 8.50016C14.6666 4.81826 11.6818 1.8335 7.99992 1.8335C4.31802 1.8335 1.33325 4.81826 1.33325 8.50016C1.33325 12.1821 4.31802 15.1668 7.99992 15.1668Z" stroke="white" stroke-opacity="0.7" stroke-linecap="round" stroke-linejoin="round"/>
<path d="M5.33324 2.5H5.9999C4.6999 6.39333 4.6999 10.6067 5.9999 14.5H5.33324" stroke="white" stroke-opacity="0.7" stroke-linecap="round" stroke-linejoin="round"/>
<path d="M10 2.5C11.3 6.39333 11.3 10.6067 10 14.5" stroke="white" stroke-opacity="0.7" stroke-linecap="round" stroke-linejoin="round"/>
<path d="M2 11.1667V10.5C5.89333 11.8 10.1067 11.8 14 10.5V11.1667" stroke="white" stroke-opacity="0.7" stroke-linecap="round" stroke-linejoin="round"/>
<path d="M2 6.4999C5.89333 5.1999 10.1067 5.1999 14 6.4999" stroke="white" stroke-opacity="0.7" stroke-linecap="round" stroke-linejoin="round"/>
</svg>
