<svg width="16" height="17" viewBox="0 0 16 17" fill="none" xmlns="http://www.w3.org/2000/svg">
<path d="M6.66667 8.25132L3.38334 12.1147C3.2793 12.2372 3.15094 12.3369 3.0064 12.4073C2.86185 12.4778 2.70426 12.5174 2.5436 12.5238C2.38294 12.5302 2.22269 12.5032 2.07301 12.4445C1.92333 12.3857 1.78746 12.2966 1.67401 12.1827C1.5601 12.0688 1.47102 11.9325 1.41236 11.7825C1.35371 11.6325 1.32676 11.4719 1.33321 11.311C1.33966 11.15 1.37937 10.9921 1.44984 10.8473C1.52032 10.7024 1.62002 10.5737 1.74267 10.4693L5.59667 7.17932M12 7.21132L8.69867 10.52M6.63467 1.83398L3.33334 5.14332M13.3333 8.27265L14.6667 7.17932M13.3333 10.4593L14.6667 11.188M7.33467 15.166H14M8.15134 15.166C8.51867 14.5073 8.79334 13.2473 10.0947 13.1773C10.4813 13.156 10.8747 13.156 11.2613 13.1773C12.562 13.2473 12.838 14.5073 13.206 15.166M6.22201 2.24798L3.74667 4.72932C3.74667 4.72932 4.98467 6.38399 6.22267 7.62465C7.46134 8.86532 9.11201 10.1067 9.11201 10.1067L11.588 7.62465C11.588 7.62465 10.35 5.97065 9.11201 4.72932C7.87401 3.48932 6.22201 2.24798 6.22201 2.24798Z" stroke="white" stroke-opacity="0.7" stroke-linecap="round" stroke-linejoin="round"/>
</svg>
