<svg width="12" height="12" viewBox="0 0 12 12" fill="none" xmlns="http://www.w3.org/2000/svg">
<path d="M2.0516 0.221879C1.96368 0.216367 1.87562 0.230284 1.79368 0.262642C1.71174 0.295001 1.63793 0.345005 1.5775 0.409105C1.51707 0.473204 1.47149 0.549826 1.44401 0.633526C1.41652 0.717226 1.40781 0.805951 1.41848 0.893399L2.32532 10.6238C2.38328 11.0964 2.94176 11.3166 3.30644 11.0106L5.22008 9.45876L6.07808 10.945C6.57152 11.7996 7.3544 12.0096 8.20904 11.5162C9.06368 11.0227 9.27344 10.2396 8.78 9.38496L7.925 7.90416L10.1925 7.03488C10.6399 6.87204 10.7286 6.27816 10.3485 5.99172L2.37488 0.341159C2.28107 0.270623 2.16875 0.229151 2.0516 0.221879Z" fill="#FF4733"/>
</svg>
