<svg width="32" height="20" viewBox="0 0 32 20" fill="none" xmlns="http://www.w3.org/2000/svg">
<path d="M9.01841 7.38149C9.01841 7.77528 9.06098 8.09457 9.13548 8.32871C9.22062 8.56286 9.32705 8.81829 9.47604 9.095C9.52926 9.18015 9.55054 9.26529 9.55054 9.33979C9.55054 9.44622 9.48669 9.55265 9.34833 9.65908L8.67784 10.1061C8.58206 10.1699 8.48627 10.2019 8.40113 10.2019C8.2947 10.2019 8.18828 10.1487 8.08185 10.0529C7.93285 9.89322 7.80514 9.72294 7.69871 9.55265C7.59229 9.37172 7.48586 9.1695 7.36879 8.92472C6.53866 9.90387 5.49567 10.3934 4.23983 10.3934C3.34584 10.3934 2.63278 10.138 2.11129 9.62715C1.5898 9.11629 1.32373 8.43514 1.32373 7.5837C1.32373 6.67905 1.64301 5.94469 2.29222 5.39126C2.94142 4.83782 3.80348 4.56111 4.89968 4.56111C5.26153 4.56111 5.63403 4.59304 6.02781 4.64625C6.42159 4.69946 6.82601 4.78461 7.25172 4.88039V4.10346C7.25172 3.29459 7.08144 2.73052 6.75151 2.40059C6.41094 2.07066 5.83624 1.91101 5.01675 1.91101C4.64425 1.91101 4.26112 1.95358 3.86734 2.04937C3.47356 2.14516 3.09042 2.26223 2.71793 2.41123C2.54764 2.48573 2.41993 2.5283 2.34543 2.54959C2.27093 2.57087 2.21772 2.58152 2.17515 2.58152C2.02615 2.58152 1.95165 2.47509 1.95165 2.25159V1.73008C1.95165 1.55979 1.97294 1.43208 2.02615 1.35758C2.07936 1.28308 2.17515 1.20858 2.32414 1.13408C2.69664 0.942502 3.14363 0.782858 3.66513 0.655143C4.18662 0.516784 4.74004 0.452927 5.32539 0.452927C6.59187 0.452927 7.51779 0.740286 8.11378 1.31501C8.69913 1.88972 8.99712 2.76245 8.99712 3.93317V7.38149H9.01841ZM4.69747 8.99922C5.04868 8.99922 5.41053 8.93536 5.79367 8.80764C6.17681 8.67993 6.51737 8.44578 6.80472 8.12649C6.97501 7.92428 7.10272 7.70078 7.16658 7.44535C7.23043 7.18992 7.273 6.88127 7.273 6.51941V6.0724C6.96437 5.9979 6.63444 5.93405 6.29387 5.89148C5.95331 5.8489 5.62338 5.82762 5.29346 5.82762C4.5804 5.82762 4.05891 5.96598 3.7077 6.25334C3.35649 6.5407 3.1862 6.94513 3.1862 7.47728C3.1862 7.97749 3.31392 8.35 3.57998 8.60543C3.83541 8.8715 4.2079 8.99922 4.69747 8.99922ZM13.2436 10.1487C13.052 10.1487 12.9243 10.1167 12.8391 10.0422C12.754 9.97837 12.6795 9.82937 12.6156 9.62715L10.1146 1.40015C10.0508 1.18729 10.0188 1.04893 10.0188 0.974431C10.0188 0.804144 10.104 0.708357 10.2742 0.708357H11.3172C11.5194 0.708357 11.6578 0.740286 11.7323 0.814787C11.8174 0.878645 11.8813 1.02765 11.9452 1.22986L13.7331 8.2755L15.3934 1.22986C15.4466 1.017 15.5105 0.878645 15.5956 0.814787C15.6807 0.750929 15.8297 0.708357 16.0213 0.708357H16.8727C17.0749 0.708357 17.2133 0.740286 17.2984 0.814787C17.3836 0.878645 17.4581 1.02765 17.5006 1.22986L19.1822 8.36064L21.0234 1.22986C21.0872 1.017 21.1617 0.878645 21.2362 0.814787C21.3214 0.750929 21.4597 0.708357 21.6513 0.708357H22.6411C22.8114 0.708357 22.9071 0.793501 22.9071 0.974431C22.9071 1.02765 22.8965 1.08086 22.8859 1.14472C22.8752 1.20858 22.8539 1.29372 22.8114 1.41079L20.2465 9.63779C20.1826 9.85065 20.1081 9.98901 20.023 10.0529C19.9378 10.1167 19.7995 10.1593 19.6185 10.1593H18.7033C18.5011 10.1593 18.3627 10.1274 18.2776 10.0529C18.1924 9.97837 18.1179 9.84001 18.0754 9.62715L16.4257 2.76245L14.7868 9.61651C14.7335 9.82937 14.6697 9.96773 14.5845 10.0422C14.4994 10.1167 14.3504 10.1487 14.1588 10.1487H13.2436ZM26.9194 10.436C26.366 10.436 25.8126 10.3722 25.2805 10.2444C24.7483 10.1167 24.3333 9.97837 24.0566 9.81872C23.8863 9.72294 23.7692 9.61651 23.7266 9.52072C23.6841 9.42494 23.6628 9.31851 23.6628 9.22272V8.67993C23.6628 8.45643 23.7479 8.35 23.9076 8.35C23.9714 8.35 24.0353 8.36064 24.0991 8.38193C24.163 8.40321 24.2588 8.44578 24.3652 8.48836C24.727 8.648 25.1208 8.77571 25.5359 8.86086C25.9616 8.946 26.3767 8.98857 26.8024 8.98857C27.4729 8.98857 27.9944 8.8715 28.3562 8.63736C28.7181 8.40321 28.9096 8.06264 28.9096 7.62628C28.9096 7.32827 28.8138 7.08349 28.6223 6.88127C28.4307 6.67905 28.0689 6.49812 27.5474 6.32784L26.0042 5.8489C25.2273 5.60412 24.6525 5.24225 24.3013 4.76332C23.9501 4.29503 23.7692 3.77353 23.7692 3.22009C23.7692 2.77309 23.865 2.3793 24.0566 2.03873C24.2481 1.69815 24.5035 1.40015 24.8228 1.166C25.1421 0.921216 25.504 0.740286 25.9297 0.612571C26.3554 0.484855 26.8024 0.431641 27.2706 0.431641C27.5048 0.431641 27.7496 0.442284 27.9837 0.474212C28.2285 0.506141 28.452 0.548713 28.6755 0.591285C28.8883 0.6445 29.0906 0.697714 29.2821 0.761572C29.4737 0.82543 29.6227 0.889288 29.7291 0.953145C29.8781 1.03829 29.9845 1.12343 30.0484 1.21922C30.1123 1.30436 30.1442 1.42144 30.1442 1.57044V2.07066C30.1442 2.29416 30.059 2.41123 29.8994 2.41123C29.8143 2.41123 29.6759 2.36866 29.495 2.28351C28.8883 2.0068 28.2072 1.86844 27.4516 1.86844C26.8449 1.86844 26.366 1.96423 26.0361 2.16644C25.7062 2.36866 25.5359 2.6773 25.5359 3.11366C25.5359 3.41167 25.6423 3.6671 25.8552 3.86931C26.068 4.07153 26.4618 4.27375 27.0259 4.45468L28.5371 4.93361C29.3034 5.1784 29.8568 5.51897 30.1868 5.95533C30.5167 6.39169 30.6763 6.89191 30.6763 7.44535C30.6763 7.90299 30.5805 8.31807 30.3996 8.67993C30.208 9.04179 29.9526 9.36108 29.6227 9.61651C29.2928 9.88258 28.899 10.0742 28.4413 10.2125C27.9624 10.3615 27.4622 10.436 26.9194 10.436Z" fill="white"/>
<path fill-rule="evenodd" clip-rule="evenodd" d="M28.9303 15.6077C25.4288 18.194 20.3416 19.5669 15.9675 19.5669C9.83726 19.5669 4.3137 17.3 0.141763 13.5324C-0.188161 13.2344 0.109834 12.8299 0.503614 13.0641C5.01612 15.6822 10.5822 17.268 16.3399 17.268C20.2245 17.268 24.4923 16.4592 28.4194 14.7989C29.0048 14.5328 29.505 15.182 28.9303 15.6077Z" fill="#FF9900"/>
<path fill-rule="evenodd" clip-rule="evenodd" d="M30.3891 13.948C29.9421 13.3732 27.4305 13.6712 26.2917 13.8096C25.9511 13.8522 25.8979 13.5542 26.2066 13.3307C28.2074 11.9258 31.4959 12.3302 31.8791 12.7985C32.2622 13.2774 31.7727 16.5661 29.8996 18.1413C29.6122 18.3861 29.3355 18.2583 29.4632 17.9391C29.8889 16.8854 30.8361 14.512 30.3891 13.948Z" fill="#FF9900"/>
</svg>
