<svg width="33" height="24" viewBox="0 0 33 24" fill="none" xmlns="http://www.w3.org/2000/svg">
<g clip-path="url(#clip0_542_3032)">
<path d="M2.68767 24.0004H7.79223V11.6576L0.5 6.17188V21.8147C0.5 23.0147 1.4866 24.0004 2.68767 24.0004Z" fill="#4285F4"/>
<path d="M25.2507 24.0004H30.3553C31.5564 24.0004 32.543 23.0147 32.543 21.8147V6.17188L25.2507 11.6147" fill="#34A853"/>
<path d="M25.2507 2.18575V11.6572L32.543 6.21432V3.25718C32.543 0.557177 29.4545 -0.98568 27.3097 0.642892" fill="#FBBC04"/>
<path d="M7.79224 11.657V2.18555L16.5429 8.74269L25.2507 2.18555V11.657L16.5 18.1713" fill="#EA4335"/>
<path d="M0.5 3.25761V6.1719L7.79223 11.6148V2.18618L5.73324 0.643328C3.58847 -0.942387 0.5 0.600471 0.5 3.25761Z" fill="#C5221F"/>
</g>
<defs>
<clipPath id="clip0_542_3032">
<rect width="32" height="24" fill="white" transform="translate(0.5)"/>
</clipPath>
</defs>
</svg>
