<svg width="32" height="32" viewBox="0 0 32 32" fill="none" xmlns="http://www.w3.org/2000/svg">
<g clip-path="url(#clip0_542_3020)">
<path d="M5.94543 5.61034C6.9401 6.41834 7.31343 6.357 9.18277 6.23167L26.8028 5.17434C27.1761 5.17434 26.8654 4.801 26.7414 4.73967L23.8134 2.62367C23.2534 2.189 22.5054 1.69034 21.0734 1.81434L4.01343 3.05967C3.3921 3.121 3.26677 3.433 3.51477 3.681L5.94543 5.61034ZM7.00277 9.717V28.2557C7.00277 29.2517 7.5001 29.625 8.62143 29.5623L27.9854 28.4423C29.1068 28.381 29.2321 27.6957 29.2321 26.8863V8.47167C29.2321 7.66367 28.9214 7.22767 28.2348 7.289L7.99877 8.47167C7.2521 8.53434 7.00277 8.909 7.00277 9.717ZM26.1188 10.7103C26.2428 11.2703 26.1188 11.8303 25.5588 11.8943L24.6254 12.081V25.7663C23.8148 26.2023 23.0681 26.4517 22.4454 26.4517C21.4481 26.4517 21.1988 26.1397 20.4521 25.2077L14.3494 15.6263V24.8957L16.2801 25.333C16.2801 25.333 16.2801 26.453 14.7228 26.453L10.4268 26.701C10.3028 26.453 10.4268 25.8303 10.8628 25.7063L11.9828 25.3957V13.1383L10.4294 13.013C10.3041 12.453 10.6161 11.645 11.4868 11.5823L16.0948 11.2717L22.4468 20.977V12.3903L20.8268 12.205C20.7028 11.5197 21.2001 11.0223 21.8228 10.961L26.1188 10.7103ZM2.58143 1.37967L20.3281 0.0730026C22.5068 -0.113664 23.0681 0.0103359 24.4374 1.00634L30.1028 4.98767C31.0361 5.67167 31.3481 5.85834 31.3481 6.605V28.4423C31.3481 29.8103 30.8508 30.621 29.1081 30.7437L8.49743 31.989C7.19077 32.0517 6.56677 31.865 5.88143 30.993L1.70943 25.5797C0.962766 24.5837 0.6521 23.8383 0.6521 22.9663V3.55567C0.6521 2.437 1.15077 1.50234 2.58143 1.37967Z" fill="white"/>
</g>
<defs>
<clipPath id="clip0_542_3020">
<rect width="32" height="32" fill="white"/>
</clipPath>
</defs>
</svg>
