<svg width="32" height="32" viewBox="0 0 32 32" fill="none" xmlns="http://www.w3.org/2000/svg">
<g clip-path="url(#clip0_542_2955)">
<path d="M31.4134 19.6304C31.3951 19.5745 31.3699 19.5212 31.3383 19.4716C31.153 19.1207 30.7026 19.0159 29.9951 19.1621C27.7907 19.6169 26.9371 19.3371 26.6276 19.1367C28.417 16.4057 29.8876 13.1073 30.6824 10.0304C31.0443 8.62947 31.7467 5.33214 30.8454 3.7216C30.7878 3.61137 30.7205 3.5065 30.6442 3.40827C28.925 1.21147 26.4018 0.0330685 23.3474 0.000668538C21.3544 -0.0203981 19.6534 0.462135 19.1926 0.639869C18.9643 0.59727 18.735 0.56099 18.5047 0.531069C17.9275 0.426549 17.3427 0.369557 16.7562 0.360669C15.1799 0.336135 13.8178 0.712935 12.6898 1.48147C11.5467 1.05334 6.30471 -0.711865 3.06058 1.58654C1.24871 2.87014 0.412311 5.1644 0.574444 8.40574C0.628978 9.4964 1.25031 12.8511 2.23084 16.0639C2.84391 18.0725 3.48244 19.6664 4.14204 20.8399C4.87938 22.1655 5.64324 22.9643 6.42778 23.2259C7.02431 23.4247 7.93804 23.418 8.90524 22.2553C9.97351 20.9707 11.0256 19.8209 11.498 19.3128C12.0782 19.6268 12.7066 19.7961 13.3514 19.8157C13.3515 19.8176 13.3517 19.8194 13.3519 19.8212C13.2396 19.955 13.1298 20.0907 13.0223 20.2284C12.5704 20.802 12.4764 20.9213 11.022 21.2208C10.6084 21.3061 9.50951 21.5327 9.49351 22.3028C9.49018 22.466 9.53738 22.6107 9.61604 22.7385C9.91858 23.3027 10.8448 23.5515 10.9694 23.5827C12.7487 24.0273 14.3086 23.7053 15.4646 22.6777C15.4419 25.6524 15.5679 28.5676 15.9251 29.4609C16.22 30.1981 16.9408 32.0003 19.2174 32C19.5514 32 19.9191 31.9612 20.3235 31.8745C22.6994 31.3651 23.7311 30.3151 24.1302 28C24.3306 26.8391 24.6656 24.1663 24.8486 22.5317C24.8711 22.438 24.8962 22.3708 24.9246 22.3501C24.9255 22.3495 25.0175 22.2873 25.4942 22.3911C25.5137 22.3953 25.5334 22.3983 25.5532 22.4001L25.8918 22.4299L25.9116 22.4312C27.0407 22.4824 28.4602 22.2411 29.2866 21.8568C30.145 21.4584 31.6942 20.4804 31.4134 19.6304ZM3.16218 15.8353C2.17084 12.5876 1.59164 9.32187 1.54578 8.40614C1.40098 5.51093 2.10191 3.4956 3.62884 2.41587C6.07778 0.684402 10.0819 1.6948 11.7728 2.24254C11.7686 2.2468 11.764 2.25067 11.7598 2.25507C9.06138 4.9804 9.12538 9.6364 9.13204 9.92107C9.13178 10.0308 9.14084 10.1863 9.15364 10.4001C9.20004 11.1832 9.28644 12.6407 9.05564 14.2913C8.84111 15.8252 9.31391 17.3265 10.3527 18.4103C10.4602 18.5224 10.5724 18.6277 10.6884 18.7268C10.226 19.222 9.22124 20.3169 8.15178 21.6036C7.39484 22.5136 6.87218 22.3392 6.70031 22.2819C6.17778 22.1076 5.61631 21.4991 5.04951 20.5188C4.41004 19.4001 3.76484 17.8099 3.16218 15.8353ZM11.1718 22.6181C10.9436 22.5611 10.7356 22.4672 10.5955 22.3819C10.714 22.3293 10.912 22.2616 11.2399 22.194C12.951 21.8419 13.2152 21.5932 13.7923 20.8604C13.9246 20.6924 14.0744 20.5021 14.282 20.2703C14.3267 20.2202 14.3602 20.1612 14.3803 20.0972C14.608 19.8955 14.7435 19.9507 14.9628 20.0416C15.1708 20.1277 15.3732 20.3883 15.4555 20.6752C15.4943 20.8107 15.538 21.0679 15.3952 21.2677C14.1895 22.9555 12.4331 22.9336 11.1718 22.6181ZM13.9638 17.3008L13.8938 17.4888C13.7164 17.9643 13.5515 18.4063 13.4492 18.8261C12.5594 18.8233 11.6935 18.4432 11.0352 17.7563C10.198 16.8828 9.81778 15.6677 9.99191 14.4224C10.2356 12.6785 10.1456 11.16 10.0972 10.3443C10.0906 10.23 10.0846 10.13 10.081 10.0511C10.4752 9.7016 12.3022 8.7228 13.6048 9.0212C14.1994 9.15747 14.5616 9.56214 14.7122 10.2585C15.4916 13.8636 14.8154 15.3661 14.2719 16.5736C14.1599 16.8224 14.0542 17.0575 13.9638 17.3008ZM23.782 23.3975C23.7595 23.6332 23.7343 23.8988 23.6996 24.192L23.505 24.7764C23.4895 24.8227 23.4813 24.8712 23.4807 24.92C23.4728 25.5529 23.4087 25.7852 23.3274 26.0791C23.2428 26.3847 23.147 26.7312 23.0882 27.4891C22.9415 29.3748 21.9172 30.458 19.8652 30.8977C17.8446 31.3312 17.4862 30.2353 17.1703 29.2688C17.138 29.1675 17.1038 29.0668 17.0678 28.9667C16.7806 28.1856 16.813 27.0841 16.8579 25.5599C16.8799 24.8116 16.8247 23.0248 16.4176 22.0316C16.4235 21.6407 16.4318 21.2437 16.443 20.8425C16.4443 20.7917 16.4374 20.741 16.4226 20.6924C16.4097 20.5987 16.3901 20.506 16.364 20.4151C16.2006 19.844 15.8023 19.3663 15.3244 19.1683C15.1346 19.0896 14.786 18.9453 14.3674 19.0524C14.4567 18.6844 14.6115 18.2691 14.7794 17.8192L14.8499 17.6299C14.9292 17.4165 15.0286 17.1956 15.1339 16.9616C15.7026 15.6981 16.4814 13.9679 15.636 10.0587C15.3195 8.59454 14.2622 7.8796 12.6595 8.0456C11.6986 8.14507 10.8196 8.5328 10.3811 8.75507C10.2932 8.79963 10.2062 8.84591 10.12 8.89387C10.2424 7.41867 10.7048 4.66174 12.4343 2.91747C12.5628 2.78802 12.6978 2.66519 12.8387 2.54947C12.9087 2.53582 12.9747 2.50646 13.0316 2.4636C14.0348 1.7028 15.291 1.32947 16.7676 1.3536C17.3131 1.36254 17.8366 1.3988 18.3332 1.4616C20.9186 1.93414 22.6584 3.39067 23.7144 4.63854C24.8002 5.9216 25.388 7.21387 25.6227 7.91094C23.8584 7.73147 22.6582 8.08 22.0498 8.9496C20.7263 10.8415 22.7738 14.5135 23.7579 16.2781C23.9383 16.6016 24.0942 16.8811 24.1431 16.9999C24.4635 17.7765 24.8784 18.2949 25.1814 18.6735C25.2742 18.7895 25.3643 18.902 25.4327 19.0001C24.8983 19.1541 23.9383 19.5101 24.0258 21.2895C24.0094 21.4979 23.9694 21.8853 23.9146 22.3759C23.8531 22.6528 23.821 22.9896 23.782 23.3975ZM24.9694 21.236C24.9154 20.1272 25.3282 20.0113 25.765 19.8887C25.8254 19.8721 25.8854 19.8541 25.945 19.8345C26.0013 19.8845 26.0611 19.9303 26.1239 19.9719C26.8843 20.4739 28.2336 20.5336 30.133 20.1511C29.8642 20.3869 29.4411 20.6836 28.8619 20.9525C28.3155 21.2063 27.401 21.3965 26.5322 21.4373C25.5726 21.4821 25.0843 21.3297 24.9694 21.236ZM25.7287 8.8744C25.7208 9.34214 25.6564 9.76667 25.5882 10.21C25.5148 10.6868 25.4388 11.1799 25.4196 11.7783C25.4007 12.3607 25.4735 12.9661 25.5439 13.5517C25.686 14.7344 25.8319 15.9521 25.2672 17.1536C25.1735 16.9875 25.09 16.8158 25.0171 16.6395C24.9468 16.4693 24.7946 16.196 24.5836 15.8179C23.7628 14.3457 21.8404 10.8984 22.8246 9.49174C23.3306 8.76814 24.6123 8.73694 25.7287 8.8744ZM26.0332 18.226C25.9956 18.1781 25.9577 18.1303 25.9195 18.0828L25.8722 18.0236C26.8404 16.4243 26.6511 14.842 26.4826 13.4389C26.4134 12.8632 26.348 12.3195 26.3646 11.8088C26.3818 11.2673 26.4534 10.8031 26.5226 10.354C26.6078 9.80067 26.6943 9.22827 26.6704 8.55334C26.6883 8.48254 26.6955 8.39894 26.6862 8.29974C26.6252 7.6524 25.8863 5.71574 24.3803 3.9624C23.5702 3.01934 22.3942 1.96614 20.7951 1.24307C21.4952 1.10094 22.4388 0.971735 23.4943 0.995202C26.2296 1.056 28.3938 2.07987 29.9266 4.0384C29.9591 4.08092 29.9889 4.12555 30.0155 4.172C30.9796 5.97947 29.6472 12.5388 26.0332 18.226ZM14.2778 10.0711C14.2444 10.3103 13.8659 10.6344 13.4496 10.6344C13.4136 10.6344 13.3775 10.6319 13.3418 10.6269C13.092 10.5923 12.8398 10.4349 12.6672 10.2061C12.6062 10.1255 12.5068 9.9688 12.5266 9.82694C12.5339 9.77347 12.5614 9.6956 12.6499 9.62854C12.8075 9.50934 13.119 9.46507 13.4627 9.51294C13.8844 9.57174 14.3195 9.77134 14.2778 10.0711ZM24.8518 9.52254C24.8666 9.62814 24.7864 9.79053 24.6476 9.93614C24.5566 10.0317 24.365 10.1976 24.1038 10.2337C24.0706 10.2383 24.0372 10.2407 24.0038 10.2407C23.6124 10.2407 23.2819 9.92814 23.2562 9.74507C23.2242 9.50974 23.6083 9.33094 24.0043 9.27574C24.4003 9.22054 24.8191 9.28747 24.8518 9.52254Z" fill="#4169E1"/>
</g>
<defs>
<clipPath id="clip0_542_2955">
<rect width="32" height="32" fill="white"/>
</clipPath>
</defs>
</svg>
