<svg width="32" height="32" viewBox="0 0 32 32" fill="none" xmlns="http://www.w3.org/2000/svg">
<g clip-path="url(#clip0_542_2913)">
<path d="M16 0C7.1625 0 0 7.1625 0 16C0 24.8375 7.1625 32 16 32C24.8375 32 32 24.8375 32 16C32 7.1625 24.8375 0 16 0ZM16 29.9438C13.4875 29.9438 11.45 28.2625 11.45 26.1938H20.5562C20.55 28.2625 18.5125 29.9438 16 29.9438ZM23.5187 24.95H8.48125V22.225H23.5187V24.95ZM23.4625 20.825H8.525C8.475 20.7688 8.425 20.7125 8.375 20.65C6.8375 18.7812 6.475 17.8062 6.11875 16.8125C6.1125 16.7812 7.9875 17.1938 9.3125 17.4937C9.3125 17.4937 9.99375 17.65 10.9937 17.8312C10.0375 16.7062 9.4625 15.275 9.4625 13.8188C9.4625 10.6125 11.925 7.80625 11.0375 5.54375C11.9 5.6125 12.825 7.36875 12.8875 10.1062C13.8062 8.8375 14.1875 6.51875 14.1875 5.1C14.1875 3.63125 15.1562 1.91875 16.125 1.8625C15.2625 3.2875 16.35 4.50625 17.3188 7.5375C17.6812 8.675 17.6375 10.5875 17.9125 11.8062C18.0063 9.28125 18.4375 5.60625 20.0375 4.33125C19.3313 5.93125 20.1438 7.93125 20.6938 8.89375C21.5875 10.4438 22.1313 11.625 22.1313 13.85C22.1313 15.3438 21.5812 16.7437 20.65 17.8438C21.7062 17.6437 22.4375 17.4688 22.4375 17.4688L25.8687 16.8C25.8813 16.8 25.3813 18.85 23.4625 20.825Z" fill="#E6522C"/>
</g>
<defs>
<clipPath id="clip0_542_2913">
<rect width="32" height="32" fill="white"/>
</clipPath>
</defs>
</svg>
