<svg width="32" height="32" viewBox="0 0 32 32" fill="none" xmlns="http://www.w3.org/2000/svg">
<path d="M18.9733 16.0033C18.9733 16.7938 18.6594 17.5519 18.1006 18.111C17.5418 18.6701 16.7838 18.9843 15.9933 18.9847C15.2026 18.9847 14.4443 18.6706 13.8852 18.1115C13.3261 17.5523 13.012 16.794 13.012 16.0033C13.012 15.2129 13.3259 14.4548 13.8847 13.8957C14.4436 13.3366 15.2015 13.0224 15.992 13.022C16.7827 13.022 17.541 13.3361 18.1001 13.8952C18.6592 14.4543 18.9733 15.2126 18.9733 16.0033ZM22.504 1.75C20.7093 1.75 18.3613 3.03 15.9867 5.246C13.6133 3.042 11.264 1.77667 9.47067 1.77667C8.924 1.77667 8.42667 1.90067 7.996 2.14733C6.16267 3.20467 5.752 6.49933 6.69867 10.634C2.64 11.8873 0 13.8913 0 16.0033C0 18.1233 2.65333 20.1327 6.724 21.3767C5.78533 25.5273 6.204 28.8273 8.04133 29.8833C8.468 30.1327 8.96133 30.25 9.51067 30.25C11.304 30.25 13.6533 28.97 16.028 26.7513C18.4013 28.9567 20.7507 30.222 22.544 30.222C23.0907 30.222 23.588 30.102 24.0187 29.8553C25.8507 28.7993 26.2627 25.5047 25.316 21.3687C29.36 20.126 32 18.118 32 16.0033C32 13.8833 29.3467 11.874 25.276 10.6273C26.2147 6.48067 25.796 3.178 23.9587 2.12067C23.5347 1.87533 23.0427 1.75133 22.504 1.75ZM22.4973 3.20333V3.21133C22.7973 3.21133 23.0387 3.27 23.2413 3.38067C24.1293 3.89 24.5147 5.82733 24.2147 8.31933C24.1427 8.93267 24.0253 9.57933 23.8813 10.2393C22.6013 9.92467 21.2067 9.68333 19.7387 9.52733C18.8587 8.32067 17.9453 7.22467 17.0253 6.26467C19.148 4.29133 21.1413 3.20867 22.4987 3.20467L22.4973 3.20333ZM9.47067 3.23C10.82 3.23 12.8227 4.30733 14.9507 6.27C14.036 7.23 13.124 8.31933 12.2573 9.526C10.7813 9.682 9.38533 9.92333 8.10667 10.2433C7.95733 9.59 7.84667 8.958 7.768 8.35C7.46133 5.85933 7.84 3.92333 8.72 3.40733C8.97333 3.28733 9.25333 3.23667 9.47067 3.23ZM15.98 7.29667C16.5867 7.92067 17.1933 8.61933 17.7933 9.382C17.2067 9.35533 16.6067 9.33667 16 9.33667C15.3867 9.33667 14.78 9.35 14.1867 9.382C14.7733 8.61933 15.38 7.922 15.98 7.29667ZM16 10.798C16.9867 10.798 17.9693 10.8433 18.936 10.922C19.4773 11.698 20.0053 12.526 20.5133 13.402C21.0093 14.2553 21.46 15.122 21.8707 15.9967C21.46 16.87 21.0093 17.7433 20.52 18.5967C20.0133 19.4767 19.4893 20.314 18.9467 21.09C17.976 21.174 16.992 21.2207 16 21.2207C15.0133 21.2207 14.0307 21.174 13.064 21.0967C12.5227 20.3207 11.9947 19.4913 11.4867 18.6167C10.9907 17.7633 10.54 16.8967 10.1293 16.022C10.5333 15.146 10.9907 14.2713 11.48 13.4167C11.9867 12.5367 12.5107 11.702 13.0533 10.926C14.024 10.8407 15.008 10.7953 16 10.7953V10.798ZM11.1533 11.1367C10.8333 11.6393 10.5133 12.154 10.2147 12.6833C9.91467 13.2033 9.63467 13.726 9.368 14.2487C9.01467 13.374 8.71467 12.502 8.46667 11.6527C9.32 11.4527 10.22 11.274 11.1533 11.1367ZM20.8333 11.1367C21.76 11.274 22.6533 11.4433 23.508 11.6527C23.268 12.4953 22.968 13.362 22.628 14.23C22.3613 13.71 22.0813 13.186 21.7747 12.6647C21.4747 12.142 21.1547 11.6327 20.8347 11.1367H20.8333ZM24.9173 12.0367C25.5627 12.2367 26.176 12.4593 26.7507 12.7007C29.06 13.6873 30.5533 14.978 30.5533 16.002C30.5467 17.026 29.0533 18.322 26.744 19.302C26.184 19.542 25.5707 19.758 24.9373 19.9593C24.564 18.682 24.076 17.3513 23.4707 15.986C24.0707 14.63 24.5507 13.306 24.9173 12.034V12.0367ZM7.05733 12.042C7.428 13.322 7.91733 14.6513 8.524 16.0153C7.924 17.3713 7.44133 18.6953 7.076 19.9673C6.43067 19.7673 5.81733 19.5433 5.24933 19.3007C2.94 18.318 1.44667 17.026 1.44667 16.002C1.44667 14.978 2.94 13.6793 5.24933 12.7007C5.80933 12.4607 6.42267 12.2447 7.05733 12.042ZM22.628 17.7487C22.9813 18.6247 23.2813 19.498 23.5293 20.346C22.676 20.5553 21.7747 20.7327 20.8413 20.866C21.1613 20.366 21.4813 19.85 21.7813 19.322C22.0813 18.802 22.36 18.2713 22.628 17.7487ZM9.368 17.7753C9.63467 18.298 9.91467 18.8193 10.2213 19.342C10.528 19.862 10.8413 20.3713 11.1613 20.866C10.2347 20.73 9.34133 20.5593 8.48667 20.3513C8.72667 19.5113 9.028 18.642 9.36667 17.774L9.368 17.7753ZM23.8933 21.758C24.0427 22.4153 24.16 23.0487 24.232 23.6553C24.5387 26.146 24.16 28.082 23.28 28.5993C23.084 28.7193 22.8293 28.77 22.5293 28.77C21.18 28.77 19.1773 27.694 17.0493 25.73C17.964 24.77 18.876 23.682 19.7427 22.4767C21.2187 22.3193 22.6147 22.078 23.8933 21.758ZM8.12 21.7713C9.4 22.0833 10.7947 22.3247 12.2627 22.4807C13.1427 23.6873 14.056 24.7833 14.976 25.742C12.8493 27.7193 10.8533 28.802 9.496 28.802C9.20267 28.7953 8.95467 28.7353 8.75867 28.626C7.87067 28.1193 7.48533 26.1807 7.78533 23.6887C7.85733 23.0753 7.976 22.43 8.12 21.7713ZM14.2 22.6247C14.7867 22.6513 15.3867 22.67 15.9933 22.67C16.6067 22.67 17.2133 22.6567 17.8067 22.6247C17.22 23.3873 16.6133 24.0847 16.0133 24.7113C15.4067 24.0847 14.8 23.3873 14.2 22.6247Z" fill="#61DAFB"/>
</svg>
