<svg width="33" height="32" viewBox="0 0 33 32" fill="none" xmlns="http://www.w3.org/2000/svg">
<path d="M8.16654 20.0001C8.16654 21.6906 6.78559 23.0716 5.09511 23.0716C3.40463 23.0716 2.02368 21.6906 2.02368 20.0001C2.02368 18.3097 3.40463 16.9287 5.09511 16.9287H8.16654V20.0001Z" fill="#E01E5A"/>
<path d="M9.71411 20.0001C9.71411 18.3097 11.0951 16.9287 12.7855 16.9287C14.476 16.9287 15.857 18.3097 15.857 20.0001V27.6906C15.857 29.3811 14.476 30.762 12.7855 30.762C11.0951 30.762 9.71411 29.3811 9.71411 27.6906V20.0001Z" fill="#E01E5A"/>
<path d="M12.7855 7.66727C11.0951 7.66727 9.71411 6.28632 9.71411 4.59584C9.71411 2.90537 11.0951 1.52441 12.7855 1.52441C14.476 1.52441 15.857 2.90537 15.857 4.59584V7.66727H12.7855Z" fill="#36C5F0"/>
<path d="M12.7856 9.21484C14.4761 9.21484 15.857 10.5958 15.857 12.2863C15.857 13.9767 14.4761 15.3577 12.7856 15.3577H5.09511C3.40463 15.3577 2.02368 13.9767 2.02368 12.2863C2.02368 10.5958 3.40463 9.21484 5.09511 9.21484H12.7856Z" fill="#36C5F0"/>
<path d="M25.1189 12.2863C25.1189 10.5958 26.4998 9.21484 28.1903 9.21484C29.8808 9.21484 31.2618 10.5958 31.2618 12.2863C31.2618 13.9767 29.8808 15.3577 28.1903 15.3577H25.1189V12.2863Z" fill="#2EB67D"/>
<path d="M23.5713 12.2863C23.5713 13.9768 22.1904 15.3577 20.4999 15.3577C18.8094 15.3577 17.4285 13.9768 17.4285 12.2863V4.59584C17.4285 2.90537 18.8094 1.52441 20.4999 1.52441C22.1904 1.52441 23.5713 2.90537 23.5713 4.59584V12.2863Z" fill="#2EB67D"/>
<path d="M20.4999 24.6191C22.1904 24.6191 23.5713 26.0001 23.5713 27.6906C23.5713 29.381 22.1904 30.762 20.4999 30.762C18.8094 30.762 17.4285 29.381 17.4285 27.6906V24.6191H20.4999Z" fill="#ECB22E"/>
<path d="M20.4999 23.0716C18.8094 23.0716 17.4285 21.6906 17.4285 20.0001C17.4285 18.3097 18.8094 16.9287 20.4999 16.9287H28.1904C29.8808 16.9287 31.2618 18.3097 31.2618 20.0001C31.2618 21.6906 29.8808 23.0716 28.1904 23.0716H20.4999Z" fill="#ECB22E"/>
</svg>
