<svg width="33" height="32" viewBox="0 0 33 32" fill="none" xmlns="http://www.w3.org/2000/svg">
<g clip-path="url(#clip0_542_2967)">
<path d="M10.5107 0C10.128 0 9.74667 0 9.364 0.00266667C9.04267 0.00533333 8.72 0.00666667 8.39867 0.016C8.22267 0.02 8.048 0.028 7.872 0.036C7.34411 0.0565309 6.81812 0.111313 6.29733 0.2C5.60326 0.322727 4.93054 0.54502 4.3 0.86C3.03425 1.50387 2.00502 2.53217 1.36 3.79733C1.03333 4.43733 0.826667 5.09333 0.7 5.79733C0.576 6.49067 0.537333 7.19733 0.518667 7.89867C0.510024 8.22038 0.50469 8.54218 0.502667 8.864C0.5 9.24667 0.5 9.628 0.5 10.0107V21.9893C0.5 22.372 0.5 22.756 0.502667 23.1387C0.505333 23.4587 0.509333 23.78 0.518667 24.1013C0.537333 24.8027 0.576 25.5107 0.7 26.2027C0.826667 26.9067 1.03333 27.5627 1.36 28.2027C2.00427 29.4684 3.03371 30.4969 4.3 31.14C4.94 31.4653 5.59333 31.6733 6.29733 31.8C6.99067 31.924 7.69733 31.9653 8.39867 31.984C8.72 31.9933 9.04267 31.996 9.364 31.9973C9.74667 32 10.128 32 10.5107 32H22.4893C22.872 32 23.2533 32 23.636 31.9973C23.9573 31.996 24.28 31.9933 24.6013 31.984C25.3063 31.9756 26.0096 31.9141 26.7053 31.8C27.4002 31.6805 28.0734 31.458 28.7027 31.14C29.9677 30.4961 30.9961 29.4677 31.64 28.2027C31.9667 27.5627 32.1733 26.9067 32.3 26.2027C32.424 25.5093 32.4653 24.8027 32.484 24.1013C32.4933 23.78 32.496 23.46 32.4973 23.1387C32.5 22.756 32.5 22.372 32.5 21.9893V10.0107C32.5 9.628 32.5 9.24667 32.4973 8.864C32.4963 8.54218 32.4919 8.22039 32.484 7.89867C32.4756 7.19459 32.4141 6.49215 32.3 5.79733C32.1806 5.10158 31.9581 4.42751 31.64 3.79733C30.9958 2.53252 29.9675 1.50425 28.7027 0.86C28.0734 0.541955 27.4002 0.319509 26.7053 0.2C26.0096 0.085742 25.3063 0.0242335 24.6013 0.016C24.2805 0.00824364 23.9596 0.00379896 23.6387 0.00266667C23.256 0 22.872 0 22.4893 0H10.5107ZM18.5573 4.54667C24.0427 7.84 27.284 14.096 25.956 19.388C25.924 19.512 25.8893 19.6293 25.8547 19.7507L25.8573 19.752C28.6067 23.136 27.8573 26.7627 27.5053 26.0787C26.076 23.2973 23.4173 23.988 22.0547 24.688C21.9315 24.7612 21.8065 24.8314 21.68 24.8987L21.6533 24.9147L21.6507 24.9173C18.8307 26.4147 15.0413 26.524 11.2347 24.888C8.13512 23.5449 5.51385 21.2964 3.71467 18.4373C4.58 19.0773 5.51467 19.64 6.51067 20.1067C10.536 21.992 14.5787 21.8547 17.44 20.104C13.368 16.9733 9.968 12.8933 7.36133 9.588C6.86582 9.00989 6.4177 8.39278 6.02133 7.74267C9.14133 10.5987 14.072 14.1827 15.8413 15.1773C12.0867 11.2107 8.77733 6.324 8.932 6.48C14.8467 12.44 20.3027 15.808 20.3027 15.808C20.508 15.9213 20.6627 16.0133 20.7827 16.092C20.896 15.8053 20.996 15.5093 21.0813 15.2013C22.0253 11.7507 20.9613 7.804 18.5573 4.54533V4.54667Z" fill="#319BEC"/>
</g>
<defs>
<clipPath id="clip0_542_2967">
<rect width="32" height="32" fill="white" transform="translate(0.5)"/>
</clipPath>
</defs>
</svg>
