<svg width="32" height="32" viewBox="0 0 32 32" fill="none" xmlns="http://www.w3.org/2000/svg">
<g clip-path="url(#clip0_542_3050)">
<path d="M23.2959 19.1761C22.8999 18.9774 20.9519 18.0201 20.5893 17.8867C20.2253 17.7547 19.9613 17.6894 19.6959 18.0867C19.4333 18.4827 18.6733 19.3747 18.4426 19.6387C18.2119 19.9041 17.9799 19.9361 17.5839 19.7387C17.1879 19.5387 15.9106 19.1214 14.3973 17.7721C13.2199 16.7214 12.4239 15.4241 12.1933 15.0267C11.9626 14.6307 12.1693 14.4161 12.3666 14.2187C12.5453 14.0414 12.7639 13.7561 12.9613 13.5254C13.1599 13.2934 13.2253 13.1281 13.3586 12.8627C13.4906 12.5987 13.4253 12.3681 13.3253 12.1694C13.2253 11.9707 12.4333 10.0201 12.1039 9.22672C11.7813 8.45472 11.4546 8.56005 11.2119 8.54672C10.9813 8.53605 10.7173 8.53339 10.4519 8.53339C10.1879 8.53339 9.75859 8.63205 9.39593 9.02939C9.03326 9.42539 8.00926 10.3841 8.00926 12.3347C8.00926 14.2841 9.42926 16.1681 9.62659 16.4334C9.82526 16.6974 12.4213 20.7001 16.3959 22.4161C17.3413 22.8241 18.0786 23.0681 18.6546 23.2494C19.6039 23.5521 20.4679 23.5094 21.1493 23.4067C21.9106 23.2934 23.4933 22.4481 23.8239 21.5227C24.1546 20.5974 24.1546 19.8041 24.0546 19.6387C23.9559 19.4734 23.6933 19.3747 23.2959 19.1761ZM16.0666 29.0467H16.0613C13.701 29.0469 11.384 28.4123 9.35326 27.2094L8.87193 26.9241L3.88393 28.2334L5.21459 23.3694L4.90126 22.8707C3.58185 20.7697 2.88385 18.3383 2.88793 15.8574C2.88926 8.59072 8.80259 2.67872 16.0719 2.67872C19.5919 2.67872 22.9013 4.05205 25.3893 6.54272C26.6168 7.76488 27.5898 9.21836 28.2519 10.819C28.914 12.4197 29.2521 14.1358 29.2466 15.8681C29.2426 23.1347 23.3306 29.0467 16.0666 29.0467ZM27.2839 4.65072C25.8148 3.17195 24.0669 1.99944 22.1414 1.20112C20.2159 0.402806 18.151 -0.005435 16.0666 5.46367e-05C7.32659 5.46367e-05 0.213261 7.11339 0.209261 15.8561C0.209261 18.6507 0.938594 21.3787 2.32659 23.7827L0.0759277 32.0001L8.48259 29.7947C10.8074 31.0613 13.4125 31.7251 16.0599 31.7254H16.0666C24.8053 31.7254 31.9199 24.6121 31.9239 15.8681C31.9304 13.7844 31.5236 11.7202 30.7272 9.79477C29.9307 7.86934 28.7604 6.12095 27.2839 4.65072Z" fill="#25D366"/>
</g>
<defs>
<clipPath id="clip0_542_3050">
<rect width="32" height="32" fill="white"/>
</clipPath>
</defs>
</svg>
