<svg width="326" height="213" viewBox="0 0 326 213" fill="none" xmlns="http://www.w3.org/2000/svg">
<line x1="24.5" y1="181" x2="24.5" y2="21" stroke="#181818" stroke-dasharray="4 4"/>
<line x1="74.5" y1="181" x2="74.5" y2="21" stroke="#181818" stroke-dasharray="4 4"/>
<line x1="124.5" y1="181" x2="124.5" y2="21" stroke="#181818" stroke-dasharray="4 4"/>
<line x1="174.5" y1="181" x2="174.5" y2="21" stroke="#181818" stroke-dasharray="4 4"/>
<line x1="224.5" y1="181" x2="224.5" y2="21" stroke="#181818" stroke-dasharray="4 4"/>
<line x1="274.5" y1="181" x2="274.5" y2="21" stroke="#181818" stroke-dasharray="4 4"/>
<line x1="324.5" y1="181" x2="324.5" y2="21" stroke="#181818" stroke-dasharray="4 4"/>
<path d="M33.72 101.98H37.56V102.82H33.72V101.98ZM38.7652 106V105.256C39.0932 104.952 39.4532 104.62 39.8452 104.26C40.2372 103.896 40.6252 103.522 41.0092 103.138C41.3972 102.75 41.7512 102.368 42.0712 101.992C42.3912 101.612 42.6472 101.254 42.8392 100.918C43.0352 100.578 43.1332 100.278 43.1332 100.018C43.1332 99.702 43.0552 99.414 42.8992 99.154C42.7472 98.89 42.5412 98.68 42.2812 98.524C42.0252 98.364 41.7392 98.284 41.4232 98.284C41.1072 98.284 40.8172 98.364 40.5532 98.524C40.2932 98.68 40.0852 98.89 39.9292 99.154C39.7732 99.414 39.6952 99.702 39.6952 100.018H38.8552C38.8552 99.538 38.9712 99.104 39.2032 98.716C39.4392 98.328 39.7512 98.02 40.1392 97.792C40.5272 97.56 40.9552 97.444 41.4232 97.444C41.8912 97.444 42.3172 97.56 42.7012 97.792C43.0892 98.024 43.3972 98.334 43.6252 98.722C43.8572 99.11 43.9732 99.542 43.9732 100.018C43.9732 100.302 43.8972 100.614 43.7452 100.954C43.5972 101.29 43.3952 101.64 43.1392 102.004C42.8832 102.364 42.5952 102.728 42.2752 103.096C41.9552 103.464 41.6212 103.824 41.2732 104.176C40.9252 104.524 40.5872 104.852 40.2592 105.16H44.0992V106H38.7652ZM48.5649 106V103.642H44.9409V102.79L48.3489 97.6H49.4049V102.802H50.2869V103.642H49.4049V106H48.5649ZM45.9369 102.79L48.5649 102.802L48.5469 98.8L45.9369 102.79Z" fill="#181818"/>
<path d="M83.72 101.98H87.56V102.82H83.72V101.98ZM89.6652 106V98.44H88.7652L89.0052 97.6H90.5052V106H89.6652ZM94.6529 106.156C94.1249 106.156 93.6409 106.026 93.2009 105.766C92.7649 105.502 92.4149 105.15 92.1509 104.71C91.8909 104.27 91.7609 103.784 91.7609 103.252C91.7609 102.944 91.7969 102.682 91.8689 102.466C91.9409 102.246 92.0469 102.002 92.1869 101.734L94.5689 97.6H95.5469L93.8009 100.624C94.1529 100.488 94.5069 100.428 94.8629 100.444C95.2189 100.456 95.5589 100.534 95.8829 100.678C96.2069 100.822 96.4949 101.02 96.7469 101.272C96.9989 101.52 97.1969 101.812 97.3409 102.148C97.4889 102.484 97.5629 102.852 97.5629 103.252C97.5629 103.652 97.4869 104.028 97.3349 104.38C97.1829 104.728 96.9729 105.036 96.7049 105.304C96.4409 105.568 96.1329 105.776 95.7809 105.928C95.4289 106.08 95.0529 106.156 94.6529 106.156ZM94.6529 105.316C95.0529 105.316 95.4089 105.22 95.7209 105.028C96.0329 104.832 96.2769 104.576 96.4529 104.26C96.6329 103.944 96.7229 103.606 96.7229 103.246C96.7229 102.87 96.6309 102.528 96.4469 102.22C96.2629 101.908 96.0149 101.66 95.7029 101.476C95.3909 101.288 95.0449 101.194 94.6649 101.194C94.2729 101.194 93.9209 101.29 93.6089 101.482C93.2969 101.674 93.0509 101.926 92.8709 102.238C92.6909 102.546 92.6009 102.882 92.6009 103.246C92.6009 103.638 92.6949 103.99 92.8829 104.302C93.0749 104.614 93.3269 104.862 93.6389 105.046C93.9509 105.226 94.2889 105.316 94.6529 105.316Z" fill="#181818"/>
<path d="M133.72 101.98H137.56V102.82H133.72V101.98ZM141.441 106.156C140.949 106.156 140.499 106.044 140.091 105.82C139.687 105.596 139.365 105.296 139.125 104.92C138.885 104.544 138.765 104.126 138.765 103.666C138.765 103.218 138.889 102.81 139.137 102.442C139.385 102.07 139.707 101.782 140.103 101.578C139.775 101.39 139.505 101.134 139.293 100.81C139.081 100.482 138.975 100.122 138.975 99.73C138.975 99.31 139.085 98.928 139.305 98.584C139.529 98.236 139.827 97.96 140.199 97.756C140.575 97.548 140.989 97.444 141.441 97.444C141.893 97.444 142.305 97.548 142.677 97.756C143.053 97.96 143.351 98.236 143.571 98.584C143.795 98.928 143.907 99.31 143.907 99.73C143.907 100.122 143.801 100.482 143.589 100.81C143.381 101.134 143.111 101.39 142.779 101.578C143.183 101.782 143.507 102.07 143.751 102.442C143.999 102.81 144.123 103.218 144.123 103.666C144.123 104.122 144.001 104.54 143.757 104.92C143.517 105.296 143.195 105.596 142.791 105.82C142.387 106.044 141.937 106.156 141.441 106.156ZM141.441 105.316C141.773 105.316 142.073 105.242 142.341 105.094C142.609 104.946 142.823 104.748 142.983 104.5C143.143 104.248 143.223 103.97 143.223 103.666C143.223 103.362 143.143 103.086 142.983 102.838C142.823 102.59 142.609 102.392 142.341 102.244C142.073 102.096 141.773 102.022 141.441 102.022C141.117 102.022 140.819 102.096 140.547 102.244C140.279 102.392 140.063 102.59 139.899 102.838C139.739 103.086 139.659 103.362 139.659 103.666C139.659 103.97 139.739 104.248 139.899 104.5C140.063 104.748 140.279 104.946 140.547 105.094C140.819 105.242 141.117 105.316 141.441 105.316ZM141.441 101.182C141.733 101.182 141.997 101.118 142.233 100.99C142.469 100.858 142.657 100.682 142.797 100.462C142.941 100.242 143.013 99.998 143.013 99.73C143.013 99.462 142.941 99.22 142.797 99.004C142.657 98.784 142.469 98.61 142.233 98.482C141.997 98.35 141.733 98.284 141.441 98.284C141.153 98.284 140.889 98.35 140.649 98.482C140.413 98.61 140.223 98.784 140.079 99.004C139.939 99.22 139.869 99.462 139.869 99.73C139.869 99.998 139.939 100.242 140.079 100.462C140.223 100.682 140.413 100.858 140.649 100.99C140.889 101.118 141.153 101.182 141.441 101.182Z" fill="#181818"/>
<path d="M184.38 106V98.44H183.48L183.72 97.6H185.22V106H184.38ZM189.758 106.156C189.254 106.156 188.804 106.044 188.408 105.82C188.012 105.592 187.674 105.278 187.394 104.878C187.114 104.478 186.9 104.016 186.752 103.492C186.608 102.964 186.536 102.4 186.536 101.8C186.536 101.2 186.608 100.636 186.752 100.108C186.9 99.58 187.114 99.118 187.394 98.722C187.674 98.322 188.012 98.01 188.408 97.786C188.804 97.558 189.254 97.444 189.758 97.444C190.258 97.444 190.706 97.558 191.102 97.786C191.498 98.01 191.834 98.322 192.11 98.722C192.386 99.118 192.596 99.58 192.74 100.108C192.888 100.636 192.962 101.2 192.962 101.8C192.962 102.4 192.888 102.964 192.74 103.492C192.596 104.016 192.386 104.478 192.11 104.878C191.834 105.278 191.498 105.592 191.102 105.82C190.706 106.044 190.258 106.156 189.758 106.156ZM189.758 105.316C190.286 105.316 190.728 105.154 191.084 104.83C191.444 104.506 191.714 104.078 191.894 103.546C192.074 103.01 192.164 102.428 192.164 101.8C192.164 101.136 192.07 100.54 191.882 100.012C191.698 99.48 191.426 99.06 191.066 98.752C190.71 98.44 190.274 98.284 189.758 98.284C189.35 98.284 188.994 98.378 188.69 98.566C188.386 98.754 188.134 99.012 187.934 99.34C187.734 99.668 187.584 100.044 187.484 100.468C187.384 100.888 187.334 101.332 187.334 101.8C187.334 102.432 187.426 103.016 187.61 103.552C187.794 104.084 188.066 104.512 188.426 104.836C188.786 105.156 189.23 105.316 189.758 105.316Z" fill="#181818"/>
<path d="M234.38 106V98.44H233.48L233.72 97.6H235.22V106H234.38ZM239.758 106.156C239.254 106.156 238.804 106.044 238.408 105.82C238.012 105.592 237.674 105.278 237.394 104.878C237.114 104.478 236.9 104.016 236.752 103.492C236.608 102.964 236.536 102.4 236.536 101.8C236.536 101.2 236.608 100.636 236.752 100.108C236.9 99.58 237.114 99.118 237.394 98.722C237.674 98.322 238.012 98.01 238.408 97.786C238.804 97.558 239.254 97.444 239.758 97.444C240.258 97.444 240.706 97.558 241.102 97.786C241.498 98.01 241.834 98.322 242.11 98.722C242.386 99.118 242.596 99.58 242.74 100.108C242.888 100.636 242.962 101.2 242.962 101.8C242.962 102.4 242.888 102.964 242.74 103.492C242.596 104.016 242.386 104.478 242.11 104.878C241.834 105.278 241.498 105.592 241.102 105.82C240.706 106.044 240.258 106.156 239.758 106.156ZM239.758 105.316C240.286 105.316 240.728 105.154 241.084 104.83C241.444 104.506 241.714 104.078 241.894 103.546C242.074 103.01 242.164 102.428 242.164 101.8C242.164 101.136 242.07 100.54 241.882 100.012C241.698 99.48 241.426 99.06 241.066 98.752C240.71 98.44 240.274 98.284 239.758 98.284C239.35 98.284 238.994 98.378 238.69 98.566C238.386 98.754 238.134 99.012 237.934 99.34C237.734 99.668 237.584 100.044 237.484 100.468C237.384 100.888 237.334 101.332 237.334 101.8C237.334 102.432 237.426 103.016 237.61 103.552C237.794 104.084 238.066 104.512 238.426 104.836C238.786 105.156 239.23 105.316 239.758 105.316ZM246.789 106.156C246.285 106.156 245.835 106.044 245.439 105.82C245.043 105.592 244.705 105.278 244.425 104.878C244.145 104.478 243.931 104.016 243.783 103.492C243.639 102.964 243.567 102.4 243.567 101.8C243.567 101.2 243.639 100.636 243.783 100.108C243.931 99.58 244.145 99.118 244.425 98.722C244.705 98.322 245.043 98.01 245.439 97.786C245.835 97.558 246.285 97.444 246.789 97.444C247.289 97.444 247.737 97.558 248.133 97.786C248.529 98.01 248.865 98.322 249.141 98.722C249.417 99.118 249.627 99.58 249.771 100.108C249.919 100.636 249.993 101.2 249.993 101.8C249.993 102.4 249.919 102.964 249.771 103.492C249.627 104.016 249.417 104.478 249.141 104.878C248.865 105.278 248.529 105.592 248.133 105.82C247.737 106.044 247.289 106.156 246.789 106.156ZM246.789 105.316C247.317 105.316 247.759 105.154 248.115 104.83C248.475 104.506 248.745 104.078 248.925 103.546C249.105 103.01 249.195 102.428 249.195 101.8C249.195 101.136 249.101 100.54 248.913 100.012C248.729 99.48 248.457 99.06 248.097 98.752C247.741 98.44 247.305 98.284 246.789 98.284C246.381 98.284 246.025 98.378 245.721 98.566C245.417 98.754 245.165 99.012 244.965 99.34C244.765 99.668 244.615 100.044 244.515 100.468C244.415 100.888 244.365 101.332 244.365 101.8C244.365 102.432 244.457 103.016 244.641 103.552C244.825 104.084 245.097 104.512 245.457 104.836C245.817 105.156 246.261 105.316 246.789 105.316Z" fill="#181818"/>
<path d="M284.38 106V98.44H283.48L283.72 97.6H285.22V106H284.38ZM289.758 106.156C289.254 106.156 288.804 106.044 288.408 105.82C288.012 105.592 287.674 105.278 287.394 104.878C287.114 104.478 286.9 104.016 286.752 103.492C286.608 102.964 286.536 102.4 286.536 101.8C286.536 101.2 286.608 100.636 286.752 100.108C286.9 99.58 287.114 99.118 287.394 98.722C287.674 98.322 288.012 98.01 288.408 97.786C288.804 97.558 289.254 97.444 289.758 97.444C290.258 97.444 290.706 97.558 291.102 97.786C291.498 98.01 291.834 98.322 292.11 98.722C292.386 99.118 292.596 99.58 292.74 100.108C292.888 100.636 292.962 101.2 292.962 101.8C292.962 102.4 292.888 102.964 292.74 103.492C292.596 104.016 292.386 104.478 292.11 104.878C291.834 105.278 291.498 105.592 291.102 105.82C290.706 106.044 290.258 106.156 289.758 106.156ZM289.758 105.316C290.286 105.316 290.728 105.154 291.084 104.83C291.444 104.506 291.714 104.078 291.894 103.546C292.074 103.01 292.164 102.428 292.164 101.8C292.164 101.136 292.07 100.54 291.882 100.012C291.698 99.48 291.426 99.06 291.066 98.752C290.71 98.44 290.274 98.284 289.758 98.284C289.35 98.284 288.994 98.378 288.69 98.566C288.386 98.754 288.134 99.012 287.934 99.34C287.734 99.668 287.584 100.044 287.484 100.468C287.384 100.888 287.334 101.332 287.334 101.8C287.334 102.432 287.426 103.016 287.61 103.552C287.794 104.084 288.066 104.512 288.426 104.836C288.786 105.156 289.23 105.316 289.758 105.316ZM296.789 106.156C296.285 106.156 295.835 106.044 295.439 105.82C295.043 105.592 294.705 105.278 294.425 104.878C294.145 104.478 293.931 104.016 293.783 103.492C293.639 102.964 293.567 102.4 293.567 101.8C293.567 101.2 293.639 100.636 293.783 100.108C293.931 99.58 294.145 99.118 294.425 98.722C294.705 98.322 295.043 98.01 295.439 97.786C295.835 97.558 296.285 97.444 296.789 97.444C297.289 97.444 297.737 97.558 298.133 97.786C298.529 98.01 298.865 98.322 299.141 98.722C299.417 99.118 299.627 99.58 299.771 100.108C299.919 100.636 299.993 101.2 299.993 101.8C299.993 102.4 299.919 102.964 299.771 103.492C299.627 104.016 299.417 104.478 299.141 104.878C298.865 105.278 298.529 105.592 298.133 105.82C297.737 106.044 297.289 106.156 296.789 106.156ZM296.789 105.316C297.317 105.316 297.759 105.154 298.115 104.83C298.475 104.506 298.745 104.078 298.925 103.546C299.105 103.01 299.195 102.428 299.195 101.8C299.195 101.136 299.101 100.54 298.913 100.012C298.729 99.48 298.457 99.06 298.097 98.752C297.741 98.44 297.305 98.284 296.789 98.284C296.381 98.284 296.025 98.378 295.721 98.566C295.417 98.754 295.165 99.012 294.965 99.34C294.765 99.668 294.615 100.044 294.515 100.468C294.415 100.888 294.365 101.332 294.365 101.8C294.365 102.432 294.457 103.016 294.641 103.552C294.825 104.084 295.097 104.512 295.457 104.836C295.817 105.156 296.261 105.316 296.789 105.316ZM303.82 106.156C303.316 106.156 302.866 106.044 302.47 105.82C302.074 105.592 301.736 105.278 301.456 104.878C301.176 104.478 300.962 104.016 300.814 103.492C300.67 102.964 300.598 102.4 300.598 101.8C300.598 101.2 300.67 100.636 300.814 100.108C300.962 99.58 301.176 99.118 301.456 98.722C301.736 98.322 302.074 98.01 302.47 97.786C302.866 97.558 303.316 97.444 303.82 97.444C304.32 97.444 304.768 97.558 305.164 97.786C305.56 98.01 305.896 98.322 306.172 98.722C306.448 99.118 306.658 99.58 306.802 100.108C306.95 100.636 307.024 101.2 307.024 101.8C307.024 102.4 306.95 102.964 306.802 103.492C306.658 104.016 306.448 104.478 306.172 104.878C305.896 105.278 305.56 105.592 305.164 105.82C304.768 106.044 304.32 106.156 303.82 106.156ZM303.82 105.316C304.348 105.316 304.79 105.154 305.146 104.83C305.506 104.506 305.776 104.078 305.956 103.546C306.136 103.01 306.226 102.428 306.226 101.8C306.226 101.136 306.132 100.54 305.944 100.012C305.76 99.48 305.488 99.06 305.128 98.752C304.772 98.44 304.336 98.284 303.82 98.284C303.412 98.284 303.056 98.378 302.752 98.566C302.448 98.754 302.196 99.012 301.996 99.34C301.796 99.668 301.646 100.044 301.546 100.468C301.446 100.888 301.396 101.332 301.396 101.8C301.396 102.432 301.488 103.016 301.672 103.552C301.856 104.084 302.128 104.512 302.488 104.836C302.848 105.156 303.292 105.316 303.82 105.316Z" fill="#181818"/>
<path d="M25 146.5C38.5965 137.919 45.7895 134.97 65.7895 137.822C85.7895 140.673 98.2456 130.297 101.974 124.752C103.728 120.396 114.605 114.297 144.079 124.752C173.553 135.208 186.184 105.083 188.816 88.7129C190.789 73.0033 203.421 40.3168 238.158 35.2475C272.895 30.1782 267.86 32.137 274 22.5" stroke="#444444"/>
<path d="M24.5 147C38.0965 138.419 45.7895 134.97 65.7895 137.822C85.7895 140.673 98.2456 130.297 101.974 124.752" stroke="#6D6D6D"/>
<g filter="url(#filter0_f_12_399)">
<circle cx="105" cy="122" r="25" fill="#181818"/>
</g>
<circle cx="105" cy="122" r="8" fill="#6D6D6D" fill-opacity="0.24"/>
<circle cx="105" cy="122" r="5" fill="#6D6D6D"/>
<path d="M25 181C38.5965 172.419 70.7895 155.97 90.7895 158.822C110.789 161.673 123.246 151.297 126.974 145.752C128.728 141.396 139.605 135.297 169.079 145.752C198.553 156.208 211.184 126.083 213.816 109.713C215.789 94.0033 228.421 61.3168 263.158 56.2475C297.895 51.1782 318.86 30.637 325 21" stroke="#444444"/>
<path d="M25 181C38.5965 172.419 70.7895 155.97 90.7895 158.822C110.789 161.673 123.246 151.297 126.974 145.752C128.728 141.396 139.605 135.297 169.079 145.752C198.553 156.208 211.184 126.083 213.816 109.713" stroke="#FF4733"/>
<g filter="url(#filter1_f_12_399)">
<circle cx="214" cy="110" r="25" fill="#FF4733"/>
</g>
<circle cx="214" cy="110" r="8" fill="#FF4733" fill-opacity="0.24"/>
<circle cx="214" cy="110" r="5" fill="#FF4733"/>
<path d="M226 101.2C226 100.08 226 99.5198 226.218 99.092C226.41 98.7157 226.716 98.4097 227.092 98.218C227.52 98 228.08 98 229.2 98H281V118.8C281 119.92 281 120.48 280.782 120.908C280.59 121.284 280.284 121.59 279.908 121.782C279.48 122 278.92 122 277.8 122H229.2C228.08 122 227.52 122 227.092 121.782C226.716 121.59 226.41 121.284 226.218 120.908C226 120.48 226 119.92 226 118.8V101.2Z" fill="#202020" fill-opacity="0.5"/>
<path d="M281 101V98H278" stroke="#FF4733" stroke-width="0.2"/>
<path d="M229 122H226V119" stroke="#FF4733" stroke-width="0.2"/>
<path d="M278 122H281V119" stroke="#FF4733" stroke-width="0.2"/>
<path d="M229 98H226V101" stroke="#FF4733" stroke-width="0.2"/>
<path d="M240.025 114L238.235 107H238.955L240.435 112.795L241.91 107H242.53L244.01 112.795L245.485 107H246.205L244.425 114H243.595L242.22 108.625L240.845 114H240.025ZM246.686 109H247.386V114H246.686V109ZM247.041 108.125C246.928 108.125 246.831 108.088 246.751 108.015C246.674 107.938 246.636 107.843 246.636 107.73C246.636 107.617 246.674 107.523 246.751 107.45C246.831 107.373 246.928 107.335 247.041 107.335C247.151 107.335 247.244 107.373 247.321 107.45C247.401 107.523 247.441 107.617 247.441 107.73C247.441 107.843 247.403 107.938 247.326 108.015C247.249 108.088 247.154 108.125 247.041 108.125ZM251.145 109.7H249.95L249.945 114H249.245L249.25 109.7H248.345V109H249.25L249.245 107.43H249.945L249.95 109H251.145V109.7ZM256.398 110.905V114H255.698V111.045C255.698 110.772 255.631 110.523 255.498 110.3C255.364 110.077 255.186 109.898 254.963 109.765C254.739 109.632 254.491 109.565 254.218 109.565C253.948 109.565 253.699 109.632 253.473 109.765C253.249 109.898 253.071 110.077 252.938 110.3C252.804 110.523 252.738 110.772 252.738 111.045V114H252.038V106.5H252.738V109.69C252.914 109.437 253.144 109.235 253.428 109.085C253.711 108.935 254.019 108.86 254.353 108.86C254.729 108.86 255.073 108.952 255.383 109.135C255.693 109.318 255.939 109.565 256.123 109.875C256.306 110.185 256.398 110.528 256.398 110.905ZM262.146 107H263.016L265.566 114H264.821L264.276 112.5H260.891L260.346 114H259.601L262.146 107ZM261.146 111.8H264.016L262.581 107.86L261.146 111.8ZM266.65 114V107H267.35V114H266.65Z" fill="#FF4733"/>
<path d="M42 88.2C42 87.0799 42 86.5198 42.218 86.092C42.4097 85.7157 42.7157 85.4097 43.092 85.218C43.5198 85 44.0799 85 45.2 85H112V105.8C112 106.92 112 107.48 111.782 107.908C111.59 108.284 111.284 108.59 110.908 108.782C110.48 109 109.92 109 108.8 109H45.2C44.0799 109 43.5198 109 43.092 108.782C42.7157 108.59 42.4097 108.284 42.218 107.908C42 107.48 42 106.92 42 105.8V88.2Z" fill="#202020" fill-opacity="0.5"/>
<path d="M112 88V85H109" stroke="#6D6D6D" stroke-width="0.2"/>
<path d="M45 109H42V106" stroke="#6D6D6D" stroke-width="0.2"/>
<path d="M109 109H112V106" stroke="#6D6D6D" stroke-width="0.2"/>
<path d="M45 85H42V88" stroke="#6D6D6D" stroke-width="0.2"/>
<path d="M57.025 101L55.235 94H55.955L57.435 99.795L58.91 94H59.53L61.01 99.795L62.485 94H63.205L61.425 101H60.595L59.22 95.625L57.845 101H57.025ZM63.6859 96H64.3859V101H63.6859V96ZM64.0409 95.125C63.9276 95.125 63.8309 95.0883 63.7509 95.015C63.6743 94.9383 63.6359 94.8433 63.6359 94.73C63.6359 94.6167 63.6743 94.5233 63.7509 94.45C63.8309 94.3733 63.9276 94.335 64.0409 94.335C64.1509 94.335 64.2443 94.3733 64.3209 94.45C64.4009 94.5233 64.4409 94.6167 64.4409 94.73C64.4409 94.8433 64.4026 94.9383 64.3259 95.015C64.2493 95.0883 64.1543 95.125 64.0409 95.125ZM68.1452 96.7H66.9502L66.9452 101H66.2452L66.2502 96.7H65.3452V96H66.2502L66.2452 94.43H66.9452L66.9502 96H68.1452V96.7ZM73.3975 97.905V101H72.6975V98.045C72.6975 97.7717 72.6308 97.5233 72.4975 97.3C72.3642 97.0767 72.1858 96.8983 71.9625 96.765C71.7392 96.6317 71.4908 96.565 71.2175 96.565C70.9475 96.565 70.6992 96.6317 70.4725 96.765C70.2492 96.8983 70.0708 97.0767 69.9375 97.3C69.8042 97.5233 69.7375 97.7717 69.7375 98.045V101H69.0375V93.5H69.7375V96.69C69.9142 96.4367 70.1442 96.235 70.4275 96.085C70.7108 95.935 71.0192 95.86 71.3525 95.86C71.7292 95.86 72.0725 95.9517 72.3825 96.135C72.6925 96.3183 72.9392 96.565 73.1225 96.875C73.3058 97.185 73.3975 97.5283 73.3975 97.905ZM76.5012 101.13C76.0412 101.13 75.6212 101.012 75.2412 100.775C74.8645 100.538 74.5628 100.222 74.3362 99.825C74.1128 99.425 74.0012 98.9833 74.0012 98.5C74.0012 98.1333 74.0662 97.7917 74.1962 97.475C74.3262 97.155 74.5045 96.875 74.7312 96.635C74.9612 96.3917 75.2278 96.2017 75.5312 96.065C75.8345 95.9283 76.1578 95.86 76.5012 95.86C76.9612 95.86 77.3795 95.9783 77.7562 96.215C78.1362 96.4517 78.4378 96.77 78.6612 97.17C78.8878 97.57 79.0012 98.0133 79.0012 98.5C79.0012 98.8633 78.9362 99.2033 78.8062 99.52C78.6762 99.8367 78.4962 100.117 78.2662 100.36C78.0395 100.6 77.7745 100.788 77.4712 100.925C77.1712 101.062 76.8478 101.13 76.5012 101.13ZM76.5012 100.43C76.8412 100.43 77.1462 100.342 77.4162 100.165C77.6895 99.985 77.9045 99.7483 78.0612 99.455C78.2212 99.1617 78.3012 98.8433 78.3012 98.5C78.3012 98.15 78.2212 97.8283 78.0612 97.535C77.9012 97.2383 77.6845 97.0017 77.4112 96.825C77.1412 96.6483 76.8378 96.56 76.5012 96.56C76.1612 96.56 75.8545 96.65 75.5812 96.83C75.3112 97.0067 75.0962 97.2417 74.9362 97.535C74.7795 97.8283 74.7012 98.15 74.7012 98.5C74.7012 98.86 74.7828 99.1867 74.9462 99.48C75.1095 99.77 75.3278 100.002 75.6012 100.175C75.8745 100.345 76.1745 100.43 76.5012 100.43ZM79.5992 99.085V96H80.2992V98.945C80.2992 99.2183 80.3659 99.4667 80.4992 99.69C80.6326 99.9133 80.8109 100.092 81.0342 100.225C81.2609 100.358 81.5092 100.425 81.7792 100.425C82.0526 100.425 82.2992 100.358 82.5192 100.225C82.7426 100.092 82.9209 99.9133 83.0542 99.69C83.1876 99.4667 83.2542 99.2183 83.2542 98.945V96H83.9542L83.9592 101H83.2592L83.2542 100.3C83.0776 100.553 82.8476 100.755 82.5642 100.905C82.2842 101.055 81.9776 101.13 81.6442 101.13C81.2676 101.13 80.9242 101.038 80.6142 100.855C80.3042 100.672 80.0576 100.425 79.8742 100.115C79.6909 99.805 79.5992 99.4617 79.5992 99.085ZM87.5105 96.7H86.3155L86.3105 101H85.6105L85.6155 96.7H84.7105V96H85.6155L85.6105 94.43H86.3105L86.3155 96H87.5105V96.7ZM93.1501 94H94.0201L96.5701 101H95.8251L95.2801 99.5H91.8951L91.3501 101H90.6051L93.1501 94ZM92.1501 98.8H95.0201L93.5851 94.86L92.1501 98.8ZM97.6543 101V94H98.3543V101H97.6543Z" fill="#6D6D6D"/>
<defs>
<filter id="filter0_f_12_399" x="40" y="57" width="130" height="130" filterUnits="userSpaceOnUse" color-interpolation-filters="sRGB">
<feFlood flood-opacity="0" result="BackgroundImageFix"/>
<feBlend mode="normal" in="SourceGraphic" in2="BackgroundImageFix" result="shape"/>
<feGaussianBlur stdDeviation="20" result="effect1_foregroundBlur_12_399"/>
</filter>
<filter id="filter1_f_12_399" x="105" y="1" width="218" height="218" filterUnits="userSpaceOnUse" color-interpolation-filters="sRGB">
<feFlood flood-opacity="0" result="BackgroundImageFix"/>
<feBlend mode="normal" in="SourceGraphic" in2="BackgroundImageFix" result="shape"/>
<feGaussianBlur stdDeviation="42" result="effect1_foregroundBlur_12_399"/>
</filter>
</defs>
</svg>
