<svg width="42" height="50" viewBox="0 0 42 50" fill="none" xmlns="http://www.w3.org/2000/svg">
<path d="M15.5197 18.6396H10.9865V18.3071C12.3999 18.2041 12.4513 18.1685 12.4513 16.3354V2.80703C12.4513 1.67472 12.0317 1.55198 10.8123 1.55198V1.21942C12.1742 1.21942 12.9739 0.819542 13.9162 0L14.0548 0.0871011V16.3354C14.0548 18.1645 14.2805 18.1843 15.5197 18.3071V18.6396Z" fill="#FF4733"/>
<path d="M19.9303 21.7757H15.5515V21.4431C16.7907 21.3402 16.8422 21.3046 16.8422 19.4715V11.767C16.8422 10.6347 16.4225 10.5119 15.2031 10.5119V10.1794C16.5651 10.1794 17.3648 9.7795 18.3071 8.95996L18.4457 9.04706V10.599C19.4394 9.72803 20.3104 9.04706 21.2883 9.04706C23.0858 9.04706 24.3567 10.7891 24.3567 13.513C24.3567 16.6684 22.4563 18.8143 20.3817 18.8143C19.475 18.8143 18.9168 18.3946 18.4457 18.1531V19.4794C18.4457 21.3085 18.5169 21.3283 19.9264 21.4511V21.7836L19.9303 21.7757ZM22.579 14.3286C22.579 11.3473 21.8307 9.96954 20.5717 9.96954C19.1583 9.96954 18.4457 11.5572 18.4457 12.9349V16.3517C18.6555 17.5553 19.5265 18.3748 20.5203 18.3748C21.8109 18.3748 22.579 17.0129 22.579 14.3286Z" fill="#FF4733"/>
<path d="M28.4222 18.6394H24.0433V18.3068C25.4568 18.2039 25.5082 18.1683 25.5082 16.3352V7.35586C25.5082 6.22355 25.0886 6.10081 23.8691 6.10081V5.76824C25.2311 5.76824 26.0308 5.36837 26.9731 4.54883L27.1117 4.63593V10.5667C28.5924 9.48588 29.1863 9.05037 30.1642 9.05037C31.5934 9.05037 32.2031 10.0085 32.2031 11.996V16.3392C32.2031 18.1683 32.2744 18.1881 33.6839 18.3108V18.6434H29.305V18.3108C30.5443 18.2079 30.5957 18.1722 30.5957 16.3392V12.8155C30.5957 10.5469 29.792 10.0243 29.0437 10.0243C28.1371 10.0243 27.1077 10.9666 27.1077 12.5859V16.3352C27.1077 18.1643 27.179 18.1841 28.4142 18.3068V18.6394H28.4222Z" fill="#FF4733"/>
<path d="M38.2066 18.6398V17.6302C37.4385 18.2241 36.5319 18.818 35.5579 18.818C34.2158 18.818 33.709 17.753 33.709 16.8661C33.709 15.8011 34.39 15.2785 36.2705 14.653L38.2066 14.0076V12.1231C38.2066 10.3256 37.8067 9.54171 36.8446 9.54171C35.1026 9.54171 36.425 11.9291 34.8571 11.9291C34.196 11.9291 33.9663 11.5292 33.9663 11.161C33.9663 10.1316 35.8509 9.05078 37.49 9.05078C39.129 9.05078 39.81 9.97326 39.81 11.648V16.3396C39.81 18.1687 39.8813 18.1885 41.1165 18.3112V18.6438H38.2026L38.2066 18.6398ZM38.2066 16.3396V14.6134L36.9001 15.033C35.6965 15.4329 35.3481 15.9753 35.3481 16.6721C35.3481 17.2818 35.6608 17.8915 36.3933 17.8915C37.0386 17.8915 38.068 17.4719 38.2066 16.3396Z" fill="#FF4733"/>
<path d="M4.44208 34.2311H0.882812V33.8986C2.12202 33.7956 2.3477 33.5145 2.3477 32.2753V23.9215C2.3477 22.3854 1.78946 21.7598 0.882812 21.6529V21.3204H3.44438L9.70378 30.8936V23.6206C9.70378 22.227 9.35538 21.7361 8.2389 21.649V21.3164H11.7982V21.649C10.6817 21.7519 10.3174 22.2428 10.3174 23.6206V34.2232H9.70774V34.1876L2.9574 23.8938V32.2832C2.9574 33.5224 3.20287 33.7837 4.43812 33.9065V34.239L4.44208 34.2311Z" fill="#FF4733"/>
<path d="M11.9043 29.7489C11.9043 26.8548 13.3335 24.6377 15.6892 24.6377C17.0829 24.6377 18.6903 25.4572 18.6903 28.2286L13.6146 28.7512C13.6305 31.2099 14.5728 33.4072 16.2475 33.4072C17.0829 33.4072 17.9895 32.8648 18.7219 32.1007L18.9318 32.3778C18.1835 33.2845 17.067 34.4009 15.4794 34.4009C13.579 34.4009 11.9043 32.8331 11.9043 29.745V29.7489ZM13.6463 27.9357H17.0274C16.9245 25.4256 15.9822 25.1445 15.4596 25.1445C14.3946 25.1445 13.7849 26.2966 13.6463 27.9357Z" fill="#FF4733"/>
<path d="M27.6141 34.2309C27.0558 34.1953 26.4263 34.1597 25.8008 34.1597C25.1753 34.1597 24.5101 34.1953 23.8489 34.2309V33.8825C24.3913 33.8311 24.6527 33.7242 24.6527 33.4272C24.6527 33.2174 24.5141 32.9046 24.2528 32.4493L22.9621 30.2164L22.0911 31.7525C21.5843 32.6591 21.2874 33.1659 21.2874 33.4628C21.2874 33.7598 21.5487 33.8469 22.0911 33.8984V34.2309C21.5685 34.1953 21.0261 34.1597 20.5233 34.1597C20.0205 34.1597 19.5295 34.1953 19.0742 34.2309V33.8984C20.0165 33.7756 20.452 33.5856 21.0617 32.5364L22.7166 29.765L20.8677 26.5581C20.3095 25.5802 19.9611 25.4258 19.2801 25.3189V24.9863C19.8542 25.022 20.4837 25.0576 21.129 25.0576C21.7744 25.0576 22.4355 25.022 23.1007 24.9863V25.3189C22.5939 25.3704 22.3682 25.4575 22.3682 25.7188C22.3682 25.9444 22.5266 26.277 22.8235 26.7996L23.7816 28.51L24.3755 27.4648C24.8625 26.5937 25.108 26.087 25.108 25.79C25.108 25.4773 24.8466 25.3704 24.3755 25.3189V24.9863C24.8981 25.022 25.4405 25.0576 25.9433 25.0576C26.4461 25.0576 26.9371 25.022 27.3726 24.9863V25.3189C26.2561 25.4416 26.0106 25.6317 25.4009 26.6808L24.039 28.9811L26.0977 32.6433C26.656 33.6371 26.9331 33.7756 27.6141 33.8825V34.2309Z" fill="#FF4733"/>
<path d="M32.3742 33.3802C31.9031 33.9385 31.2063 34.4096 30.2798 34.4096C29.1832 34.4096 28.3795 33.7286 28.3795 32.5092V25.5332L27.3145 25.359V24.9948C28.621 24.9948 29.5118 24.1752 29.6503 22.9004H29.9829V24.7493L32.109 24.9948V25.359L29.9829 25.5689V32.2638C29.9829 33.2575 30.3155 33.6415 30.941 33.6415C31.4636 33.6415 31.8635 33.3802 32.1802 33.0675L32.3703 33.3802H32.3742Z" fill="#FF4733"/>
<path d="M8.21097 49.8256H3.20266V49.493C4.82591 49.3545 4.85758 49.3703 4.85758 47.8698V37.3187H4.12514C2.73152 37.3187 2.10202 37.8056 1.28247 40.1099L0.898438 40.0228L1.40521 36.3447L1.78924 36.3962C1.92781 36.7961 2.13765 36.9188 2.62462 36.9188H8.78109C9.26806 36.9188 9.4779 36.7961 9.61647 36.3962L10.0005 36.3447L10.5073 40.0228L10.1232 40.1099C9.3037 37.8096 8.67419 37.3187 7.28057 37.3187H6.54813V47.8698C6.54813 49.3703 6.58377 49.3505 8.20305 49.493V49.8256H8.21097Z" fill="#FF4733"/>
<path d="M10.7207 45.3437C10.7207 42.4495 12.15 40.2324 14.5056 40.2324C15.8993 40.2324 17.5067 41.052 17.5067 43.8234L12.4311 44.346C12.4469 46.8046 13.3892 49.0019 15.0639 49.0019C15.8993 49.0019 16.8059 48.4595 17.5383 47.6954L17.7482 47.9725C16.9999 48.8792 15.8834 49.9957 14.2958 49.9957C12.3954 49.9957 10.7207 48.4278 10.7207 45.3397V45.3437ZM12.4627 43.5304H15.8438C15.7409 41.0203 14.7986 40.7392 14.276 40.7392C13.211 40.7392 12.6013 41.8913 12.4627 43.5304Z" fill="#FF4733"/>
<path d="M20.0678 44.2826C20.0678 46.757 21.01 49.0098 22.7006 49.0098C23.5043 49.0098 24.4426 48.4674 25.1751 47.7033L25.3849 47.9804C24.6366 48.8871 23.5874 50.0035 21.9484 50.0035C19.9767 50.0035 18.3574 48.4001 18.3574 45.3476C18.3574 42.4534 19.7194 40.2363 22.6491 40.2363C24.2882 40.2363 25.0365 40.8975 25.0365 41.5428C25.0365 42.014 24.7039 42.5208 24.114 42.5208C22.9817 42.5208 23.3301 40.7431 21.988 40.7431C20.7487 40.7431 20.0678 42.2436 20.0678 44.2826Z" fill="#FF4733"/>
<path d="M29.5706 49.8259H25.1918V49.4934C26.6052 49.3904 26.6567 49.3548 26.6567 47.5217V38.5424C26.6567 37.4101 26.237 37.2873 25.0176 37.2873V36.9548C26.3795 36.9548 27.1793 36.5549 28.1215 35.7354L28.2601 35.8225V41.7532C29.7408 40.6724 30.3347 40.2369 31.3126 40.2369C32.7419 40.2369 33.3516 41.195 33.3516 43.1825V47.5257C33.3516 49.3548 33.4228 49.3746 34.8323 49.4973V49.8299H30.4535V49.4973C31.6927 49.3944 31.7442 49.3588 31.7442 47.5257V44.002C31.7442 41.7334 30.9405 41.2108 30.1922 41.2108C29.2855 41.2108 28.2562 42.1531 28.2562 43.7724V47.5217C28.2562 49.3508 28.3274 49.3706 29.5627 49.4934V49.8259H29.5706Z" fill="#FF4733"/>
<path d="M4.33861 18.64H0.921875V18.3074C1.98688 18.2203 2.37092 17.8204 2.84206 16.3358L6.31027 5.38477H6.76557L10.1665 16.6842C10.6218 18.1649 10.6218 18.1847 11.7185 18.3074V18.64H7.33964V18.3074C8.64616 18.2045 8.80453 18.1174 8.38486 16.6842L7.82662 14.764H3.9229L3.45177 16.3318C3.01626 17.761 3.13899 18.1965 4.34257 18.3034V18.636L4.33861 18.64ZM7.68805 14.3324L5.91039 8.24722L4.06147 14.3324H7.68805Z" fill="#FF4733"/>
</svg>
