<svg width="62" height="28" viewBox="0 0 62 28" fill="none" xmlns="http://www.w3.org/2000/svg">
<path d="M0.0913086 1H58.5459C59.5641 1 60.0733 1 60.4622 1.19817C60.8043 1.37249 61.0825 1.65063 61.2568 1.99274C61.4549 2.38168 61.4549 2.89081 61.4549 3.90909V24.4545C61.4549 25.4728 61.4549 25.982 61.2568 26.3709C61.0825 26.713 60.8043 26.9911 60.4622 27.1655C60.0733 27.3636 59.5641 27.3636 58.5459 27.3636H3.0004C1.98212 27.3636 1.47298 27.3636 1.08405 27.1655C0.74194 26.9911 0.463794 26.713 0.289479 26.3709C0.0913086 25.982 0.0913086 25.4728 0.0913086 24.4545V1Z" fill="#202020" fill-opacity="0.5"/>
<path d="M0.0913086 2.36364V1H1.45494" stroke="white" stroke-width="0.0909091"/>
<path d="M1.45508 27.3633H0.0914418V25.9996" stroke="white" stroke-width="0.0909091"/>
<path d="M60.0913 27.3633H61.4549V25.9996" stroke="white" stroke-width="0.0909091"/>
<path d="M60.0913 1H61.4549V2.36364" stroke="white" stroke-width="0.0909091"/>
<path d="M3.94572 7.63672V5.09126H4.22208L5.56572 7.17672V5.09126H5.82027V7.63672H5.54572L4.20027 5.55126V7.63672H3.94572ZM7.07967 7.68399C6.9124 7.68399 6.75967 7.64096 6.62149 7.5549C6.48452 7.46884 6.37482 7.35369 6.2924 7.20945C6.21118 7.06399 6.17058 6.90339 6.17058 6.72763C6.17058 6.59429 6.19422 6.47005 6.24149 6.3549C6.28876 6.23854 6.35361 6.13672 6.43603 6.04945C6.51967 5.96096 6.61664 5.89187 6.72694 5.84217C6.83725 5.79248 6.95482 5.76763 7.07967 5.76763C7.21422 5.76763 7.33785 5.79429 7.45058 5.84763C7.56452 5.90096 7.66209 5.97551 7.74331 6.07126C7.82573 6.16702 7.88755 6.27914 7.92876 6.40763C7.97119 6.53611 7.98876 6.6749 7.98149 6.82399H6.43967C6.45422 6.93914 6.49058 7.04217 6.54876 7.13308C6.60815 7.22399 6.68331 7.29611 6.77422 7.34945C6.86634 7.40157 6.96815 7.42823 7.07967 7.42945C7.20088 7.42945 7.30997 7.39793 7.40694 7.3349C7.50512 7.27187 7.58391 7.1852 7.64331 7.0749L7.90149 7.1349C7.82876 7.29611 7.71906 7.42823 7.5724 7.53126C7.42573 7.63308 7.26149 7.68399 7.07967 7.68399ZM6.4324 6.61854H7.72512C7.71664 6.50581 7.68209 6.40278 7.62149 6.30945C7.56209 6.2149 7.48512 6.13975 7.39058 6.08399C7.29603 6.02702 7.1924 5.99854 7.07967 5.99854C6.96694 5.99854 6.86391 6.02642 6.77058 6.08217C6.67725 6.13672 6.60088 6.21126 6.54149 6.30581C6.48209 6.39914 6.44573 6.50339 6.4324 6.61854ZM9.01322 7.63672H8.7514L8.14231 5.81854H8.3914L8.88595 7.28399L9.37686 5.81854H9.64595L10.1369 7.28399L10.6278 5.81854H10.8787L10.2696 7.63672H10.0059L9.50777 6.15672L9.01322 7.63672ZM12.1523 7.63672V5.81854H12.4068V6.06945C12.4723 5.97732 12.5559 5.90399 12.6577 5.84945C12.7595 5.7949 12.871 5.76763 12.9923 5.76763C13.1292 5.76763 13.2547 5.80157 13.3686 5.86945C13.4826 5.93611 13.5716 6.0252 13.6359 6.13672C13.7001 6.0252 13.7886 5.93611 13.9013 5.86945C14.0141 5.80157 14.1389 5.76763 14.2759 5.76763C14.4129 5.76763 14.5377 5.80096 14.6504 5.86763C14.7632 5.93429 14.8529 6.02399 14.9195 6.13672C14.9862 6.24945 15.0195 6.37429 15.0195 6.51126V7.63672H14.765V6.56763C14.765 6.47066 14.7413 6.38096 14.6941 6.29854C14.6468 6.21611 14.5832 6.15005 14.5032 6.10036C14.4244 6.04945 14.3365 6.02399 14.2395 6.02399C14.1426 6.02399 14.0541 6.04763 13.9741 6.0949C13.8953 6.14096 13.8323 6.2052 13.785 6.28763C13.7377 6.36884 13.7141 6.46217 13.7141 6.56763V7.63672H13.4595V6.56763C13.4595 6.46217 13.4359 6.36884 13.3886 6.28763C13.3413 6.2052 13.2777 6.14096 13.1977 6.0949C13.1177 6.04763 13.0292 6.02399 12.9323 6.02399C12.8365 6.02399 12.7486 6.04945 12.6686 6.10036C12.5886 6.15005 12.525 6.21611 12.4777 6.29854C12.4304 6.38096 12.4068 6.47066 12.4068 6.56763V7.63672H12.1523ZM16.1846 7.68399C16.0174 7.68399 15.8646 7.64096 15.7265 7.5549C15.5895 7.46884 15.4798 7.35369 15.3974 7.20945C15.3162 7.06399 15.2756 6.90339 15.2756 6.72763C15.2756 6.59429 15.2992 6.47005 15.3465 6.3549C15.3937 6.23854 15.4586 6.13672 15.541 6.04945C15.6246 5.96096 15.7216 5.89187 15.8319 5.84217C15.9422 5.79248 16.0598 5.76763 16.1846 5.76763C16.3192 5.76763 16.4428 5.79429 16.5556 5.84763C16.6695 5.90096 16.7671 5.97551 16.8483 6.07126C16.9307 6.16702 16.9925 6.27914 17.0337 6.40763C17.0762 6.53611 17.0937 6.6749 17.0865 6.82399H15.5446C15.5592 6.93914 15.5956 7.04217 15.6537 7.13308C15.7131 7.22399 15.7883 7.29611 15.8792 7.34945C15.9713 7.40157 16.0731 7.42823 16.1846 7.42945C16.3059 7.42945 16.4149 7.39793 16.5119 7.3349C16.6101 7.27187 16.6889 7.1852 16.7483 7.0749L17.0065 7.1349C16.9337 7.29611 16.824 7.42823 16.6774 7.53126C16.5307 7.63308 16.3665 7.68399 16.1846 7.68399ZM15.5374 6.61854H16.8301C16.8216 6.50581 16.7871 6.40278 16.7265 6.30945C16.6671 6.2149 16.5901 6.13975 16.4956 6.08399C16.401 6.02702 16.2974 5.99854 16.1846 5.99854C16.0719 5.99854 15.9689 6.02642 15.8756 6.08217C15.7822 6.13672 15.7059 6.21126 15.6465 6.30581C15.5871 6.39914 15.5507 6.50339 15.5374 6.61854ZM17.9999 7.67126C17.9005 7.66884 17.8035 7.65066 17.709 7.61672C17.6144 7.58278 17.532 7.53672 17.4617 7.47854C17.3914 7.42036 17.3411 7.35429 17.3108 7.28036L17.5308 7.18581C17.5502 7.23308 17.5859 7.27672 17.6381 7.31672C17.6914 7.35551 17.752 7.38702 17.8199 7.41126C17.8877 7.43429 17.955 7.44581 18.0217 7.44581C18.0956 7.44581 18.1647 7.43369 18.229 7.40945C18.2932 7.3852 18.3453 7.35066 18.3853 7.30581C18.4265 7.25975 18.4471 7.20581 18.4471 7.14399C18.4471 7.07732 18.4253 7.0252 18.3817 6.98763C18.3381 6.94884 18.2829 6.91854 18.2162 6.89672C18.1496 6.87369 18.0811 6.85187 18.0108 6.83126C17.8823 6.79611 17.769 6.75732 17.6708 6.7149C17.5726 6.67248 17.4956 6.61854 17.4399 6.55308C17.3853 6.48642 17.3581 6.40096 17.3581 6.29672C17.3581 6.18642 17.389 6.09126 17.4508 6.01126C17.5138 5.93005 17.5956 5.86763 17.6962 5.82399C17.7981 5.77914 17.9065 5.75672 18.0217 5.75672C18.1696 5.75672 18.3041 5.78884 18.4253 5.85308C18.5477 5.91732 18.6362 6.00278 18.6908 6.10945L18.4853 6.23126C18.4635 6.18157 18.429 6.13854 18.3817 6.10217C18.3344 6.06581 18.2805 6.03732 18.2199 6.01672C18.1605 5.99611 18.0999 5.9852 18.0381 5.98399C17.9605 5.98278 17.8884 5.99429 17.8217 6.01854C17.755 6.04157 17.7011 6.07611 17.6599 6.12217C17.6199 6.16823 17.5999 6.2246 17.5999 6.29126C17.5999 6.35793 17.6199 6.40884 17.6599 6.44399C17.6999 6.47793 17.7538 6.50581 17.8217 6.52763C17.8908 6.54823 17.9684 6.57248 18.0544 6.60035C18.1647 6.63551 18.2684 6.67551 18.3653 6.72036C18.4623 6.7652 18.5405 6.82096 18.5999 6.88763C18.6593 6.95429 18.6884 7.03854 18.6871 7.14036C18.6871 7.24945 18.6544 7.3446 18.589 7.42581C18.5235 7.50702 18.4387 7.56945 18.3344 7.61308C18.2302 7.65551 18.1187 7.6749 17.9999 7.67126ZM19.5987 7.67126C19.4993 7.66884 19.4024 7.65066 19.3078 7.61672C19.2133 7.58278 19.1309 7.53672 19.0606 7.47854C18.9902 7.42036 18.9399 7.35429 18.9096 7.28036L19.1296 7.18581C19.149 7.23308 19.1848 7.27672 19.2369 7.31672C19.2902 7.35551 19.3509 7.38702 19.4187 7.41126C19.4866 7.43429 19.5539 7.44581 19.6206 7.44581C19.6945 7.44581 19.7636 7.43369 19.8278 7.40945C19.8921 7.3852 19.9442 7.35066 19.9842 7.30581C20.0254 7.25975 20.046 7.20581 20.046 7.14399C20.046 7.07732 20.0242 7.0252 19.9806 6.98763C19.9369 6.94884 19.8818 6.91854 19.8151 6.89672C19.7484 6.87369 19.6799 6.85187 19.6096 6.83126C19.4812 6.79611 19.3678 6.75732 19.2696 6.7149C19.1715 6.67248 19.0945 6.61854 19.0387 6.55308C18.9842 6.48642 18.9569 6.40096 18.9569 6.29672C18.9569 6.18642 18.9878 6.09126 19.0496 6.01126C19.1127 5.93005 19.1945 5.86763 19.2951 5.82399C19.3969 5.77914 19.5054 5.75672 19.6206 5.75672C19.7684 5.75672 19.903 5.78884 20.0242 5.85308C20.1466 5.91732 20.2351 6.00278 20.2896 6.10945L20.0842 6.23126C20.0624 6.18157 20.0278 6.13854 19.9806 6.10217C19.9333 6.06581 19.8793 6.03732 19.8187 6.01672C19.7593 5.99611 19.6987 5.9852 19.6369 5.98399C19.5593 5.98278 19.4872 5.99429 19.4206 6.01854C19.3539 6.04157 19.2999 6.07611 19.2587 6.12217C19.2187 6.16823 19.1987 6.2246 19.1987 6.29126C19.1987 6.35793 19.2187 6.40884 19.2587 6.44399C19.2987 6.47793 19.3527 6.50581 19.4206 6.52763C19.4896 6.54823 19.5672 6.57248 19.6533 6.60035C19.7636 6.63551 19.8672 6.67551 19.9642 6.72036C20.0612 6.7652 20.1393 6.82096 20.1987 6.88763C20.2581 6.95429 20.2872 7.03854 20.286 7.14036C20.286 7.24945 20.2533 7.3446 20.1878 7.42581C20.1224 7.50702 20.0375 7.56945 19.9333 7.61308C19.829 7.65551 19.7175 7.6749 19.5987 7.67126ZM22.1161 5.81854H22.3707V7.63672H22.1161L22.107 7.29854C22.0476 7.41369 21.9646 7.50702 21.8579 7.57854C21.7513 7.64884 21.624 7.68399 21.4761 7.68399C21.3428 7.68399 21.2179 7.65914 21.1016 7.60945C20.9852 7.55854 20.8828 7.48884 20.7943 7.40036C20.7058 7.31187 20.6367 7.20945 20.587 7.09308C20.5373 6.97672 20.5125 6.85187 20.5125 6.71854C20.5125 6.58763 20.5367 6.4646 20.5852 6.34945C20.6349 6.23429 20.7028 6.13308 20.7888 6.04581C20.8761 5.95854 20.9767 5.89066 21.0907 5.84217C21.2058 5.79248 21.3288 5.76763 21.4598 5.76763C21.6113 5.76763 21.7434 5.80399 21.8561 5.87672C21.9688 5.94823 22.0585 6.04217 22.1252 6.15854L22.1161 5.81854ZM21.4707 7.43672C21.6004 7.43672 21.7119 7.4052 21.8052 7.34217C21.8985 7.27793 21.9701 7.19187 22.0198 7.08399C22.0707 6.97611 22.0961 6.85732 22.0961 6.72763C22.0961 6.59429 22.0707 6.47429 22.0198 6.36763C21.9688 6.25975 21.8967 6.17429 21.8034 6.11126C21.7101 6.04823 21.5991 6.01672 21.4707 6.01672C21.3422 6.01672 21.2246 6.04884 21.1179 6.11308C21.0125 6.17611 20.9282 6.26157 20.8652 6.36945C20.8034 6.47732 20.7725 6.59672 20.7725 6.72763C20.7725 6.85975 20.8046 6.97975 20.8688 7.08763C20.9331 7.19429 21.0179 7.27914 21.1234 7.34217C21.2301 7.4052 21.3458 7.43672 21.4707 7.43672ZM24.1808 5.81854H24.4354V7.70399C24.4354 7.82036 24.4099 7.92945 24.359 8.03126C24.3093 8.13308 24.2414 8.22217 24.1554 8.29854C24.0705 8.37611 23.9735 8.43672 23.8644 8.48036C23.7554 8.52399 23.642 8.54581 23.5244 8.54581C23.3984 8.54581 23.2766 8.51672 23.159 8.45854C23.0414 8.40157 22.939 8.3252 22.8517 8.22945C22.7657 8.13369 22.7044 8.02763 22.6681 7.91126L22.9026 7.80399C22.9257 7.8949 22.9687 7.97672 23.0317 8.04945C23.096 8.12339 23.1711 8.18157 23.2572 8.22399C23.3444 8.26763 23.4335 8.28945 23.5244 8.28945C23.6081 8.28945 23.6887 8.27369 23.7663 8.24217C23.845 8.21187 23.9154 8.17005 23.9772 8.11672C24.0402 8.06339 24.0899 8.00096 24.1263 7.92945C24.1626 7.85914 24.1808 7.78399 24.1808 7.70399V7.30217C24.1178 7.41611 24.0323 7.50823 23.9244 7.57854C23.8178 7.64884 23.6935 7.68399 23.5517 7.68399C23.4244 7.68399 23.3044 7.65914 23.1917 7.60945C23.0802 7.55975 22.982 7.49126 22.8972 7.40399C22.8123 7.31551 22.7457 7.21369 22.6972 7.09854C22.6499 6.98339 22.6263 6.85975 22.6263 6.72763C22.6263 6.59551 22.6499 6.47187 22.6972 6.35672C22.7457 6.24036 22.8123 6.13854 22.8972 6.05126C22.982 5.96278 23.0802 5.89369 23.1917 5.84399C23.3044 5.79429 23.4244 5.76945 23.5517 5.76945C23.6935 5.76945 23.8178 5.8046 23.9244 5.8749C24.0323 5.94399 24.1178 6.03611 24.1808 6.15126V5.81854ZM23.5535 7.43672C23.6796 7.43672 23.7881 7.40399 23.879 7.33854C23.9711 7.27308 24.042 7.18642 24.0917 7.07854C24.1414 6.97066 24.1663 6.85369 24.1663 6.72763C24.1663 6.59793 24.1408 6.47975 24.0899 6.37308C24.0402 6.2652 23.9693 6.17914 23.8772 6.1149C23.785 6.04945 23.6772 6.01672 23.5535 6.01672C23.4299 6.01672 23.3172 6.04884 23.2154 6.11308C23.1147 6.17611 23.0347 6.26157 22.9754 6.36945C22.916 6.47732 22.8863 6.59672 22.8863 6.72763C22.8863 6.85854 22.9166 6.97793 22.9772 7.08581C23.0378 7.19248 23.1184 7.27793 23.219 7.34217C23.3208 7.4052 23.4323 7.43672 23.5535 7.43672ZM25.6917 7.68399C25.5245 7.68399 25.3717 7.64096 25.2336 7.5549C25.0966 7.46884 24.9869 7.35369 24.9045 7.20945C24.8233 7.06399 24.7827 6.90339 24.7827 6.72763C24.7827 6.59429 24.8063 6.47005 24.8536 6.3549C24.9008 6.23854 24.9657 6.13672 25.0481 6.04945C25.1317 5.96096 25.2287 5.89187 25.339 5.84217C25.4493 5.79248 25.5669 5.76763 25.6917 5.76763C25.8263 5.76763 25.9499 5.79429 26.0627 5.84763C26.1766 5.90096 26.2742 5.97551 26.3554 6.07126C26.4378 6.16702 26.4996 6.27914 26.5408 6.40763C26.5833 6.53611 26.6008 6.6749 26.5936 6.82399H25.0517C25.0663 6.93914 25.1027 7.04217 25.1608 7.13308C25.2202 7.22399 25.2954 7.29611 25.3863 7.34945C25.4784 7.40157 25.5802 7.42823 25.6917 7.42945C25.813 7.42945 25.922 7.39793 26.019 7.3349C26.1172 7.27187 26.196 7.1852 26.2554 7.0749L26.5136 7.1349C26.4408 7.29611 26.3311 7.42823 26.1845 7.53126C26.0378 7.63308 25.8736 7.68399 25.6917 7.68399ZM25.0445 6.61854H26.3372C26.3287 6.50581 26.2942 6.40278 26.2336 6.30945C26.1742 6.2149 26.0972 6.13975 26.0027 6.08399C25.9081 6.02702 25.8045 5.99854 25.6917 5.99854C25.579 5.99854 25.476 6.02642 25.3827 6.08217C25.2893 6.13672 25.213 6.21126 25.1536 6.30581C25.0942 6.39914 25.0578 6.50339 25.0445 6.61854Z" fill="white" fill-opacity="0.7"/>
<rect width="17.0909" height="5.81818" transform="translate(40.7275 3.72754)" fill="#FF4733"/>
<path d="M46.2482 7.67808C46.1283 7.67808 46.0127 7.65952 45.9014 7.6224C45.79 7.58422 45.6924 7.53013 45.6086 7.46013C45.5259 7.39013 45.467 7.30687 45.432 7.21036L45.6818 7.11649C45.703 7.17589 45.7423 7.22786 45.7995 7.2724C45.8579 7.31589 45.9263 7.34982 46.0048 7.37422C46.0833 7.39861 46.1644 7.41081 46.2482 7.41081C46.3436 7.41081 46.4322 7.39543 46.5139 7.36467C46.5966 7.33286 46.6634 7.28884 46.7143 7.23263C46.7652 7.17642 46.7907 7.11066 46.7907 7.03536C46.7907 6.95793 46.7642 6.89482 46.7111 6.84604C46.6581 6.79619 46.5902 6.75695 46.5075 6.72831C46.4248 6.69861 46.3383 6.67581 46.2482 6.6599C46.0944 6.63445 45.9565 6.59839 45.8345 6.55172C45.7136 6.50399 45.6176 6.4377 45.5466 6.35286C45.4766 6.26801 45.4416 6.15611 45.4416 6.01717C45.4416 5.88778 45.4787 5.77482 45.5529 5.67831C45.6283 5.58179 45.7274 5.50702 45.8504 5.45399C45.9735 5.40096 46.1061 5.37445 46.2482 5.37445C46.3659 5.37445 46.4799 5.39301 46.5902 5.43013C46.7016 5.46619 46.7997 5.51922 46.8845 5.58922C46.9694 5.65922 47.0304 5.7446 47.0675 5.84536L46.8145 5.93763C46.7933 5.87717 46.7536 5.8252 46.6952 5.78172C46.6379 5.73717 46.5701 5.70323 46.4916 5.6799C46.4142 5.65551 46.333 5.64331 46.2482 5.64331C46.1538 5.64225 46.0658 5.65763 45.9841 5.68945C45.9024 5.72126 45.8361 5.76528 45.7852 5.82149C45.7343 5.8777 45.7089 5.94293 45.7089 6.01717C45.7089 6.10626 45.7322 6.17467 45.7789 6.2224C45.8266 6.26907 45.8913 6.30407 45.9729 6.3274C46.0546 6.35073 46.1464 6.37142 46.2482 6.38945C46.3924 6.41384 46.5261 6.45255 46.6491 6.50558C46.7721 6.55755 46.8708 6.62702 46.945 6.71399C47.0203 6.80096 47.0579 6.90808 47.0579 7.03536C47.0579 7.16475 47.0203 7.2777 46.945 7.37422C46.8708 7.47073 46.7721 7.54551 46.6491 7.59854C46.5261 7.65157 46.3924 7.67808 46.2482 7.67808ZM48.1222 7.67808C47.9758 7.67808 47.8422 7.64043 47.7213 7.56513C47.6014 7.48982 47.5054 7.38907 47.4333 7.26286C47.3622 7.13558 47.3267 6.99505 47.3267 6.84126C47.3267 6.7246 47.3474 6.61589 47.3888 6.51513C47.4301 6.41331 47.4869 6.32422 47.559 6.24786C47.6322 6.17043 47.717 6.10998 47.8135 6.06649C47.91 6.02301 48.0129 6.00126 48.1222 6.00126C48.242 6.00126 48.3518 6.02566 48.4515 6.07445C48.5522 6.12217 48.6382 6.18899 48.7092 6.2749C48.7813 6.36081 48.8349 6.46051 48.8699 6.57399C48.906 6.68748 48.9192 6.80892 48.9097 6.93831H47.6115C47.6242 7.02846 47.6539 7.10907 47.7006 7.18013C47.7472 7.25013 47.8066 7.30581 47.8788 7.34717C47.9519 7.38854 48.0331 7.40975 48.1222 7.41081C48.2176 7.41081 48.3041 7.38642 48.3815 7.33763C48.4589 7.28778 48.5215 7.2199 48.5692 7.13399L48.8413 7.19763C48.7776 7.33869 48.6816 7.45429 48.5533 7.54445C48.425 7.63354 48.2813 7.67808 48.1222 7.67808ZM47.6035 6.72831H48.6408C48.6323 6.63922 48.6037 6.55808 48.5549 6.4849C48.5061 6.41066 48.4441 6.35126 48.3688 6.30672C48.2935 6.26217 48.2113 6.2399 48.1222 6.2399C48.0331 6.2399 47.9514 6.26164 47.8772 6.30513C47.8029 6.34861 47.7414 6.40748 47.6926 6.48172C47.6449 6.5549 47.6152 6.6371 47.6035 6.72831ZM50.6159 6.64717V7.63672H50.3487V6.70604C50.3487 6.62543 50.329 6.55225 50.2898 6.48649C50.2506 6.42073 50.1981 6.36876 50.1323 6.33058C50.0665 6.29134 49.9934 6.27172 49.9128 6.27172C49.8332 6.27172 49.76 6.29134 49.6932 6.33058C49.6275 6.36876 49.575 6.42073 49.5357 6.48649C49.4965 6.55225 49.4769 6.62543 49.4769 6.70604V7.63672H49.2096V6.04581H49.4769V6.24467C49.5331 6.17043 49.6041 6.11157 49.69 6.06808C49.7759 6.02354 49.8693 6.00126 49.97 6.00126C50.0888 6.00126 50.197 6.03043 50.2946 6.08876C50.3932 6.14604 50.4712 6.22346 50.5284 6.32104C50.5868 6.41861 50.6159 6.52732 50.6159 6.64717ZM52.2155 5.25035H52.4828V7.63672H52.2155V7.36626C52.1614 7.4596 52.0888 7.5349 51.9976 7.59217C51.9064 7.64945 51.7992 7.67808 51.6762 7.67808C51.5606 7.67808 51.4524 7.65634 51.3517 7.61286C51.2509 7.56937 51.1618 7.50945 51.0844 7.43308C51.008 7.35566 50.9481 7.26657 50.9046 7.16581C50.8611 7.06505 50.8394 6.95687 50.8394 6.84126C50.8394 6.72566 50.8611 6.61748 50.9046 6.51672C50.9481 6.4149 51.008 6.32581 51.0844 6.24945C51.1618 6.17202 51.2509 6.11157 51.3517 6.06808C51.4524 6.0246 51.5606 6.00285 51.6762 6.00285C51.7992 6.00285 51.9064 6.03149 51.9976 6.08876C52.0888 6.14604 52.1614 6.22134 52.2155 6.31467V5.25035ZM51.6794 7.41876C51.7844 7.41876 51.8751 7.39331 51.9514 7.3424C52.0289 7.29043 52.0883 7.22043 52.1296 7.1324C52.172 7.04437 52.1933 6.94732 52.1933 6.84126C52.1933 6.73308 52.172 6.63551 52.1296 6.54854C52.0872 6.46051 52.0273 6.39104 51.9498 6.34013C51.8735 6.28816 51.7833 6.26217 51.6794 6.26217C51.5744 6.26217 51.4789 6.28816 51.393 6.34013C51.3082 6.3921 51.2403 6.4621 51.1894 6.55013C51.1385 6.6371 51.113 6.73414 51.113 6.84126C51.113 6.94839 51.139 7.04596 51.191 7.13399C51.243 7.22096 51.3119 7.29043 51.3978 7.3424C51.4837 7.39331 51.5776 7.41876 51.6794 7.41876Z" fill="white"/>
<path d="M5.87118 13.1821V13.4366H4.99845V15.7275H4.7439V13.4366H3.87299V13.1821H5.87118ZM6.78848 15.7748C6.6212 15.7748 6.46848 15.7318 6.33029 15.6457C6.19333 15.5597 6.08363 15.4445 6.0012 15.3003C5.91999 15.1548 5.87939 14.9942 5.87939 14.8184C5.87939 14.6851 5.90302 14.5609 5.95029 14.4457C5.99757 14.3294 6.06242 14.2275 6.14484 14.1403C6.22848 14.0518 6.32545 13.9827 6.43575 13.933C6.54605 13.8833 6.66363 13.8584 6.78848 13.8584C6.95575 13.8584 7.10787 13.9015 7.24484 13.9875C7.38302 14.0736 7.49272 14.1894 7.57393 14.3348C7.65636 14.4803 7.69757 14.6415 7.69757 14.8184C7.69757 14.9506 7.67393 15.0742 7.62666 15.1894C7.57939 15.3045 7.51393 15.4063 7.43029 15.4948C7.34787 15.5821 7.25151 15.6506 7.1412 15.7003C7.03211 15.75 6.91454 15.7748 6.78848 15.7748ZM6.78848 15.5203C6.91211 15.5203 7.02302 15.4881 7.1212 15.4239C7.2206 15.3584 7.29878 15.2724 7.35575 15.1657C7.41393 15.0591 7.44302 14.9433 7.44302 14.8184C7.44302 14.6912 7.41393 14.5742 7.35575 14.4675C7.29757 14.3597 7.21878 14.2736 7.11939 14.2094C7.0212 14.1451 6.9109 14.113 6.78848 14.113C6.66484 14.113 6.55333 14.1457 6.45393 14.2112C6.35575 14.2754 6.27757 14.3609 6.21939 14.4675C6.16242 14.5742 6.13393 14.6912 6.13393 14.8184C6.13393 14.9494 6.16363 15.0681 6.22302 15.1748C6.28242 15.2803 6.36181 15.3645 6.4612 15.4275C6.5606 15.4894 6.66969 15.5203 6.78848 15.5203Z" fill="white" fill-opacity="0.7"/>
<rect width="21.8182" height="0.909091" transform="translate(14.1821 13.3643)" fill="#444444"/>
<rect width="43.6364" height="0.909091" transform="translate(14.1821 15.1826)" fill="#444444"/>
<path d="M4.83481 21.5932C4.69905 21.5932 4.56754 21.572 4.44027 21.5295C4.31421 21.4871 4.2039 21.4265 4.10936 21.3477C4.01481 21.2689 3.94815 21.175 3.90936 21.0659L4.14754 20.9768C4.17421 21.052 4.22269 21.1168 4.29299 21.1714C4.36451 21.2247 4.44754 21.2659 4.54208 21.295C4.63784 21.3241 4.73542 21.3386 4.83481 21.3386C4.95118 21.3386 5.05966 21.3192 5.16027 21.2804C5.26087 21.2417 5.34208 21.1877 5.4039 21.1186C5.46572 21.0483 5.49663 20.9659 5.49663 20.8714C5.49663 20.7756 5.46451 20.6968 5.40027 20.635C5.33602 20.5732 5.25299 20.5247 5.15118 20.4895C5.05057 20.4532 4.94511 20.4253 4.83481 20.4059C4.66148 20.3756 4.50572 20.3344 4.36754 20.2823C4.23057 20.2301 4.12208 20.1568 4.04208 20.0623C3.96208 19.9665 3.92208 19.8404 3.92208 19.6841C3.92208 19.5374 3.96451 19.4101 4.04936 19.3023C4.13421 19.1944 4.24572 19.1107 4.3839 19.0514C4.5233 18.992 4.6736 18.9623 4.83481 18.9623C4.96693 18.9623 5.09602 18.9829 5.22208 19.0241C5.34815 19.0653 5.45905 19.1253 5.55481 19.2041C5.65178 19.2829 5.72148 19.3792 5.7639 19.4932L5.52208 19.5804C5.49542 19.5041 5.44633 19.4392 5.37481 19.3859C5.30451 19.3314 5.22208 19.2901 5.12754 19.2623C5.03299 19.2332 4.93542 19.2186 4.83481 19.2186C4.71966 19.2174 4.61178 19.2368 4.51118 19.2768C4.41178 19.3156 4.33118 19.3701 4.26936 19.4404C4.20754 19.5095 4.17663 19.5907 4.17663 19.6841C4.17663 19.7932 4.20511 19.8774 4.26208 19.9368C4.32027 19.995 4.39905 20.0386 4.49845 20.0677C4.59784 20.0968 4.70996 20.1229 4.83481 20.1459C4.99724 20.1738 5.14815 20.2174 5.28754 20.2768C5.42693 20.335 5.53905 20.4132 5.6239 20.5114C5.70875 20.6083 5.75118 20.7283 5.75118 20.8714C5.75118 21.0168 5.70875 21.1441 5.6239 21.2532C5.53905 21.361 5.42693 21.4447 5.28754 21.5041C5.14936 21.5635 4.99845 21.5932 4.83481 21.5932ZM6.11106 20.8495V19.7277H6.36561V20.7986C6.36561 20.898 6.38985 20.9883 6.43833 21.0695C6.48682 21.1507 6.55167 21.2156 6.63288 21.2641C6.7153 21.3126 6.80561 21.3368 6.90379 21.3368C7.00318 21.3368 7.09288 21.3126 7.17288 21.2641C7.25409 21.2156 7.31894 21.1507 7.36743 21.0695C7.41591 20.9883 7.44015 20.898 7.44015 20.7986V19.7277H7.6947L7.69652 21.5459H7.44197L7.44015 21.2914C7.37591 21.3835 7.29227 21.4568 7.18924 21.5114C7.08743 21.5659 6.97591 21.5932 6.8547 21.5932C6.71773 21.5932 6.59288 21.5598 6.48015 21.4932C6.36743 21.4265 6.27773 21.3368 6.21106 21.2241C6.1444 21.1114 6.11106 20.9865 6.11106 20.8495ZM9.02183 19.6768C9.1988 19.6768 9.3594 19.7198 9.50365 19.8059C9.6491 19.892 9.76486 20.0077 9.85092 20.1532C9.93698 20.2974 9.98001 20.458 9.98001 20.635C9.98001 20.7671 9.95516 20.8914 9.90547 21.0077C9.85577 21.1229 9.78668 21.2247 9.69819 21.3132C9.61092 21.4004 9.5091 21.4689 9.39274 21.5186C9.27759 21.5683 9.15395 21.5932 9.02183 21.5932C8.87153 21.5932 8.74183 21.5574 8.63274 21.4859C8.52365 21.4144 8.43759 21.321 8.37456 21.2059V21.5459H8.12001V18.8186H8.37456V20.0641C8.43759 19.9489 8.52365 19.8556 8.63274 19.7841C8.74183 19.7126 8.87153 19.6768 9.02183 19.6768ZM9.02001 21.3441C9.14971 21.3441 9.26728 21.3126 9.37274 21.2495C9.47819 21.1853 9.56243 21.0992 9.62547 20.9914C9.6885 20.8835 9.72001 20.7647 9.72001 20.635C9.72001 20.5017 9.68789 20.3817 9.62365 20.275C9.5594 20.1671 9.47395 20.0817 9.36728 20.0186C9.26183 19.9556 9.14607 19.9241 9.02001 19.9241C8.89153 19.9241 8.78001 19.9562 8.68547 20.0204C8.59213 20.0847 8.52001 20.1707 8.4691 20.2786C8.4194 20.3865 8.39456 20.5053 8.39456 20.635C8.39456 20.7671 8.42001 20.8871 8.47092 20.995C8.52183 21.1017 8.59395 21.1865 8.68728 21.2495C8.78183 21.3126 8.89274 21.3441 9.02001 21.3441ZM9.94473 22.455V22.2004C10.0356 22.2004 10.1168 22.1804 10.1884 22.1404C10.2599 22.1004 10.3162 22.0453 10.3575 21.975C10.3987 21.9059 10.4193 21.8283 10.4193 21.7423V19.7277H10.6738V21.7423C10.6738 21.8732 10.6417 21.9926 10.5775 22.1004C10.5144 22.2083 10.4278 22.2944 10.3175 22.3586C10.2084 22.4229 10.0841 22.455 9.94473 22.455ZM10.5484 19.4095C10.5072 19.4095 10.472 19.3962 10.4429 19.3695C10.415 19.3417 10.4011 19.3071 10.4011 19.2659C10.4011 19.2247 10.415 19.1907 10.4429 19.1641C10.472 19.1362 10.5072 19.1223 10.5484 19.1223C10.5884 19.1223 10.6223 19.1362 10.6502 19.1641C10.6793 19.1907 10.6938 19.2247 10.6938 19.2659C10.6938 19.3071 10.6799 19.3417 10.652 19.3695C10.6241 19.3962 10.5896 19.4095 10.5484 19.4095ZM11.9295 21.5932C11.7623 21.5932 11.6095 21.5501 11.4713 21.4641C11.3344 21.378 11.2247 21.2629 11.1423 21.1186C11.061 20.9732 11.0204 20.8126 11.0204 20.6368C11.0204 20.5035 11.0441 20.3792 11.0913 20.2641C11.1386 20.1477 11.2035 20.0459 11.2859 19.9586C11.3695 19.8701 11.4665 19.801 11.5768 19.7514C11.6871 19.7017 11.8047 19.6768 11.9295 19.6768C12.0641 19.6768 12.1877 19.7035 12.3004 19.7568C12.4144 19.8101 12.512 19.8847 12.5932 19.9804C12.6756 20.0762 12.7374 20.1883 12.7786 20.3168C12.821 20.4453 12.8386 20.5841 12.8313 20.7332H11.2895C11.3041 20.8483 11.3404 20.9514 11.3986 21.0423C11.458 21.1332 11.5332 21.2053 11.6241 21.2586C11.7162 21.3107 11.818 21.3374 11.9295 21.3386C12.0507 21.3386 12.1598 21.3071 12.2568 21.2441C12.355 21.181 12.4338 21.0944 12.4932 20.9841L12.7513 21.0441C12.6786 21.2053 12.5689 21.3374 12.4223 21.4404C12.2756 21.5423 12.1113 21.5932 11.9295 21.5932ZM11.2823 20.5277H12.575C12.5665 20.415 12.532 20.312 12.4713 20.2186C12.412 20.1241 12.335 20.0489 12.2404 19.9932C12.1459 19.9362 12.0423 19.9077 11.9295 19.9077C11.8168 19.9077 11.7138 19.9356 11.6204 19.9914C11.5271 20.0459 11.4507 20.1204 11.3913 20.215C11.332 20.3083 11.2956 20.4126 11.2823 20.5277ZM14.4598 21.0895L14.6871 21.2132C14.6047 21.3283 14.4998 21.4204 14.3725 21.4895C14.2465 21.5586 14.1095 21.5932 13.9616 21.5932C13.7944 21.5932 13.6416 21.5501 13.5034 21.4641C13.3665 21.378 13.2568 21.2629 13.1744 21.1186C13.0931 20.9732 13.0525 20.8126 13.0525 20.6368C13.0525 20.5035 13.0762 20.3792 13.1234 20.2641C13.1707 20.1477 13.2356 20.0459 13.318 19.9586C13.4016 19.8701 13.4986 19.801 13.6089 19.7514C13.7192 19.7017 13.8368 19.6768 13.9616 19.6768C14.1095 19.6768 14.2465 19.7114 14.3725 19.7804C14.4998 19.8495 14.6047 19.9423 14.6871 20.0586L14.4598 20.1804C14.3968 20.1004 14.321 20.0392 14.2325 19.9968C14.1441 19.9532 14.0538 19.9314 13.9616 19.9314C13.8392 19.9314 13.7283 19.9641 13.6289 20.0295C13.5295 20.0938 13.4507 20.1792 13.3925 20.2859C13.3356 20.3926 13.3071 20.5095 13.3071 20.6368C13.3071 20.7641 13.3362 20.881 13.3944 20.9877C13.4538 21.0944 13.5331 21.1798 13.6325 21.2441C13.7319 21.3071 13.8416 21.3386 13.9616 21.3386C14.061 21.3386 14.1544 21.3156 14.2416 21.2695C14.3289 21.2235 14.4016 21.1635 14.4598 21.0895ZM15.9808 19.9823H15.5462L15.5444 21.5459H15.2899L15.2917 19.9823H14.9626V19.7277H15.2917L15.2899 19.1568H15.5444L15.5462 19.7277H15.9808V19.9823Z" fill="white" fill-opacity="0.7"/>
<rect width="35.6364" height="0.909091" transform="translate(22.1821 19.1826)" fill="#444444"/>
<rect width="21.8182" height="0.909091" transform="translate(22.1821 21.001)" fill="#444444"/>
</svg>
