<svg width="27" height="28" viewBox="0 0 27 28" fill="none" xmlns="http://www.w3.org/2000/svg">
<rect width="25" height="28" transform="translate(1)" fill="#202020" fill-opacity="0.5"/>
<path d="M1 2V0H3" stroke="white" stroke-width="0.2"/>
<path d="M24 0H26V2" stroke="white" stroke-width="0.2"/>
<path d="M24 28H26V26" stroke="white" stroke-width="0.2"/>
<path d="M3 28H1V26" stroke="white" stroke-width="0.2"/>
<g clip-path="url(#clip0_542_2745)">
<path d="M11.73 11.9447H10.2653V11.8372C10.722 11.804 10.7386 11.7925 10.7386 11.2002V6.82888C10.7386 6.46301 10.603 6.42335 10.209 6.42335V6.31589C10.6491 6.31589 10.9075 6.18669 11.2119 5.92188L11.2567 5.95002V11.2002C11.2567 11.7912 11.3296 11.7976 11.73 11.8372V11.9447Z" fill="#FF4733"/>
<path d="M13.1544 12.9574H11.7395V12.85C12.1399 12.8167 12.1566 12.8052 12.1566 12.2129V9.72341C12.1566 9.35754 12.021 9.31788 11.627 9.31788V9.21042C12.067 9.21042 12.3254 9.08122 12.6299 8.81641L12.6747 8.84455V9.34603C12.9958 9.06459 13.2772 8.84455 13.5932 8.84455C14.174 8.84455 14.5846 9.40743 14.5846 10.2876C14.5846 11.3072 13.9706 12.0005 13.3002 12.0005C13.0073 12.0005 12.8269 11.8649 12.6747 11.7869V12.2154C12.6747 12.8065 12.6977 12.8129 13.1531 12.8525V12.96L13.1544 12.9574ZM14.0102 10.5511C14.0102 9.58781 13.7685 9.14262 13.3617 9.14262C12.9049 9.14262 12.6747 9.65561 12.6747 10.1008V11.2048C12.7425 11.5937 13.0239 11.8585 13.345 11.8585C13.7621 11.8585 14.0102 11.4185 14.0102 10.5511Z" fill="#FF4733"/>
<path d="M15.8989 11.9445H14.484V11.8371C14.9407 11.8038 14.9574 11.7923 14.9574 11.2V8.29861C14.9574 7.93274 14.8218 7.89308 14.4277 7.89308V7.78562C14.8678 7.78562 15.1262 7.65641 15.4307 7.3916L15.4755 7.41975V9.3361C15.9539 8.98686 16.1458 8.84614 16.4618 8.84614C16.9236 8.84614 17.1206 9.15572 17.1206 9.79792V11.2013C17.1206 11.7923 17.1436 11.7987 17.5991 11.8384V11.9458H16.1842V11.8384C16.5846 11.8051 16.6012 11.7936 16.6012 11.2013V10.0627C16.6012 9.3297 16.3415 9.16084 16.0997 9.16084C15.8068 9.16084 15.4742 9.46531 15.4742 9.98853V11.2C15.4742 11.791 15.4972 11.7974 15.8963 11.8371V11.9445H15.8989Z" fill="#FF4733"/>
<path d="M19.0607 11.9451V11.6189C18.8125 11.8108 18.5195 12.0027 18.2048 12.0027C17.7712 12.0027 17.6074 11.6585 17.6074 11.372C17.6074 11.0278 17.8275 10.859 18.4351 10.6569L19.0607 10.4483V9.8394C19.0607 9.25861 18.9315 9.00531 18.6206 9.00531C18.0577 9.00531 18.485 9.77671 17.9784 9.77671C17.7648 9.77671 17.6906 9.64751 17.6906 9.52853C17.6906 9.19592 18.2995 8.84668 18.8291 8.84668C19.3587 8.84668 19.5788 9.14475 19.5788 9.68588V11.2018C19.5788 11.7929 19.6018 11.7992 20.0009 11.8389V11.9464H19.0594L19.0607 11.9451ZM19.0607 11.2018V10.6441L18.6385 10.7797C18.2496 10.9089 18.137 11.0841 18.137 11.3093C18.137 11.5063 18.2381 11.7033 18.4748 11.7033C18.6833 11.7033 19.0159 11.5677 19.0607 11.2018Z" fill="#FF4733"/>
<path d="M8.15007 16.9826H7V16.8751C7.40041 16.8418 7.47333 16.751 7.47333 16.3506V13.6513C7.47333 13.155 7.29295 12.9528 7 12.9183V12.8108H7.82769L9.85023 15.9041V13.5541C9.85023 13.1038 9.73765 12.9452 9.37689 12.917V12.8096H10.527V12.917C10.1662 12.9503 10.0485 13.1089 10.0485 13.5541V16.98H9.85151V16.9685L7.67034 13.6424V16.3532C7.67034 16.7536 7.74966 16.838 8.14879 16.8777V16.9851L8.15007 16.9826Z" fill="#FF4733"/>
<path d="M10.5605 15.5344C10.5605 14.5992 11.0224 13.8828 11.7835 13.8828C12.2338 13.8828 12.7532 14.1476 12.7532 15.0431L11.1132 15.212C11.1183 16.0064 11.4228 16.7164 11.9639 16.7164C12.2338 16.7164 12.5268 16.5411 12.7635 16.2942L12.8313 16.3838C12.5895 16.6768 12.2287 17.0375 11.7157 17.0375C11.1017 17.0375 10.5605 16.5309 10.5605 15.5331V15.5344ZM11.1234 14.9484H12.2159C12.1827 14.1374 11.8782 14.0466 11.7093 14.0466C11.3652 14.0466 11.1682 14.4188 11.1234 14.9484Z" fill="#FF4733"/>
<path d="M15.6383 16.9822C15.4579 16.9707 15.2545 16.9592 15.0524 16.9592C14.8503 16.9592 14.6354 16.9707 14.4217 16.9822V16.8696C14.597 16.853 14.6814 16.8185 14.6814 16.7225C14.6814 16.6547 14.6366 16.5537 14.5522 16.4066L14.1352 15.685L13.8537 16.1814C13.69 16.4744 13.594 16.6381 13.594 16.734C13.594 16.83 13.6785 16.8581 13.8537 16.8748V16.9822C13.6848 16.9707 13.5096 16.9592 13.3471 16.9592C13.1847 16.9592 13.026 16.9707 12.8789 16.9822V16.8748C13.1834 16.8351 13.3241 16.7737 13.5211 16.4347L14.0558 15.5392L13.4584 14.503C13.278 14.187 13.1655 14.1371 12.9454 14.1026V13.9951C13.1309 14.0066 13.3343 14.0181 13.5429 14.0181C13.7514 14.0181 13.965 14.0066 14.1799 13.9951V14.1026C14.0162 14.1192 13.9433 14.1474 13.9433 14.2318C13.9433 14.3047 13.9944 14.4122 14.0904 14.581L14.4 15.1337L14.5919 14.7959C14.7492 14.5145 14.8285 14.3508 14.8285 14.2548C14.8285 14.1537 14.7441 14.1192 14.5919 14.1026V13.9951C14.7607 14.0066 14.936 14.0181 15.0984 14.0181C15.2609 14.0181 15.4195 14.0066 15.5603 13.9951V14.1026C15.1995 14.1422 15.1202 14.2036 14.9232 14.5426L14.4831 15.2859L15.1483 16.4692C15.3287 16.7903 15.4183 16.8351 15.6383 16.8696V16.9822Z" fill="#FF4733"/>
<path d="M17.1759 16.7075C17.0237 16.8879 16.7985 17.0401 16.4992 17.0401C16.1448 17.0401 15.8851 16.8201 15.8851 16.4261V14.172L15.541 14.1157V13.998C15.9632 13.998 16.251 13.7332 16.2958 13.3213H16.4032V13.9187L17.0902 13.998V14.1157L16.4032 14.1835V16.3468C16.4032 16.6679 16.5107 16.792 16.7128 16.792C16.8817 16.792 17.0109 16.7075 17.1132 16.6065L17.1747 16.7075H17.1759Z" fill="#FF4733"/>
<path d="M9.36868 22.0219H7.7504V21.9145C8.2749 21.8697 8.28514 21.8748 8.28514 21.39V17.9807H8.04847C7.59816 17.9807 7.39476 18.1381 7.12995 18.8826L7.00586 18.8545L7.16961 17.666L7.2937 17.6826C7.33847 17.8119 7.40627 17.8515 7.56362 17.8515H9.5529C9.71025 17.8515 9.77805 17.8119 9.82282 17.6826L9.94691 17.666L10.1107 18.8545L9.98657 18.8826C9.72176 18.1393 9.51836 17.9807 9.06805 17.9807H8.83139V21.39C8.83139 21.8748 8.8429 21.8684 9.36612 21.9145V22.0219H9.36868Z" fill="#FF4733"/>
<path d="M10.1797 20.5734C10.1797 19.6383 10.6415 18.9219 11.4027 18.9219C11.853 18.9219 12.3724 19.1867 12.3724 20.0822L10.7323 20.251C10.7375 21.0455 11.0419 21.7555 11.5831 21.7555C11.853 21.7555 12.1459 21.5802 12.3826 21.3333L12.4504 21.4229C12.2086 21.7158 11.8479 22.0766 11.3349 22.0766C10.7208 22.0766 10.1797 21.57 10.1797 20.5721V20.5734ZM10.7426 19.9875H11.8351C11.8018 19.1765 11.4973 19.0856 11.3285 19.0856C10.9844 19.0856 10.7873 19.4579 10.7426 19.9875Z" fill="#FF4733"/>
<path d="M13.1991 20.2303C13.1991 21.0298 13.5036 21.7577 14.0498 21.7577C14.3095 21.7577 14.6127 21.5825 14.8494 21.3356L14.9172 21.4251C14.6754 21.7181 14.3364 22.0788 13.8068 22.0788C13.1697 22.0788 12.6465 21.5607 12.6465 20.5744C12.6465 19.6392 13.0866 18.9229 14.0332 18.9229C14.5628 18.9229 14.8046 19.1365 14.8046 19.345C14.8046 19.4972 14.6972 19.661 14.5066 19.661C14.1407 19.661 14.2533 19.0866 13.8196 19.0866C13.4192 19.0866 13.1991 19.5714 13.1991 20.2303Z" fill="#FF4733"/>
<path d="M16.27 22.0217H14.8551V21.9142C15.3118 21.881 15.3284 21.8695 15.3284 21.2772V18.3758C15.3284 18.0099 15.1928 17.9702 14.7988 17.9702V17.8628C15.2389 17.8628 15.4973 17.7336 15.8018 17.4688L15.8466 17.4969V19.4132C16.325 19.064 16.5169 18.9233 16.8329 18.9233C17.2947 18.9233 17.4917 19.2329 17.4917 19.8751V21.2784C17.4917 21.8695 17.5147 21.8759 17.9702 21.9155V22.023H16.5553V21.9155C16.9557 21.8823 16.9723 21.8707 16.9723 21.2784V20.1399C16.9723 19.4069 16.7126 19.238 16.4708 19.238C16.1779 19.238 15.8453 19.5425 15.8453 20.0657V21.2772C15.8453 21.8682 15.8683 21.8746 16.2674 21.9142V22.0217H16.27Z" fill="#FF4733"/>
<path d="M8.11769 11.9451H7.01367V11.8377C7.3578 11.8095 7.48189 11.6803 7.63412 11.2006L8.75477 7.66211H8.90188L10.0008 11.3132C10.1479 11.7916 10.1479 11.798 10.5023 11.8377V11.9451H9.08738V11.8377C9.50954 11.8044 9.56071 11.7763 9.42511 11.3132L9.24473 10.6927H7.98336L7.83113 11.1993C7.69041 11.6611 7.73007 11.8018 8.11897 11.8364V11.9438L8.11769 11.9451ZM9.19995 10.5533L8.62556 8.58703L8.02814 10.5533H9.19995Z" fill="#FF4733"/>
<path d="M18.9555 21.3574H18.2852V22.0278H18.9555V21.3574Z" fill="#FF4733"/>
</g>
<defs>
<clipPath id="clip0_542_2745">
<rect width="13" height="16.156" fill="white" transform="translate(7 5.92188)"/>
</clipPath>
</defs>
</svg>
