<svg width="26" height="26" viewBox="0 0 26 26" fill="none" xmlns="http://www.w3.org/2000/svg">
<g clip-path="url(#clip0_542_2462)">
<path d="M11.3062 8.01662L9.58783 6.52257L5.66686 11.6991M15.9725 7.94818L13.1906 5.52875L9.60143 10.2671M20.6991 14.8273L21.3031 16.4866C21.3601 16.6421 21.386 16.8073 21.3792 16.9728C21.3724 17.1382 21.3331 17.3007 21.2635 17.451C21.1938 17.6013 21.0953 17.7364 20.9735 17.8485C20.8516 17.9607 20.7089 18.0478 20.5534 18.1048L9.40278 22.1633C9.08891 22.2782 8.74225 22.2638 8.43899 22.1233C8.13573 21.9827 7.90069 21.7275 7.78554 21.4137L4.84759 13.3417C4.79059 13.1863 4.76478 13.0211 4.77163 12.8556C4.77848 12.6901 4.81787 12.5276 4.88754 12.3774C4.95721 12.2271 5.05579 12.0921 5.17766 11.9799C5.29953 11.8678 5.4423 11.7808 5.59781 11.7238L16.7477 7.66562C16.9031 7.60862 17.0683 7.58281 17.2338 7.58966C17.3993 7.59652 17.5618 7.6359 17.712 7.70557C17.8623 7.77524 17.9973 7.87382 18.1094 7.99569C18.2216 8.11756 18.3086 8.26033 18.3656 8.41584L19.0587 10.3203M17.8149 13.3412C17.8726 13.4998 17.8819 13.6719 17.8418 13.8358C17.8017 13.9997 17.7139 14.148 17.5894 14.2619C17.465 14.3759 17.3096 14.4504 17.1428 14.476C16.976 14.5016 16.8054 14.4772 16.6525 14.4058C16.4997 14.3344 16.3714 14.2193 16.2839 14.075C16.1965 13.9307 16.1538 13.7637 16.1613 13.5951C16.1688 13.4266 16.2261 13.264 16.326 13.128C16.4259 12.992 16.5638 12.8887 16.7224 12.8312C17.1649 12.6701 17.6537 12.8984 17.8149 13.3412ZM17.6475 15.9757C16.3828 16.436 14.9984 15.8012 14.544 14.5526C14.0895 13.304 14.7417 11.9284 16.0072 11.4678L19.5669 10.1291C19.8206 10.0368 20.0983 10.1663 20.1904 10.4192L21.4986 14.0135C21.5908 14.2668 21.4613 14.5446 21.208 14.6368L17.6475 15.9757Z" stroke="#FF4733" stroke-width="0.8" stroke-linecap="round" stroke-linejoin="round"/>
</g>
<defs>
<clipPath id="clip0_542_2462">
<rect width="20" height="20" fill="white" transform="translate(0.139404 7.10645) rotate(-20)"/>
</clipPath>
</defs>
</svg>
