<svg width="21" height="32" viewBox="0 0 21 32" fill="none" xmlns="http://www.w3.org/2000/svg">
<g clip-path="url(#clip0_542_3135)">
<path d="M10.5 15.9997C10.5 13.0843 12.8266 10.7207 15.6966 10.7207C18.5665 10.7207 20.8931 13.0843 20.8931 15.9997C20.8931 18.9153 18.5665 21.2788 15.6966 21.2788C12.8266 21.2788 10.5 18.9153 10.5 15.9997Z" fill="#1ABCFE"/>
<path d="M0.106934 26.5583C0.106934 23.6429 2.43351 21.2793 5.30348 21.2793H10.5V26.5583C10.5 29.4739 8.17348 31.8374 5.30348 31.8374C2.43351 31.8374 0.106934 29.4739 0.106934 26.5583Z" fill="#0ACF83"/>
<path d="M10.5 0.163086V10.7211H15.6966C18.5666 10.7211 20.8931 8.35765 20.8931 5.44212C20.8931 2.52659 18.5666 0.163086 15.6966 0.163086H10.5Z" fill="#FF7262"/>
<path d="M0.106934 5.44212C0.106934 8.35765 2.43351 10.7211 5.30348 10.7211H10.5V0.163086H5.30348C2.43351 0.163086 0.106934 2.52659 0.106934 5.44212Z" fill="#F24E1E"/>
<path d="M0.106934 15.9997C0.106934 18.9153 2.43351 21.2788 5.30348 21.2788H10.5V10.7207H5.30348C2.43351 10.7207 0.106934 13.0843 0.106934 15.9997Z" fill="#A259FF"/>
</g>
<defs>
<clipPath id="clip0_542_3135">
<rect width="21" height="32" fill="white"/>
</clipPath>
</defs>
</svg>
