<svg width="56" height="56" viewBox="0 0 56 56" fill="none" xmlns="http://www.w3.org/2000/svg">
<path d="M27.9998 43.9999L34.4127 24.3057H21.5962L27.9998 43.9999Z" fill="#E24329"/>
<path d="M12.6129 24.3057L10.66 30.289C10.4833 30.8323 10.6742 31.432 11.1406 31.7707L27.999 43.9998L12.6129 24.3057Z" fill="#FCA326"/>
<path d="M12.6133 24.316H21.5957L17.7299 12.4551C17.5321 11.8483 16.6698 11.8483 16.4648 12.4551L12.6133 24.316Z" fill="#E24329"/>
<path d="M43.3938 24.3057L45.3397 30.289C45.5164 30.8323 45.3255 31.432 44.8591 31.7707L27.9983 43.9998L43.3938 24.3057Z" fill="#FCA326"/>
<path d="M43.3943 24.316H34.4119L38.2705 12.4551C38.4684 11.8483 39.3306 11.8483 39.5356 12.4551L43.3943 24.316Z" fill="#E24329"/>
<path d="M27.9983 43.9998L34.4113 24.3057H43.3938L27.9983 43.9998Z" fill="#FC6D26"/>
<path d="M27.9993 43.9998L12.6133 24.3057H21.5957L27.9993 43.9998Z" fill="#FC6D26"/>
</svg>
