<svg width="32" height="26" viewBox="0 0 32 26" fill="none" xmlns="http://www.w3.org/2000/svg">
<g clip-path="url(#clip0_542_2979)">
<path d="M20.304 7.38388H21.2805L24.0624 4.68321L24.1992 3.53732C19.0231 -0.897811 11.1213 -0.419921 6.55276 4.60508C5.28252 6.00099 4.36103 7.66123 3.85938 9.4582C4.16922 9.3345 4.5126 9.31497 4.83586 9.40091L10.3983 8.51024C10.3983 8.51024 10.6814 8.05579 10.8276 8.08443C13.3023 5.44627 17.4671 5.13897 20.3242 7.38388H20.304Z" fill="#EA4335"/>
<path d="M28.0261 9.45864C27.3863 7.17337 26.0745 5.11857 24.2489 3.54688L20.3457 7.33614C21.9942 8.6435 22.9331 10.6137 22.8929 12.6802V13.3534C24.8123 13.3534 26.3669 14.8639 26.3669 16.7259C26.3669 18.5893 24.8109 20.0985 22.8929 20.0985H15.9435L15.25 20.7808V24.8266L15.9435 25.4998H22.8929C26.8766 25.5298 30.411 23.0232 31.594 19.3303C32.7744 15.636 31.3258 11.6254 28.0261 9.45864Z" fill="#4285F4"/>
<path d="M8.98385 25.4622H15.9333V20.0622H8.98385C8.4889 20.0622 7.99932 19.9593 7.54863 19.7588L6.57215 20.0518L3.77146 22.7524L3.52734 23.7004C5.09803 24.8515 7.01479 25.47 8.98385 25.4622Z" fill="#34A853"/>
<path d="M8.9838 7.94243C5.12347 7.96457 1.70443 10.3644 0.47309 13.9154C-0.758247 17.4664 0.469066 21.3858 3.52863 23.6698L7.55931 19.7568C5.81023 18.9899 5.0336 16.9924 5.82364 15.2944C6.61368 13.5964 8.67127 12.8424 10.4204 13.6094C11.1903 13.9479 11.8073 14.5469 12.156 15.2944L16.1867 11.3814C14.4712 9.20552 11.806 7.93332 8.9838 7.94243Z" fill="#FBBC05"/>
</g>
<defs>
<clipPath id="clip0_542_2979">
<rect width="32" height="25" fill="white" transform="translate(0 0.5)"/>
</clipPath>
</defs>
</svg>
