<svg width="32" height="32" viewBox="0 0 32 32" fill="none" xmlns="http://www.w3.org/2000/svg">
<path d="M24.2186 10.5733V6.77863C24.7208 6.54382 25.1461 6.17139 25.4451 5.70456C25.7441 5.23774 25.9046 4.69567 25.9079 4.1413V4.05197C25.9058 3.277 25.5971 2.53436 25.0492 1.98624C24.5014 1.43813 23.7589 1.1291 22.9839 1.12663H22.8946C22.1198 1.12909 21.3775 1.43795 20.8297 1.98577C20.2819 2.5336 19.973 3.2759 19.9706 4.05063V4.13997C19.973 4.69112 20.131 5.23039 20.4263 5.69577C20.7216 6.16114 21.1423 6.53371 21.6399 6.77063L21.6572 6.77863V10.5813C20.2064 10.803 18.8403 11.4057 17.6986 12.328L17.7146 12.3146L7.27725 4.18797C7.47596 3.44351 7.41031 2.65317 7.09148 1.95171C6.77265 1.25025 6.22038 0.681088 5.52884 0.341271C4.8373 0.00145503 4.0493 -0.0879774 3.2992 0.0882221C2.54909 0.264422 1.88333 0.695343 1.41541 1.30752C0.947489 1.91969 0.706392 2.67521 0.733221 3.44526C0.760051 4.21532 1.05315 4.95223 1.56254 5.53035C2.07193 6.10847 2.76607 6.49201 3.52662 6.61558C4.28717 6.73915 5.06703 6.59509 5.73324 6.20797L5.71725 6.21597L15.9799 14.204C15.0727 15.5642 14.5909 17.1636 14.5959 18.7986C14.5959 20.5893 15.1626 22.2493 16.1252 23.608L16.1079 23.5813L12.9852 26.7053C12.7353 26.6246 12.4746 26.5819 12.2119 26.5786H12.2092C11.6731 26.5786 11.149 26.7376 10.7033 27.0355C10.2575 27.3333 9.91008 27.7567 9.70492 28.252C9.49975 28.7473 9.44607 29.2923 9.55066 29.8181C9.65526 30.3439 9.91342 30.8269 10.2925 31.206C10.6716 31.5851 11.1546 31.8433 11.6804 31.9479C12.2062 32.0525 12.7513 31.9988 13.2466 31.7936C13.7419 31.5885 14.1652 31.241 14.4631 30.7953C14.7609 30.3495 14.9199 29.8254 14.9199 29.2893C14.9163 29.0196 14.8713 28.752 14.7866 28.496L14.7932 28.5146L17.8826 25.4253C18.8895 26.1936 20.0584 26.7222 21.3004 26.9708C22.5423 27.2194 23.8246 27.1815 25.0497 26.86C26.2748 26.5385 27.4105 25.9418 28.3703 25.1153C29.3301 24.2888 30.0887 23.2544 30.5886 22.0906C31.0884 20.9268 31.3163 19.6643 31.2548 18.3992C31.1933 17.1341 30.8441 15.8997 30.2338 14.7899C29.6235 13.68 28.768 12.724 27.7326 11.9945C26.6972 11.265 25.5091 10.7812 24.2586 10.58L24.2106 10.5733H24.2186ZM22.9332 23.0773C22.0884 23.0749 21.2631 22.8222 20.5618 22.3512C19.8604 21.8801 19.3144 21.2117 18.9927 20.4305C18.6709 19.6493 18.5879 18.7902 18.7541 17.9618C18.9203 17.1335 19.3282 16.3729 19.9264 15.7762C20.5245 15.1796 21.2861 14.7735 22.1149 14.6094C22.9437 14.4453 23.8025 14.5304 24.5829 14.8541C25.3633 15.1778 26.0303 15.7255 26.4997 16.428C26.969 17.1306 27.2196 17.9564 27.2199 18.8013V18.804C27.2201 19.3655 27.1096 19.9217 26.8948 20.4405C26.68 20.9594 26.365 21.4308 25.9679 21.8279C25.5708 22.225 25.0993 22.54 24.5805 22.7548C24.0616 22.9697 23.5055 23.0801 22.9439 23.08L22.9332 23.0773Z" fill="#FF7A59"/>
</svg>
