<svg width="29" height="32" viewBox="0 0 29 32" fill="none" xmlns="http://www.w3.org/2000/svg">
<g clip-path="url(#clip0_542_2857)">
<path d="M12.3818 28.2707C13.375 28.2707 14.1801 29.0886 14.1801 30.0975C14.1801 31.1064 13.375 31.9243 12.3818 31.9243C11.3886 31.9243 10.5835 31.1064 10.5835 30.0975C10.5835 29.0886 11.3886 28.2707 12.3818 28.2707ZM22.3586 24.9376L24.1356 25.4725L22.725 30.3089C22.6017 30.7315 22.2063 31.0107 21.7735 30.9807L21.3378 30.9503L21.3271 30.9593L16.8001 30.6365L16.926 28.7581L19.9676 28.9677L17.9764 26.0497L19.4995 24.9769L21.4933 27.8986L22.3586 24.9376ZM3.01701 21.5942L4.8658 21.7272L4.64924 24.8165L7.51642 22.7911L8.57484 24.3368L5.70392 26.3643L8.6343 27.2414L8.11051 29.0475L3.32718 27.6159C2.90958 27.4909 2.63392 27.0875 2.66468 26.6463L3.01701 21.5942ZM14.954 18.9635L18.2908 23.0559L16.7869 24.3213L14.8011 21.8858L14.1573 25.6304L12.2338 25.2888L12.8782 21.5384L10.2048 23.1397L9.21363 21.4305L13.7065 18.7416C14.1196 18.4944 14.6482 18.5884 14.954 18.9635ZM24.2896 16.2178L25.9564 15.2965L28.3846 19.8304C28.5973 20.2276 28.5096 20.7216 28.1738 21.0183L27.8303 21.3198L24.3247 24.419L23.0795 22.9645L25.4363 20.8816L21.9259 20.2392L22.2626 18.3421L25.7705 18.9842L24.2896 16.2178ZM4.63243 11.4777L5.88805 12.923L3.56366 15.0056L7.08075 15.6294L6.75476 17.5284L3.2338 16.9041L4.74617 19.6816L3.08575 20.6147L0.618606 16.0841C0.4032 15.6885 0.487362 15.194 0.821003 14.8949L4.63243 11.4777ZM16.5208 9.98663L19.8463 14.0681L18.342 15.3329L16.3567 12.8963L15.7129 16.6421L13.7893 16.3005L14.4316 12.5646L11.7684 14.1505L10.781 12.4391L14.8717 10.0026L14.8758 9.98677L14.8938 9.98915L15.275 9.76335C15.688 9.51744 16.2156 9.612 16.5208 9.98663ZM20.8061 7.97937L21.5334 6.19892L26.2379 8.18221C26.6486 8.35532 26.8858 8.79486 26.8087 9.23965L26.7303 9.68206L25.927 14.3244L24.0582 13.99L24.5967 10.8824L21.4755 12.6348L20.5583 10.9472L23.6854 9.19342L20.8061 7.97937ZM11.844 4.47082L11.9249 6.39674L8.81723 6.53167L11.1611 9.25277L9.73306 10.5221L7.38524 7.79698L6.83825 10.9082L4.97034 10.5688L5.86552 5.48448C5.94375 5.04013 6.31508 4.71047 6.75903 4.69122L7.1988 4.67124L7.20866 4.66398L11.844 4.47082ZM18.201 0.36355L21.5115 4.47078L20.0006 5.7275L18.0358 3.28937L17.3731 7.03017L15.4513 6.67885L16.1151 2.92961L13.4325 4.52292L12.4473 2.81018L16.953 0.135542C17.3676 -0.110569 17.8968 -0.0138842 18.201 0.36355Z" fill="white"/>
</g>
<defs>
<clipPath id="clip0_542_2857">
<rect width="28" height="32" fill="white" transform="translate(0.5)"/>
</clipPath>
</defs>
</svg>
