<svg width="33" height="32" viewBox="0 0 33 32" fill="none" xmlns="http://www.w3.org/2000/svg">
<g clip-path="url(#clip0_542_2995)">
<path d="M30.78 17.5299C28.5667 20.3193 26.1773 23.5073 21.396 23.5073C17.1253 23.5073 15.5333 19.7406 15.4227 16.6806C16.3573 18.6593 18.1867 20.2606 21.0413 20.1873C26.5307 20.0099 30.2947 15.0513 30.2947 10.5353C30.2947 5.13526 26.2653 1.23926 19.2707 1.23926C14.268 1.23926 8.07067 3.14326 3.99733 6.15259C3.95333 9.25259 5.68 13.2806 6.3 12.8379C9.83067 10.2993 12.6307 8.66459 15.3453 7.84592C11.3267 12.3286 1.68133 22.7366 0.5 24.5699C0.633333 26.2513 2.71333 30.7673 3.732 30.7673C4.04133 30.7673 4.30667 30.5899 4.61733 30.2806C7.20926 27.3825 9.67382 24.373 12.004 21.2606C12.3 25.3993 14.3347 30.4579 20.0227 30.4579C25.1147 30.4579 30.1613 26.7833 32.4627 18.5046C32.7293 17.4859 31.4893 16.6899 30.7813 17.5313L30.78 17.5299ZM24.9813 10.8459C24.9813 13.4579 22.4133 14.7419 20.068 14.7419C18.8133 14.7419 17.8493 14.4126 17.088 13.9846C18.4893 11.8619 19.8773 9.68459 21.368 7.35392C23.9973 7.79926 24.9813 9.26059 24.9813 10.8459Z" fill="#FF4438"/>
</g>
<defs>
<clipPath id="clip0_542_2995">
<rect width="32" height="32" fill="white" transform="translate(0.5)"/>
</clipPath>
</defs>
</svg>
