<svg width="33" height="32" viewBox="0 0 33 32" fill="none" xmlns="http://www.w3.org/2000/svg">
<g clip-path="url(#clip0_542_2833)">
<path d="M2 0C1.16933 0 0.5 0.669333 0.5 1.5V30.5C0.5 31.3307 1.16933 32 2 32H31C31.8307 32 32.5 31.3307 32.5 30.5V1.5C32.5 0.669333 31.8307 0 31 0H2ZM25.1507 13C25.9667 13 26.6893 13.0493 27.32 13.148C27.9148 13.2371 28.4985 13.3891 29.0613 13.6013V16.8787C28.7912 16.6918 28.5042 16.5307 28.204 16.3973C27.8944 16.258 27.5749 16.1422 27.248 16.0507C26.6288 15.8781 25.9894 15.7885 25.3467 15.784C24.9467 15.784 24.5827 15.8213 24.2547 15.8987C23.9623 15.9612 23.6819 16.0701 23.424 16.2213C23.1973 16.36 23.024 16.5267 22.9 16.72C22.7753 16.9149 22.7104 17.142 22.7133 17.3733C22.7133 17.6347 22.784 17.8707 22.9213 18.0787C23.06 18.2867 23.2573 18.484 23.512 18.6707C23.7667 18.8573 24.076 19.0387 24.44 19.2173C24.804 19.3973 25.216 19.5827 25.6747 19.772C26.3013 20.0347 26.864 20.3147 27.3627 20.6093C27.8613 20.9053 28.2893 21.24 28.6467 21.6133C29.004 21.9853 29.276 22.4107 29.4653 22.8893C29.6547 23.368 29.7507 23.924 29.7507 24.56C29.7507 25.436 29.584 26.1733 29.2533 26.768C28.9303 27.3545 28.4666 27.8516 27.904 28.2147C27.2976 28.5992 26.6255 28.8686 25.9213 29.0093C25.1667 29.1693 24.3707 29.2493 23.5347 29.2493C22.7119 29.2529 21.8905 29.1797 21.0813 29.0307C20.3812 28.9096 19.7023 28.6882 19.0653 28.3733V24.8667C20.2704 25.8922 21.799 26.4589 23.3813 26.4667C23.8253 26.4667 24.2133 26.4267 24.544 26.3467C24.876 26.2667 25.152 26.1547 25.3747 26.0133C25.596 25.8693 25.7613 25.7013 25.872 25.5067C25.9943 25.28 26.05 25.0234 26.0325 24.7664C26.015 24.5095 25.9252 24.2627 25.7733 24.0547C25.5752 23.7925 25.3329 23.5669 25.0573 23.388C24.7155 23.1614 24.3557 22.9634 23.9813 22.796C23.5377 22.5934 23.09 22.3996 22.6387 22.2147C21.4147 21.704 20.5027 21.0787 19.9013 20.3413C19.3013 19.604 19 18.712 19 17.668C19 16.8493 19.164 16.1467 19.492 15.5587C19.82 14.9707 20.2653 14.4867 20.8307 14.1067C21.4286 13.7122 22.0925 13.4282 22.7907 13.268C23.564 13.0857 24.3562 12.9957 25.1507 13ZM5 13.2507H17.7507V16.1387H13.1747V29H9.552V16.1387H5V13.2507Z" fill="#3178C6"/>
</g>
<defs>
<clipPath id="clip0_542_2833">
<rect width="32" height="32" fill="white" transform="translate(0.5)"/>
</clipPath>
</defs>
</svg>
