<svg width="24" height="24" viewBox="0 0 24 24" fill="none" xmlns="http://www.w3.org/2000/svg">
<path d="M4.42289 10.8342C4.6721 9.24632 5.37259 7.87156 6.52435 6.70996C7.67612 5.54836 9.08968 4.8504 10.765 4.61606C11.7091 4.48338 12.6198 4.52089 13.4973 4.72857C14.3747 4.93625 15.1857 5.28568 15.9302 5.77684C15.8778 5.95476 15.8371 6.11616 15.8081 6.26105C15.7796 6.40587 15.7587 6.54288 15.7455 6.67209C15.0591 6.17949 14.3003 5.81993 13.469 5.59342C12.6378 5.3669 11.7751 5.31619 10.881 5.44129C9.49189 5.63652 8.30181 6.20013 7.31076 7.13213C6.31971 8.06412 5.66164 9.1698 5.33652 10.4492C5.16551 10.4698 5.00278 10.5115 4.84834 10.5742C4.69389 10.6368 4.55211 10.7238 4.42301 10.8351M12.8526 19.4701C11.1769 19.7056 9.62577 19.4268 8.19929 18.6337C6.77281 17.8407 5.72118 16.7149 5.04441 15.2566C5.19581 15.3279 5.35445 15.3729 5.52035 15.3917C5.68624 15.4104 5.85595 15.4065 6.02949 15.3799C6.69472 16.5206 7.63161 17.3988 8.84016 18.0143C10.0487 18.6299 11.3475 18.8401 12.7367 18.6449C14.5659 18.3878 16.0333 17.526 17.1389 16.0595C18.2444 14.5931 18.6683 12.945 18.4106 11.1153C18.3778 10.8814 18.3345 10.6491 18.2807 10.4182C18.2269 10.1873 18.1564 9.95883 18.0691 9.73267C18.1932 9.75 18.3125 9.76465 18.427 9.77661C18.5414 9.78858 18.6624 9.79094 18.7898 9.78369C18.8184 9.77966 18.8468 9.77399 18.875 9.76667C18.9031 9.75935 18.9294 9.75089 18.9539 9.74128C19.0218 9.94492 19.0777 10.1497 19.1218 10.3555C19.1665 10.5613 19.2045 10.7759 19.2359 10.9993C19.38 12.0248 19.3202 13.0166 19.0566 13.9749C18.7924 14.9332 18.373 15.7935 17.7985 16.5559C17.2236 17.3189 16.5119 17.9592 15.6634 18.4767C14.815 18.9948 13.8781 19.326 12.8526 19.4701ZM8.74259 11.7814L9.91631 10.2052L8.33227 9.01158L7.90105 9.58383L8.90994 10.3256L8.1475 11.3374L8.74259 11.7814ZM18.8522 8.26944C18.4726 8.32279 18.1257 8.23129 17.8114 7.99495C17.4969 7.75752 17.313 7.44899 17.2597 7.06939C17.2135 6.7404 17.2498 6.38607 17.3686 6.00638C17.4881 5.62662 17.7833 4.96324 18.2545 4.01623C18.9684 4.7967 19.4348 5.35303 19.6537 5.68524C19.8732 6.01737 20.006 6.34793 20.0522 6.67692C20.1056 7.05653 20.0141 7.40347 19.7778 7.71775C19.5403 8.03219 19.2318 8.21609 18.8522 8.26944ZM14.7054 10.9476L15.1545 10.3527L14.1427 9.59023L14.8874 8.60197L14.3151 8.17074L13.1215 9.75479L14.7054 10.9476ZM11.9828 13.2809C11.6043 13.3341 11.2357 13.4415 10.8769 13.603C10.5181 13.7645 10.1873 13.9815 9.88449 14.2541L6.6234 12.9174C6.59541 12.7183 6.52959 12.5334 6.42596 12.3628C6.32232 12.1923 6.17765 12.069 5.99193 11.993C5.7339 11.8935 5.47985 11.8961 5.22976 12.0008C4.97968 12.1055 4.80301 12.2855 4.69974 12.5406C4.60024 12.7987 4.60284 13.0527 4.70755 13.3028C4.81227 13.5529 4.99222 13.7296 5.24741 13.8328C5.43242 13.9078 5.62303 13.9209 5.81925 13.872C6.01547 13.8231 6.19209 13.7365 6.34911 13.6124L9.34663 14.822C9.19997 15.0159 9.06641 15.2232 8.94593 15.4438C8.82546 15.6644 8.72626 15.9086 8.64834 16.1765L9.47027 16.061C9.68951 15.5252 10.0254 15.0713 10.478 14.6991C10.9307 14.327 11.4664 14.0974 12.0853 14.0104C12.7042 13.9234 13.2825 13.9964 13.8202 14.2294C14.3579 14.4624 14.8059 14.8062 15.1643 15.2607L15.9862 15.1452C15.491 14.3997 14.8831 13.8767 14.1626 13.5762C13.4428 13.2763 12.7162 13.1778 11.9828 13.2809Z" fill="#FF4733"/>
</svg>
