<svg width="44" height="11" viewBox="0 0 44 11" fill="none" xmlns="http://www.w3.org/2000/svg">
<path d="M0.36377 0.818359H40.182C41.2002 0.818359 41.7094 0.818359 42.0983 1.01653C42.4404 1.19084 42.7186 1.46899 42.8929 1.8111C43.091 2.20003 43.091 2.70917 43.091 3.72745V7.90927C43.091 8.92755 43.091 9.43668 42.8929 9.82561C42.7186 10.1677 42.4404 10.4459 42.0983 10.6202C41.7094 10.8184 41.2002 10.8184 40.1819 10.8184H3.27286C2.25458 10.8184 1.74544 10.8184 1.35651 10.6202C1.0144 10.4459 0.736255 10.1677 0.56194 9.82561C0.36377 9.43668 0.36377 8.92755 0.36377 7.90927V0.818359Z" fill="#202020" fill-opacity="0.5"/>
<path d="M0.36377 2.182V0.818359H1.72741" stroke="white" stroke-width="0.0909091"/>
<path d="M1.72754 10.8184H1.27299C0.770917 10.8184 0.363903 10.4113 0.363903 9.90927V9.45472" stroke="white" stroke-width="0.0909091"/>
<path d="M41.7275 10.8184H42.1821C42.6842 10.8184 43.0912 10.4113 43.0912 9.90927V9.45472" stroke="white" stroke-width="0.0909091"/>
<path d="M41.7275 0.819336H42.1821C42.6842 0.819336 43.0912 1.22635 43.0912 1.72843V2.18297" stroke="white" stroke-width="0.0909091"/>
<rect width="35.4545" height="0.909091" transform="translate(4 3.5459)" fill="#FF4733"/>
<rect width="14.5455" height="0.909091" transform="translate(4 5.36426)" fill="#FF4733"/>
<rect width="23.1818" height="0.909091" transform="translate(4 7.18262)" fill="#444444"/>
</svg>
