<svg width="6" height="6" viewBox="0 0 6 6" fill="none" xmlns="http://www.w3.org/2000/svg">
<g clip-path="url(#clip0_542_5165)">
<path d="M2.05096 1.20508C1.89293 1.20571 1.74155 1.26876 1.6298 1.38051C1.51805 1.49226 1.455 1.64364 1.45437 1.80167C1.45437 2.12928 1.72335 2.39826 2.05096 2.39826C2.37857 2.39826 2.64755 2.12928 2.64755 1.80167C2.64755 1.47406 2.37857 1.20508 2.05096 1.20508ZM3.58505 1.20508C3.42702 1.20571 3.27564 1.26876 3.16389 1.38051C3.05214 1.49226 2.98909 1.64364 2.98846 1.80167C2.98846 2.12928 3.25744 2.39826 3.58505 2.39826C3.91266 2.39826 4.18164 2.12928 4.18164 1.80167C4.18164 1.47406 3.91266 1.20508 3.58505 1.20508ZM2.05096 1.54599C2.19414 1.54599 2.30664 1.65849 2.30664 1.80167C2.30664 1.94485 2.19414 2.05735 2.05096 2.05735C1.90778 2.05735 1.79528 1.94485 1.79528 1.80167C1.79528 1.65849 1.90778 1.54599 2.05096 1.54599ZM3.58505 1.54599C3.72823 1.54599 3.84073 1.65849 3.84073 1.80167C3.84073 1.94485 3.72823 2.05735 3.58505 2.05735C3.44187 2.05735 3.32937 1.94485 3.32937 1.80167C3.32937 1.65849 3.44187 1.54599 3.58505 1.54599ZM1.28391 2.22781C0.908913 2.22781 0.602095 2.53462 0.602095 2.90962C0.602095 3.09934 0.683402 3.27048 0.809879 3.3944C0.693897 3.47273 0.59881 3.57822 0.53289 3.70168C0.46697 3.82515 0.432212 3.96285 0.431641 4.10281H0.77255C0.77255 3.81849 0.999595 3.59144 1.28391 3.59144C1.56823 3.59144 1.79528 3.81849 1.79528 4.10281H2.13619C2.13561 3.96285 2.10086 3.82515 2.03494 3.70168C1.96902 3.57822 1.87393 3.47273 1.75795 3.3944C1.88442 3.27048 1.96573 3.09951 1.96573 2.90962C1.96573 2.53462 1.65891 2.22781 1.28391 2.22781ZM2.13619 4.10281C2.02965 4.24531 1.96573 4.42445 1.96573 4.61417H2.30664C2.30664 4.32985 2.53369 4.10281 2.818 4.10281C3.10232 4.10281 3.32937 4.32985 3.32937 4.61417H3.67028C3.67003 4.4298 3.61025 4.25045 3.49982 4.10281C3.44187 4.02559 3.37198 3.95962 3.29204 3.90576C3.41852 3.78184 3.49982 3.61087 3.49982 3.42099C3.49982 3.04599 3.193 2.73917 2.818 2.73917C2.443 2.73917 2.13619 3.04599 2.13619 3.42099C2.13619 3.6107 2.21749 3.78184 2.34397 3.90576C2.26409 3.95925 2.19384 4.02587 2.13619 4.10281ZM3.49982 4.10281H3.84073C3.84073 3.81849 4.06778 3.59144 4.3521 3.59144C4.63641 3.59144 4.86346 3.81849 4.86346 4.10281H5.20437C5.2038 3.96285 5.16904 3.82515 5.10312 3.70168C5.0372 3.57822 4.94211 3.47273 4.82613 3.3944C4.95261 3.27048 5.03391 3.09951 5.03391 2.90962C5.03391 2.53462 4.7271 2.22781 4.3521 2.22781C3.9771 2.22781 3.67028 2.53462 3.67028 2.90962C3.67028 3.09934 3.75158 3.27048 3.87806 3.3944C3.76208 3.47273 3.66699 3.57822 3.60107 3.70168C3.53515 3.82515 3.50039 3.96285 3.49982 4.10281ZM1.28391 2.56871C1.47431 2.56871 1.62482 2.71923 1.62482 2.90962C1.62482 3.10002 1.47431 3.25053 1.28391 3.25053C1.09352 3.25053 0.943004 3.10002 0.943004 2.90962C0.943004 2.71923 1.09352 2.56871 1.28391 2.56871ZM4.3521 2.56871C4.54249 2.56871 4.693 2.71923 4.693 2.90962C4.693 3.10002 4.54249 3.25053 4.3521 3.25053C4.1617 3.25053 4.01119 3.10002 4.01119 2.90962C4.01119 2.71923 4.1617 2.56871 4.3521 2.56871ZM2.818 3.08008C3.0084 3.08008 3.15891 3.23059 3.15891 3.42099C3.15891 3.61138 3.0084 3.7619 2.818 3.7619C2.62761 3.7619 2.4771 3.61138 2.4771 3.42099C2.4771 3.23059 2.62761 3.08008 2.818 3.08008Z" fill="#FF4733"/>
</g>
<defs>
<clipPath id="clip0_542_5165">
<rect width="5.45455" height="5.45455" fill="white" transform="translate(0.0908203 0.182617)"/>
</clipPath>
</defs>
</svg>
