<svg width="8" height="8" viewBox="0 0 8 8" fill="none" xmlns="http://www.w3.org/2000/svg">
<g clip-path="url(#clip0_1248_10353)">
<path d="M2.84688 1.14391L2.35672 1.37045C1.60208 1.71917 1.22461 1.89367 1.22461 2.18C1.22461 2.46634 1.60208 2.64084 2.35672 2.98956L2.84688 3.2161C3.32181 3.43574 3.55927 3.54556 3.81197 3.54556C4.06467 3.54556 4.30213 3.43574 4.77706 3.2161L5.26722 2.98956C6.02186 2.64084 6.39933 2.46634 6.39933 2.18C6.39933 1.89367 6.02186 1.71917 5.26722 1.37045L4.77706 1.14391C4.30213 0.924272 4.06467 0.814453 3.81197 0.814453C3.55927 0.814453 3.32181 0.924272 2.84688 1.14391Z" stroke="#FF4733" stroke-width="0.517472" stroke-linecap="round" stroke-linejoin="round"/>
<path d="M6.33838 3.42969C6.37892 3.4869 6.39933 3.54641 6.39933 3.61195C6.39933 3.89426 6.02186 4.06618 5.26722 4.41001L4.77706 4.63339C4.30213 4.84986 4.06467 4.95824 3.81197 4.95824C3.55927 4.95824 3.32181 4.84986 2.84688 4.63339L2.35672 4.41001C1.60208 4.06618 1.22461 3.89426 1.22461 3.61195C1.22461 3.54641 1.24473 3.4869 1.28556 3.42969" stroke="#FF4733" stroke-width="0.517472" stroke-linecap="round" stroke-linejoin="round"/>
<path d="M6.22023 4.91602C6.33953 5.01117 6.39933 5.10604 6.39933 5.21845C6.39933 5.50047 6.02186 5.67267 5.26722 6.01651L4.77706 6.23988C4.30213 6.45636 4.06467 6.56445 3.81197 6.56445C3.55927 6.56445 3.32181 6.45636 2.84688 6.23959L2.35672 6.01651C1.60208 5.67267 1.22461 5.50047 1.22461 5.21845C1.22461 5.10604 1.28441 5.01146 1.40371 4.91602" stroke="#FF4733" stroke-width="0.517472" stroke-linecap="round" stroke-linejoin="round"/>
</g>
<defs>
<clipPath id="clip0_1248_10353">
<rect width="6.89963" height="6.89963" fill="white" transform="translate(0.363281 0.236328)"/>
</clipPath>
</defs>
</svg>
