<svg width="16" height="16" viewBox="0 0 16 16" fill="none" xmlns="http://www.w3.org/2000/svg">
<path d="M5.762 2.09701L4.62533 2.62234C2.87533 3.43101 2 3.83567 2 4.49967C2 5.16367 2.87533 5.56834 4.62533 6.37701L5.762 6.90234C6.86333 7.41167 7.414 7.66634 8 7.66634C8.586 7.66634 9.13667 7.41167 10.238 6.90234L11.3747 6.37701C13.1247 5.56834 14 5.16367 14 4.49967C14 3.83567 13.1247 3.43101 11.3747 2.62234L10.238 2.09701C9.13667 1.58767 8.586 1.33301 8 1.33301C7.414 1.33301 6.86333 1.58767 5.762 2.09701Z" stroke="#4101F6" stroke-width="1.2" stroke-linecap="round" stroke-linejoin="round"/>
<path d="M13.8587 7.39746C13.9527 7.53013 14 7.66813 14 7.82013C14 8.47479 13.1247 8.87346 11.3747 9.67079L10.238 10.1888C9.13667 10.6908 8.586 10.9421 8 10.9421C7.414 10.9421 6.86333 10.6908 5.762 10.1888L4.62533 9.67079C2.87533 8.87346 2 8.47479 2 7.82013C2 7.66813 2.04667 7.53013 2.14133 7.39746" stroke="#4101F6" stroke-width="1.2" stroke-linecap="round" stroke-linejoin="round"/>
<path d="M13.5847 10.8438C13.8613 11.0644 14 11.2844 14 11.5451C14 12.1991 13.1247 12.5984 11.3747 13.3957L10.238 13.9137C9.13667 14.4157 8.586 14.6664 8 14.6664C7.414 14.6664 6.86333 14.4158 5.762 13.9131L4.62533 13.3957C2.87533 12.5984 2 12.1991 2 11.5451C2 11.2844 2.13867 11.0651 2.41533 10.8438" stroke="#4101F6" stroke-width="1.2" stroke-linecap="round" stroke-linejoin="round"/>
</svg>
