<svg width="16" height="16" viewBox="0 0 16 16" fill="none" xmlns="http://www.w3.org/2000/svg">
<path d="M2 11H1V2C1 1.73478 1.10536 1.48043 1.29289 1.29289C1.48043 1.10536 1.73478 1 2 1H11V2H2V11ZM10.5 8.5C10.7967 8.5 11.0867 8.41203 11.3334 8.2472C11.58 8.08238 11.7723 7.84811 11.8858 7.57403C11.9994 7.29994 12.0291 6.99834 11.9712 6.70736C11.9133 6.41639 11.7704 6.14912 11.5607 5.93934C11.3509 5.72956 11.0836 5.5867 10.7926 5.52882C10.5017 5.47094 10.2001 5.50065 9.92597 5.61418C9.65189 5.72771 9.41762 5.91997 9.2528 6.16664C9.08797 6.41332 9 6.70333 9 7C9.0004 7.3977 9.15856 7.779 9.43978 8.06022C9.721 8.34144 10.1023 8.4996 10.5 8.5ZM10.5 6.5C10.5989 6.5 10.6956 6.52932 10.7778 6.58427C10.86 6.63921 10.9241 6.7173 10.9619 6.80866C10.9998 6.90002 11.0097 7.00055 10.9904 7.09755C10.9711 7.19454 10.9235 7.28363 10.8536 7.35355C10.7836 7.42348 10.6945 7.4711 10.5975 7.49039C10.5006 7.50969 10.4 7.49978 10.3087 7.46194C10.2173 7.4241 10.1392 7.36001 10.0843 7.27779C10.0293 7.19556 10 7.09889 10 7C10 6.86739 10.0527 6.74021 10.1464 6.64645C10.2402 6.55268 10.3674 6.5 10.5 6.5Z" fill="#4101F6"/>
<path d="M14 3.5H4.5C4.23491 3.5004 3.98078 3.60588 3.79333 3.79333C3.60588 3.98078 3.5004 4.23491 3.5 4.5V14C3.5004 14.2651 3.60588 14.5192 3.79333 14.7067C3.98078 14.8941 4.23491 14.9996 4.5 15H14C14.2651 14.9996 14.5192 14.8941 14.7067 14.7067C14.8941 14.5192 14.9996 14.2651 15 14V4.5C14.9996 4.23491 14.8941 3.98078 14.7067 3.79333C14.5192 3.60588 14.2651 3.5004 14 3.5ZM14 14H4.5V11L6.5 9.0015L9.293 11.7945C9.48053 11.982 9.73484 12.0873 10 12.0873C10.2652 12.0873 10.5195 11.982 10.707 11.7945L11.5 11.0015L14 13.5V14ZM14 12.086L12.207 10.293C12.0195 10.1055 11.7652 10.0002 11.5 10.0002C11.2348 10.0002 10.9805 10.1055 10.793 10.293L10 11.086L7.207 8.293C7.01947 8.10553 6.76516 8.00021 6.5 8.00021C6.23484 8.00021 5.98053 8.10553 5.793 8.293L4.5 9.586V4.5H14V12.086Z" fill="#4101F6"/>
</svg>
