<svg width="8" height="8" viewBox="0 0 8 8" fill="none" xmlns="http://www.w3.org/2000/svg">
<g clip-path="url(#clip0_1248_10338)">
<path d="M1.67244 5.01539H1.24121V1.13435C1.24121 1.01998 1.28664 0.910299 1.36751 0.829428C1.44839 0.748558 1.55807 0.703125 1.67244 0.703125H5.55348V1.13435H1.67244V5.01539ZM5.33787 3.93733C5.4658 3.93733 5.59086 3.89939 5.69723 3.82831C5.8036 3.75724 5.88651 3.65621 5.93547 3.53802C5.98443 3.41983 5.99724 3.28977 5.97228 3.16429C5.94732 3.03882 5.88571 2.92356 5.79525 2.8331C5.70479 2.74264 5.58953 2.68103 5.46406 2.65607C5.33858 2.63112 5.20852 2.64393 5.09033 2.69288C4.97214 2.74184 4.87111 2.82475 4.80004 2.93112C4.72896 3.03749 4.69103 3.16255 4.69103 3.29049C4.6912 3.46199 4.7594 3.62641 4.88067 3.74768C5.00194 3.86895 5.16637 3.93715 5.33787 3.93733ZM5.33787 3.07487C5.38051 3.07487 5.4222 3.08752 5.45765 3.11121C5.49311 3.1349 5.52075 3.16858 5.53707 3.20797C5.55339 3.24737 5.55766 3.29072 5.54934 3.33255C5.54102 3.37437 5.52048 3.41279 5.49033 3.44295C5.46017 3.4731 5.42175 3.49364 5.37993 3.50196C5.3381 3.51028 5.29475 3.50601 5.25535 3.48969C5.21596 3.47337 5.18228 3.44573 5.15859 3.41027C5.1349 3.37482 5.12225 3.33313 5.12225 3.29049C5.12225 3.2333 5.14497 3.17846 5.1854 3.13802C5.22584 3.09759 5.28068 3.07487 5.33787 3.07487Z" fill="#FF4733"/>
<path d="M6.84624 1.7793H2.74959C2.63527 1.77947 2.52569 1.82496 2.44485 1.90579C2.36402 1.98662 2.31853 2.09621 2.31836 2.21052V6.30718C2.31853 6.42149 2.36402 6.53108 2.44485 6.61191C2.52569 6.69275 2.63527 6.73823 2.74959 6.7384H6.84624C6.96056 6.73823 7.07014 6.69275 7.15097 6.61191C7.23181 6.53108 7.2773 6.42149 7.27747 6.30718V2.21052C7.2773 2.09621 7.23181 1.98662 7.15097 1.90579C7.07014 1.82496 6.96056 1.77947 6.84624 1.7793ZM6.84624 6.30718H2.74959V5.0135L3.61204 4.15169L4.81646 5.35611C4.89732 5.43695 5.00699 5.48236 5.12133 5.48236C5.23568 5.48236 5.34534 5.43695 5.42621 5.35611L5.76817 5.01414L6.84624 6.09156V6.30718ZM6.84624 5.48181L6.07305 4.70862C5.99218 4.62778 5.88252 4.58236 5.76817 4.58236C5.65383 4.58236 5.54416 4.62778 5.4633 4.70862L5.12133 5.05058L3.91692 3.84617C3.83605 3.76532 3.72639 3.71991 3.61204 3.71991C3.49769 3.71991 3.38803 3.76532 3.30716 3.84617L2.74959 4.40374V2.21052H6.84624V5.48181Z" fill="#FF4733"/>
</g>
<defs>
<clipPath id="clip0_1248_10338">
<rect width="6.89963" height="6.89963" fill="white" transform="translate(0.810547 0.271484)"/>
</clipPath>
</defs>
</svg>
