<svg width="6" height="7" viewBox="0 0 6 7" fill="none" xmlns="http://www.w3.org/2000/svg">
<path d="M3.16602 0.849872L0.883108 3.93746C0.865314 3.96194 0.854162 3.99062 0.850736 4.0207C0.84731 4.05077 0.851728 4.08122 0.863559 4.10908C0.874809 4.13627 0.893552 4.1597 0.917606 4.17664C0.940629 4.19264 0.968057 4.20108 0.996089 4.20079H2.71697L2.45622 6.2198C2.45497 6.23321 2.45766 6.2467 2.46399 6.25861C2.46986 6.27 2.47937 6.27911 2.49101 6.28448C2.5027 6.29023 2.51468 6.29147 2.52694 6.28822C2.53912 6.28505 2.54993 6.27799 2.55771 6.26809L4.84062 3.18022C4.85841 3.15573 4.86957 3.12706 4.87299 3.09698C4.87642 3.06691 4.872 3.03646 4.86017 3.00859C4.84887 2.98151 4.83013 2.95819 4.80612 2.94132C4.78313 2.92522 4.7557 2.91668 4.72764 2.91689H3.00676L3.2675 0.897882C3.26876 0.884465 3.26606 0.870973 3.25974 0.859072C3.25387 0.847676 3.24436 0.838569 3.23272 0.833198C3.22145 0.828123 3.20885 0.826813 3.19678 0.829461C3.1846 0.832622 3.1738 0.839979 3.16602 0.849872Z" stroke="#FF4733" stroke-width="0.517472" stroke-linecap="round" stroke-linejoin="round"/>
</svg>
