<svg width="16" height="16" viewBox="0 0 16 16" fill="none" xmlns="http://www.w3.org/2000/svg">
<path d="M8.70567 1.7184L3.41167 8.8784C3.3704 8.93519 3.34454 9.00169 3.3366 9.07143C3.32865 9.14118 3.3389 9.21179 3.36633 9.2764C3.39242 9.33944 3.43589 9.39378 3.49167 9.43307C3.54505 9.47016 3.60866 9.48973 3.67367 9.48907H7.66433L7.05967 14.1711C7.05675 14.2022 7.06301 14.2335 7.07767 14.2611C7.09128 14.2875 7.11334 14.3086 7.14033 14.3211C7.16744 14.3344 7.19522 14.3373 7.22367 14.3297C7.25191 14.3224 7.27697 14.306 7.295 14.2831L12.589 7.1224C12.6303 7.06561 12.6561 6.99911 12.6641 6.92937C12.672 6.85962 12.6618 6.78901 12.6343 6.7244C12.6081 6.6616 12.5647 6.60751 12.509 6.5684C12.4557 6.53107 12.3921 6.51126 12.327 6.51173H8.33633L8.941 1.82973C8.94392 1.79862 8.93766 1.76733 8.923 1.73973C8.90938 1.71331 8.88733 1.69219 8.86033 1.67973C8.83421 1.66797 8.80499 1.66493 8.777 1.67107C8.74876 1.6784 8.7237 1.69546 8.70567 1.7184Z" stroke="#4101F6" stroke-width="1.2" stroke-linecap="round" stroke-linejoin="round"/>
</svg>
